<svg width="591" height="581" viewBox="0 0 591 581" xmlns="http://www.w3.org/2000/svg" xmlns:xlink="http://www.w3.org/1999/xlink"><svg id="clear-view-escapes" data-name="Layer 1" width="144.4" height="61.53" viewBox="-1 -1 144.4 61.53" x="384.12" xmlns="http://www.w3.org/2000/svg"><defs><style>.acls-1{fill:#fff}</style></defs><title>clear-view-escapes</title><path class="acls-1" d="M19.5 27.52v4.75H5.93v5.51h12.45v4.39H5.93v6.3h13.85v4.75H.28v-25.7H19.5zm7.86 21.07a3 3 0 0 0 .88 1 3.78 3.78 0 0 0 1.24.56 5.84 5.84 0 0 0 1.46.18 5.46 5.46 0 0 0 1.13-.13 3.86 3.86 0 0 0 1.08-.4 2.47 2.47 0 0 0 .85-.75 1.89 1.89 0 0 0 .32-1.13 1.91 1.91 0 0 0-1.53-1.73 30.59 30.59 0 0 0-4.3-1.19q-1.12-.25-2.18-.59a7.38 7.38 0 0 1-1.89-.9 4.35 4.35 0 0 1-1.33-1.4 4 4 0 0 1-.5-2.07 5.6 5.6 0 0 1 .7-3 5.16 5.16 0 0 1 1.85-1.82 8.13 8.13 0 0 1 2.59-.94 15.92 15.92 0 0 1 3-.27 14.79 14.79 0 0 1 2.93.29 7.77 7.77 0 0 1 2.54 1 5.83 5.83 0 0 1 1.8 1.88 6.11 6.11 0 0 1 .89 2.82H34a2.24 2.24 0 0 0-1.12-2 5.1 5.1 0 0 0-2.37-.52 8.77 8.77 0 0 0-.94.05 3.15 3.15 0 0 0-.92.23 1.91 1.91 0 0 0-.7.52 1.38 1.38 0 0 0-.29.92 1.4 1.4 0 0 0 .5 1.12 3.88 3.88 0 0 0 1.31.7 16.38 16.38 0 0 0 1.85.49l2.18.49a21.57 21.57 0 0 1 2.18.61 7.2 7.2 0 0 1 1.89 1 4.63 4.63 0 0 1 1.33 1.48 4.34 4.34 0 0 1 .5 2.18 5.65 5.65 0 0 1-2.66 5.07A7.9 7.9 0 0 1 34 53.37a15.9 15.9 0 0 1-3.11.31 15.36 15.36 0 0 1-3.17-.32A8.35 8.35 0 0 1 25 52.27a6.17 6.17 0 0 1-2-2 6.25 6.25 0 0 1-.85-3.11H27a2.8 2.8 0 0 0 .36 1.43zM51.27 38a3.59 3.59 0 0 0-2.05.56A4.45 4.45 0 0 0 47.87 40a6.23 6.23 0 0 0-.74 1.94 10.54 10.54 0 0 0-.21 2.06 10.11 10.11 0 0 0 .21 2 6.32 6.32 0 0 0 .7 1.89 4 4 0 0 0 1.31 1.39 3.61 3.61 0 0 0 2 .54 3.75 3.75 0 0 0 2.83-1 4.86 4.86 0 0 0 1.24-2.75h4.93a8.43 8.43 0 0 1-2.88 5.65 9.29 9.29 0 0 1-6.08 1.94 10.16 10.16 0 0 1-3.83-.7 8.49 8.49 0 0 1-3-2 8.92 8.92 0 0 1-1.91-3 10.42 10.42 0 0 1-.68-3.83 12.4 12.4 0 0 1 .63-4 9 9 0 0 1 1.9-3.13 8.49 8.49 0 0 1 3-2.1 10.15 10.15 0 0 1 4-.76 11.63 11.63 0 0 1 3.19.43 8.49 8.49 0 0 1 2.73 1.31 6.79 6.79 0 0 1 2.83 5.31h-5A3.43 3.43 0 0 0 51.27 38zm11.55 2.33a5.93 5.93 0 0 1 .9-3 6.13 6.13 0 0 1 2-1.91 8.83 8.83 0 0 1 2.75-1 15.71 15.71 0 0 1 3.08-.31 20.85 20.85 0 0 1 2.84.2 8.72 8.72 0 0 1 2.63.77A5.18 5.18 0 0 1 79 36.67a4.47 4.47 0 0 1 .76 2.72v9.68a19.49 19.49 0 0 0 .14 2.41 4.34 4.34 0 0 0 .5 1.73h-5.19a6.77 6.77 0 0 1-.21-.88 7.44 7.44 0 0 1-.13-.92A6.64 6.64 0 0 1 72 53.17a11.55 11.55 0 0 1-3.38.5 9.1 9.1 0 0 1-2.48-.32 5.68 5.68 0 0 1-2-1 4.69 4.69 0 0 1-1.35-1.73 5.84 5.84 0 0 1-.49-2.48 5.42 5.42 0 0 1 .56-2.61 4.66 4.66 0 0 1 1.44-1.64 6.44 6.44 0 0 1 2-.92 21.75 21.75 0 0 1 2.29-.49q1.15-.18 2.27-.29a13.74 13.74 0 0 0 2-.32 3.43 3.43 0 0 0 1.37-.63 1.38 1.38 0 0 0 .4-1.24 2.72 2.72 0 0 0-.27-1.31 2 2 0 0 0-.72-.69 2.86 2.86 0 0 0-1-.36 8.61 8.61 0 0 0-1.28-.09 3.88 3.88 0 0 0-2.37.65 2.89 2.89 0 0 0-1 2.16h-5.17zm11.8 3.78a2.28 2.28 0 0 1-.81.45 8.28 8.28 0 0 1-1 .27c-.41.07-.81.17-1.2.17s-.82.11-1.22.18a9.24 9.24 0 0 0-1.13.29 3.34 3.34 0 0 0-1 .49 2.3 2.3 0 0 0-.67.77 2.49 2.49 0 0 0-.25 1.19 2.4 2.4 0 0 0 .25 1.15 1.93 1.93 0 0 0 .68.74 2.9 2.9 0 0 0 1 .38 6.48 6.48 0 0 0 1.19.11 4.51 4.51 0 0 0 2.34-.5 3.36 3.36 0 0 0 1.22-1.21 3.87 3.87 0 0 0 .49-1.42 10.06 10.06 0 0 0 .12-1.17v-1.89zm13.94-9.51V37h.07A5.62 5.62 0 0 1 91 34.78a7.29 7.29 0 0 1 3.17-.68 8.07 8.07 0 0 1 3.78.83 7.82 7.82 0 0 1 2.63 2.2 9.31 9.31 0 0 1 1.55 3.19 14.19 14.19 0 0 1 .5 3.8 12.82 12.82 0 0 1-.5 3.6 9.18 9.18 0 0 1-1.53 3.06 7.58 7.58 0 0 1-2.6 2.11 7.69 7.69 0 0 1-3.58.79 7.23 7.23 0 0 1-3.18-.7 6 6 0 0 1-2.39-2.07h-.04v8.82H83.7V34.6h4.86zm6.64 14.76A4.09 4.09 0 0 0 96.56 48a5.43 5.43 0 0 0 .74-1.89 11.19 11.19 0 0 0 .22-2.2 10.32 10.32 0 0 0-.23-2.2 5.86 5.86 0 0 0-.77-1.92 4.33 4.33 0 0 0-1.39-1.37 3.87 3.87 0 0 0-2.08-.42 3.94 3.94 0 0 0-2.11.52 4.22 4.22 0 0 0-1.37 1.35 5.6 5.6 0 0 0-.74 1.91 11.3 11.3 0 0 0-.2 2.22 10.31 10.31 0 0 0 .23 2.2 5.69 5.69 0 0 0 .76 1.8 4.36 4.36 0 0 0 5.58 1.36zm15.95-.61a5.24 5.24 0 0 0 6 .34 3.21 3.21 0 0 0 1.37-1.64H123a8.54 8.54 0 0 1-3.31 4.79 9.75 9.75 0 0 1-5.4 1.44 10.6 10.6 0 0 1-4-.7 8.22 8.22 0 0 1-3-2 9 9 0 0 1-1.89-3.09 11.34 11.34 0 0 1-.67-4 10.84 10.84 0 0 1 .68-3.89 9 9 0 0 1 4.95-5.18 9.63 9.63 0 0 1 3.87-.76 8.84 8.84 0 0 1 4.14.92 8.26 8.26 0 0 1 2.9 2.46A10.14 10.14 0 0 1 123 41a13.14 13.14 0 0 1 .36 4.14H109.9a5.16 5.16 0 0 0 1.25 3.61zm5.78-9.75a3.59 3.59 0 0 0-2.79-1 4.45 4.45 0 0 0-2 .41 3.89 3.89 0 0 0-1.3 1 3.77 3.77 0 0 0-.68 1.3 5.83 5.83 0 0 0-.23 1.22h8.31a5.91 5.91 0 0 0-1.31-2.93zm13.71 9.59a3 3 0 0 0 .88 1 3.78 3.78 0 0 0 1.24.56 5.83 5.83 0 0 0 1.46.18 5.46 5.46 0 0 0 1.13-.13 3.86 3.86 0 0 0 1.08-.4 2.47 2.47 0 0 0 .81-.72 1.89 1.89 0 0 0 .32-1.13 1.91 1.91 0 0 0-1.56-1.76 30.55 30.55 0 0 0-4.22-1.19q-1.11-.25-2.18-.59a7.39 7.39 0 0 1-1.89-.9 4.36 4.36 0 0 1-1.33-1.4 4 4 0 0 1-.5-2.07 5.6 5.6 0 0 1 .7-3 5.18 5.18 0 0 1 1.85-1.82 8.13 8.13 0 0 1 2.59-.94 15.91 15.91 0 0 1 3-.27 14.79 14.79 0 0 1 2.93.29 7.77 7.77 0 0 1 2.54 1 5.84 5.84 0 0 1 1.85 1.82 6.11 6.11 0 0 1 .88 2.86h-4.86a2.24 2.24 0 0 0-1.12-2 5.1 5.1 0 0 0-2.37-.52 8.77 8.77 0 0 0-.94.05 3.15 3.15 0 0 0-.92.23 1.9 1.9 0 0 0-.7.52 1.38 1.38 0 0 0-.29.92 1.4 1.4 0 0 0 .5 1.12 3.87 3.87 0 0 0 1.31.7 16.33 16.33 0 0 0 1.85.49l2.1.51a21.57 21.57 0 0 1 2.18.61 7.18 7.18 0 0 1 1.89 1 4.63 4.63 0 0 1 1.33 1.48 4.33 4.33 0 0 1 .5 2.18 5.65 5.65 0 0 1-2.68 5.04 7.89 7.89 0 0 1-2.72 1.06 15.9 15.9 0 0 1-3.11.31 15.35 15.35 0 0 1-3.17-.32 8.35 8.35 0 0 1-2.75-1.08 6.18 6.18 0 0 1-2-2 6.25 6.25 0 0 1-.85-3.11h4.86a2.8 2.8 0 0 0 .38 1.42zm-107-42.3a6.36 6.36 0 0 0-.55-1.43 4 4 0 0 0-.9-1.12A4 4 0 0 0 20.9 3a5.11 5.11 0 0 0-1.71-.26 5 5 0 0 0-2.46.58A4.84 4.84 0 0 0 15 4.85a6.93 6.93 0 0 0-1 2.19 10.16 10.16 0 0 0 0 5 6.92 6.92 0 0 0 1 2.19 4.83 4.83 0 0 0 1.69 1.54 5 5 0 0 0 2.46.57A4.44 4.44 0 0 0 21 16a4.12 4.12 0 0 0 1.38-1 4.71 4.71 0 0 0 .9-1.49 7.13 7.13 0 0 0 .43-1.83h3.05a8.48 8.48 0 0 1-.69 2.93 7.17 7.17 0 0 1-1.59 2.29 7 7 0 0 1-2.35 1.49 8.14 8.14 0 0 1-3 .53 8.43 8.43 0 0 1-3.59-.74 7.88 7.88 0 0 1-2.69-2 9 9 0 0 1-1.69-3 11 11 0 0 1-.59-3.63 11 11 0 0 1 .59-3.6 9 9 0 0 1 1.69-3 8 8 0 0 1 2.69-2 8.29 8.29 0 0 1 3.65-.76A9.46 9.46 0 0 1 22 .6a7.31 7.31 0 0 1 2.34 1.2A6.23 6.23 0 0 1 26 3.72a6.66 6.66 0 0 1 .78 2.58h-3.14zM29.31.62h2.85v17.85h-2.85V.62zm8.18 12.12a5 5 0 0 0 .21 1.45 3.57 3.57 0 0 0 .64 1.23 3.06 3.06 0 0 0 1.08.84 3.54 3.54 0 0 0 1.55.31A3.42 3.42 0 0 0 43 16a3.17 3.17 0 0 0 1.14-1.61h2.7a5.36 5.36 0 0 1-2.1 3.26 5.71 5.71 0 0 1-1.74.85 7 7 0 0 1-2 .29 6.85 6.85 0 0 1-2.7-.5 5.58 5.58 0 0 1-2-1.4 5.93 5.93 0 0 1-1.3-2.12 8.74 8.74 0 0 1-.36-2.77 7.79 7.79 0 0 1 .44-2.61 6.68 6.68 0 0 1 1.25-2.18 5.86 5.86 0 0 1 4.56-2 5.8 5.8 0 0 1 2.74.64 6 6 0 0 1 2 1.69 6.84 6.84 0 0 1 1.17 2.39 7.42 7.42 0 0 1 .2 2.81h-9.5zm6.65-1.88a4.61 4.61 0 0 0-.29-1.3 3.47 3.47 0 0 0-.65-1.09 3.23 3.23 0 0 0-1-.75 3 3 0 0 0-1.31-.29 3.42 3.42 0 0 0-1.36.26 3.11 3.11 0 0 0-1.05.73 3.59 3.59 0 0 0-.7 1.09 3.78 3.78 0 0 0-.29 1.35h6.65zM60 15.59a1.51 1.51 0 0 0 .14.75.58.58 0 0 0 .54.23H61a1.85 1.85 0 0 0 .4 0v2l-.4.04-.49.11-.5.08h-.43a2.75 2.75 0 0 1-1.45-.35 1.74 1.74 0 0 1-.75-1.23 5 5 0 0 1-2.09 1.2 8.22 8.22 0 0 1-2.39.38 5.86 5.86 0 0 1-1.68-.24 4.38 4.38 0 0 1-1.41-.7 3.35 3.35 0 0 1-1-1.18 3.62 3.62 0 0 1-.35-1.68 3.84 3.84 0 0 1 .44-2 3.24 3.24 0 0 1 1.15-1.18 5.21 5.21 0 0 1 1.6-.61q.89-.19 1.79-.29a14.67 14.67 0 0 1 1.48-.21 6.86 6.86 0 0 0 1.24-.21 1.9 1.9 0 0 0 .84-.37 1.27 1.27 0 0 0 .31-.94 1.46 1.46 0 0 0-.26-.9 1.77 1.77 0 0 0-.65-.54 2.82 2.82 0 0 0-.86-.25 6.94 6.94 0 0 0-.9-.06 3.58 3.58 0 0 0-2 .5 2 2 0 0 0-.87 1.55h-2.83a4.29 4.29 0 0 1 .6-2.08 4.14 4.14 0 0 1 1.34-1.33 5.48 5.48 0 0 1 1.84-.7 10.94 10.94 0 0 1 2.1-.2 8.85 8.85 0 0 1 1.88.2 5.34 5.34 0 0 1 1.65.62 3.61 3.61 0 0 1 1.19 1.16A3.19 3.19 0 0 1 60 8.94v6.65zM57.14 12a3.45 3.45 0 0 1-1.6.51q-1 .09-1.9.26a6.12 6.12 0 0 0-.87.21 2.63 2.63 0 0 0-.75.38 1.65 1.65 0 0 0-.51.63 2.14 2.14 0 0 0-.19.94 1.19 1.19 0 0 0 .27.8 2 2 0 0 0 .66.51 3.08 3.08 0 0 0 .85.26 5.3 5.3 0 0 0 .84.07 4.6 4.6 0 0 0 1-.12A3.4 3.4 0 0 0 56 16a2.73 2.73 0 0 0 .81-.76 1.93 1.93 0 0 0 .33-1.14V12zm5.92-6.46h2.68V8h.05a2.88 2.88 0 0 1 .49-1 4.73 4.73 0 0 1 .88-.91 4.4 4.4 0 0 1 1.14-.66 3.41 3.41 0 0 1 1.28-.25 6.21 6.21 0 0 1 .69 0h.39V8L70 7.93a5.06 5.06 0 0 0-.61 0 3.28 3.28 0 0 0-1.36.29 3.13 3.13 0 0 0-1.09.78 4.16 4.16 0 0 0-.75 1.39 6 6 0 0 0-.27 1.9v6.15h-2.86V5.54zM77.19.62h3.25l4.48 14.13H85L89.54.62h3.17l-6.1 17.85h-3.47zm17.23 0h2.85v2.7h-2.85V.62zm0 4.93h2.85v12.92h-2.85V5.54zm8.17 7.19a5 5 0 0 0 .21 1.45 3.57 3.57 0 0 0 .64 1.23 3.06 3.06 0 0 0 1.08.84 3.54 3.54 0 0 0 1.55.31 3.42 3.42 0 0 0 2-.54 3.18 3.18 0 0 0 1.14-1.61h2.7a5.36 5.36 0 0 1-2.1 3.26 5.71 5.71 0 0 1-1.74.85 7 7 0 0 1-2 .29 6.85 6.85 0 0 1-2.7-.5 5.58 5.58 0 0 1-2-1.4 5.93 5.93 0 0 1-1.22-2.15 8.73 8.73 0 0 1-.41-2.77 7.77 7.77 0 0 1 .44-2.61 6.69 6.69 0 0 1 1.25-2.18 5.86 5.86 0 0 1 4.56-2 5.79 5.79 0 0 1 2.74.64 6 6 0 0 1 2 1.69 6.85 6.85 0 0 1 1.16 2.41 7.42 7.42 0 0 1 .19 2.81h-9.5zm6.65-1.88a4.6 4.6 0 0 0-.29-1.3 3.48 3.48 0 0 0-.65-1.09 3.22 3.22 0 0 0-1-.75 3 3 0 0 0-1.3-.28 3.43 3.43 0 0 0-1.36.26 3.12 3.12 0 0 0-1 .73 3.6 3.6 0 0 0-.7 1.09 3.8 3.8 0 0 0-.29 1.35h6.65zm3.86-5.32h3l2.53 9.65 2.42-9.65H124l2.33 9.65L129 5.54h2.9l-4 12.93h-2.93l-2.4-9.6-2.37 9.6h-3z" transform="translate(-.28 -.19)"/></svg><svg id="comment" data-name="Layer 1" width="66" height="66" viewBox="-1 -1 66 66" x="318" y="384.12" xmlns="http://www.w3.org/2000/svg"><defs><style>.bcls-1{fill:#2f5572}</style></defs><title>comment</title><path class="bcls-1" d="M.72.08A.67.67 0 0 0 0 .8v46.48a.72.72 0 0 0 .72.72H48l16 16V.72a.67.67 0 0 0-.72-.72H.8z"/></svg><svg id="facebook" data-name="Layer 1" width="23.23" height="44.01" viewBox="-1 -1 23.23 44.01" x="528.52" y="154.07" xmlns="http://www.w3.org/2000/svg"><defs><style>.ccls-1{fill:#fff}</style></defs><title>facebook</title><path class="ccls-1" d="M21.23.31V7H17.4a3.55 3.55 0 0 0-2.85.91 4.26 4.26 0 0 0-.74 2.72v4.77H21l-1 7.47h-6.19V42H6.27V22.85H0v-7.47h6.27V9.85q0-4.69 2.55-7.28A9 9 0 0 1 15.63 0a39.57 39.57 0 0 1 5.6.31z"/></svg><svg id="fire" data-name="Layer 1" width="58" height="66" viewBox="-1 -1 58 66" x="260" y="384.12" xmlns="http://www.w3.org/2000/svg"><defs><style>.dcls-1{fill:#d4953d}</style></defs><title>Untitled-2</title><path class="dcls-1" d="M16 0C24 16 0 24 0 40s16 24 16 24C8.16 48.16 32 40 32 24S16 0 16 0zm24 24c8 16-16 24-16 40h24c3.2 0 8-4 8-16 0-16-16-24-16-24z"/></svg><svg id="globe" data-name="Layer 1" width="66" height="66" viewBox="-1 -1 66 66" x="384" y="384.12" xmlns="http://www.w3.org/2000/svg"><defs><style>.ecls-1{fill:#d4953f}</style></defs><title>globe</title><path class="ecls-1" d="M32 0a32 32 0 1 0 32 32A32 32 0 0 0 32 0zm0 8a23.75 23.75 0 0 1 7.52 1.52c-1.68 1.6-3.6 3-3.28 4.48s5.52 1 5.52 4c0 2.16-3.36 2.8-1 5.28 2.8 2.8-5.12 7.84-5.28 11.52-.24 6.64 6.72 7.76 12.24 7.76 3.36 0 4.24 1.6 4 3.52a24.07 24.07 0 0 1-19.76 10 22.94 22.94 0 0 1-8.48-1.76c1.76-3.52-2.24-10.48-6-12.72-1.84-1.84-5.76-1.12-8-2a23.49 23.49 0 0 1-1.52-6.72 1.42 1.42 0 0 1 1.28-.72c1.52 0 3.6 3 4.72 2.72 1.4-.32-5.96-10.48-2.52-12.48 1.6-1 4.8 3.12 3.76-1.28-1-4.08 2.88-2.24 5.28-3.28 2.08-.88 3.6-3.28 1-4.72a8.55 8.55 0 0 1-1.76-1.52A23.75 23.75 0 0 1 32 8.08V8zm18.48 8.72A26.46 26.46 0 0 1 54 22.48v.24a11.78 11.78 0 0 1-1.76 1.76C50 26.72 49.68 22.8 48.72 22c-1-1-4.8.16-5.28-1-.56-1.48 4-3.4 7.04-4.28z"/></svg><svg id="instagram" data-name="Layer 1" width="44.01" height="44.01" viewBox="-1 -1 44.01 44.01" x="528.52" y="110.06" xmlns="http://www.w3.org/2000/svg"><defs><style>.fcls-1{fill:#fff}</style></defs><title>instagram</title><path class="fcls-1" d="M37.25 35.49V17.77h-3.69a11.77 11.77 0 0 1 .57 3.58 12.12 12.12 0 0 1-1.75 6.36 12.76 12.76 0 0 1-4.76 4.59 13.13 13.13 0 0 1-6.56 1.7 12.78 12.78 0 0 1-9.19-3.71 12 12 0 0 1-3.83-9 11.77 11.77 0 0 1 .49-3.56H4.68v17.76a1.63 1.63 0 0 0 1.6 1.67h29.3a1.63 1.63 0 0 0 1.17-.47 1.59 1.59 0 0 0 .5-1.2zm-7.77-14.57A7.75 7.75 0 0 0 27 15.14a8.28 8.28 0 0 0-6-2.4 8.25 8.25 0 0 0-5.91 2.39 7.75 7.75 0 0 0-2.47 5.78 7.75 7.75 0 0 0 2.47 5.79A8.25 8.25 0 0 0 21 29.1a8.28 8.28 0 0 0 6-2.4 7.75 7.75 0 0 0 2.48-5.78zm7.76-9.84V6.56a1.84 1.84 0 0 0-.54-1.31 1.8 1.8 0 0 0-1.31-.56h-4.78a1.8 1.8 0 0 0-1.31.56 1.84 1.84 0 0 0-.54 1.31v4.52A1.87 1.87 0 0 0 30.6 13h4.8a1.87 1.87 0 0 0 1.85-1.89zM42 5.39v31.23A5.41 5.41 0 0 1 36.62 42H5.39a5.19 5.19 0 0 1-3.8-1.59A5.19 5.19 0 0 1 0 36.62V5.39a5.19 5.19 0 0 1 1.59-3.8A5.19 5.19 0 0 1 5.39 0h31.23a5.19 5.19 0 0 1 3.8 1.59A5.19 5.19 0 0 1 42 5.39z"/></svg><svg id="mail" data-name="Layer 1" width="66" height="50" viewBox="-1 -1 66 50" x="384.12" y="321.53" xmlns="http://www.w3.org/2000/svg"><defs><style>.gcls-1{fill:#2f5572}</style></defs><title>mail</title><path class="gcls-1" d="M0 0v8l32 16L64 8V0H0zm0 16v32h64V16L32 32z"/></svg><svg viewBox="-1 -1 130 130" width="130" height="130" id="mongodb" x="130" y="384.12" xmlns="http://www.w3.org/2000/svg"><path fill-rule="evenodd" clip-rule="evenodd" fill="#439934" d="M88.038 42.812c1.605 4.643 2.761 9.383 3.141 14.296.472 6.095.256 12.147-1.029 18.142-.035.165-.109.32-.164.48-.403.001-.814-.049-1.208.012-3.329.523-6.655 1.065-9.981 1.604-3.438.557-6.881 1.092-10.313 1.687-1.216.21-2.721-.041-3.212 1.641-.014.046-.154.054-.235.08l.166-10.051-.169-24.252 1.602-.275c2.62-.429 5.24-.864 7.862-1.281 3.129-.497 6.261-.98 9.392-1.465 1.381-.215 2.764-.412 4.148-.618z"/><path fill-rule="evenodd" clip-rule="evenodd" fill="#45A538" d="M61.729 110.054c-1.69-1.453-3.439-2.842-5.059-4.37-8.717-8.222-15.093-17.899-18.233-29.566-.865-3.211-1.442-6.474-1.627-9.792-.13-2.322-.318-4.665-.154-6.975.437-6.144 1.325-12.229 3.127-18.147l.099-.138c.175.233.427.439.516.702 1.759 5.18 3.505 10.364 5.242 15.551 5.458 16.3 10.909 32.604 16.376 48.9.107.318.384.579.583.866l-.87 2.969z"/><path fill-rule="evenodd" clip-rule="evenodd" fill="#46A037" d="M88.038 42.812c-1.384.206-2.768.403-4.149.616-3.131.485-6.263.968-9.392 1.465-2.622.417-5.242.852-7.862 1.281l-1.602.275-.012-1.045c-.053-.859-.144-1.717-.154-2.576-.069-5.478-.112-10.956-.18-16.434-.042-3.429-.105-6.857-.175-10.285-.043-2.13-.089-4.261-.185-6.388-.052-1.143-.236-2.28-.311-3.423-.042-.657.016-1.319.029-1.979.817 1.583 1.616 3.178 2.456 4.749 1.327 2.484 3.441 4.314 5.344 6.311 7.523 7.892 12.864 17.068 16.193 27.433z"/><path fill-rule="evenodd" clip-rule="evenodd" fill="#409433" d="M65.036 80.753c.081-.026.222-.034.235-.08.491-1.682 1.996-1.431 3.212-1.641 3.432-.594 6.875-1.13 10.313-1.687 3.326-.539 6.652-1.081 9.981-1.604.394-.062.805-.011 1.208-.012-.622 2.22-1.112 4.488-1.901 6.647-.896 2.449-1.98 4.839-3.131 7.182a49.142 49.142 0 0 1-6.353 9.763c-1.919 2.308-4.058 4.441-6.202 6.548-1.185 1.165-2.582 2.114-3.882 3.161l-.337-.23-1.214-1.038-1.256-2.753a41.402 41.402 0 0 1-1.394-9.838l.023-.561.171-2.426c.057-.828.133-1.655.168-2.485.129-2.982.241-5.964.359-8.946z"/><path fill-rule="evenodd" clip-rule="evenodd" fill="#4FAA41" d="M65.036 80.753c-.118 2.982-.23 5.964-.357 8.947-.035.83-.111 1.657-.168 2.485l-.765.289c-1.699-5.002-3.399-9.951-5.062-14.913-2.75-8.209-5.467-16.431-8.213-24.642a4498.887 4498.887 0 0 0-6.7-19.867c-.105-.31-.407-.552-.617-.826l4.896-9.002c.168.292.39.565.496.879a6167.476 6167.476 0 0 1 6.768 20.118c2.916 8.73 5.814 17.467 8.728 26.198.116.349.308.671.491 1.062l.67-.78-.167 10.052z"/><path fill-rule="evenodd" clip-rule="evenodd" fill="#4AA73C" d="M43.155 32.227c.21.274.511.516.617.826a4498.887 4498.887 0 0 1 6.7 19.867c2.746 8.211 5.463 16.433 8.213 24.642 1.662 4.961 3.362 9.911 5.062 14.913l.765-.289-.171 2.426-.155.559c-.266 2.656-.49 5.318-.814 7.968-.163 1.328-.509 2.632-.772 3.947-.198-.287-.476-.548-.583-.866-5.467-16.297-10.918-32.6-16.376-48.9a3888.972 3888.972 0 0 0-5.242-15.551c-.089-.263-.34-.469-.516-.702l3.272-8.84z"/><path fill-rule="evenodd" clip-rule="evenodd" fill="#57AE47" d="M65.202 70.702l-.67.78c-.183-.391-.375-.714-.491-1.062-2.913-8.731-5.812-17.468-8.728-26.198a6167.476 6167.476 0 0 0-6.768-20.118c-.105-.314-.327-.588-.496-.879l6.055-7.965c.191.255.463.482.562.769 1.681 4.921 3.347 9.848 5.003 14.778 1.547 4.604 3.071 9.215 4.636 13.813.105.308.47.526.714.786l.012 1.045c.058 8.082.115 16.167.171 24.251z"/><path fill-rule="evenodd" clip-rule="evenodd" fill="#60B24F" d="M65.021 45.404c-.244-.26-.609-.478-.714-.786-1.565-4.598-3.089-9.209-4.636-13.813-1.656-4.93-3.322-9.856-5.003-14.778-.099-.287-.371-.514-.562-.769 1.969-1.928 3.877-3.925 5.925-5.764 1.821-1.634 3.285-3.386 3.352-5.968.003-.107.059-.214.145-.514l.519 1.306c-.013.661-.072 1.322-.029 1.979.075 1.143.259 2.28.311 3.423.096 2.127.142 4.258.185 6.388.069 3.428.132 6.856.175 10.285.067 5.478.111 10.956.18 16.434.008.861.098 1.718.152 2.577z"/><path fill-rule="evenodd" clip-rule="evenodd" fill="#A9AA88" d="M62.598 107.085c.263-1.315.609-2.62.772-3.947.325-2.649.548-5.312.814-7.968l.066-.01.066.011a41.402 41.402 0 0 0 1.394 9.838c-.176.232-.425.439-.518.701-.727 2.05-1.412 4.116-2.143 6.166-.1.28-.378.498-.574.744l-.747-2.566.87-2.969z"/><path fill-rule="evenodd" clip-rule="evenodd" fill="#B6B598" d="M62.476 112.621c.196-.246.475-.464.574-.744.731-2.05 1.417-4.115 2.143-6.166.093-.262.341-.469.518-.701l1.255 2.754c-.248.352-.59.669-.728 1.061l-2.404 7.059c-.099.283-.437.483-.663.722l-.695-3.985z"/><path fill-rule="evenodd" clip-rule="evenodd" fill="#C2C1A7" d="M63.171 116.605c.227-.238.564-.439.663-.722l2.404-7.059c.137-.391.48-.709.728-1.061l1.215 1.037c-.587.58-.913 1.25-.717 2.097l-.369 1.208c-.168.207-.411.387-.494.624-.839 2.403-1.64 4.819-2.485 7.222-.107.305-.404.544-.614.812-.109-1.387-.22-2.771-.331-4.158z"/><path fill-rule="evenodd" clip-rule="evenodd" fill="#CECDB7" d="M63.503 120.763c.209-.269.506-.508.614-.812.845-2.402 1.646-4.818 2.485-7.222.083-.236.325-.417.494-.624l-.509 5.545c-.136.157-.333.294-.398.477-.575 1.614-1.117 3.24-1.694 4.854-.119.333-.347.627-.525.938-.158-.207-.441-.407-.454-.623-.051-.841-.016-1.688-.013-2.533z"/><path fill-rule="evenodd" clip-rule="evenodd" fill="#DBDAC7" d="M63.969 123.919c.178-.312.406-.606.525-.938.578-1.613 1.119-3.239 1.694-4.854.065-.183.263-.319.398-.477l.012 3.64-1.218 3.124-1.411-.495z"/><path fill-rule="evenodd" clip-rule="evenodd" fill="#EBE9DC" d="M65.38 124.415l1.218-3.124.251 3.696-1.469-.572z"/><path fill-rule="evenodd" clip-rule="evenodd" fill="#CECDB7" d="M67.464 110.898c-.196-.847.129-1.518.717-2.097l.337.23-1.054 1.867z"/><path fill-rule="evenodd" clip-rule="evenodd" fill="#4FAA41" d="M64.316 95.172l-.066-.011-.066.01.155-.559-.023.56z"/></svg><svg viewBox="-1 -1 130 130" width="130" height="130" id="nodejs" y="384.12" xmlns="http://www.w3.org/2000/svg"><path fill="#83CD29" d="M112.771 30.334L68.674 4.729c-2.781-1.584-6.402-1.584-9.205 0L14.901 30.334C12.031 31.985 10 35.088 10 38.407v51.142c0 3.319 2.084 6.423 4.954 8.083l11.775 6.688c5.628 2.772 7.617 2.772 10.178 2.772 8.333 0 13.093-5.039 13.093-13.828v-50.49c0-.713-.371-1.774-1.071-1.774h-5.623C42.594 41 41 42.061 41 42.773v50.49c0 3.896-3.524 7.773-10.11 4.48L18.723 90.73c-.424-.23-.723-.693-.723-1.181V38.407c0-.482.555-.966.982-1.213l44.424-25.561c.415-.235 1.025-.235 1.439 0l43.882 25.555c.42.253.272.722.272 1.219v51.142c0 .488.183.963-.232 1.198l-44.086 25.576c-.378.227-.847.227-1.261 0l-11.307-6.749c-.341-.198-.746-.269-1.073-.086-3.146 1.783-3.726 2.02-6.677 3.043-.726.253-1.797.692.41 1.929l14.798 8.754a9.294 9.294 0 0 0 4.647 1.246c1.642 0 3.25-.426 4.667-1.246l43.885-25.582c2.87-1.672 4.23-4.764 4.23-8.083V38.407c0-3.319-1.36-6.414-4.229-8.073zM77.91 81.445c-11.726 0-14.309-3.235-15.17-9.066-.1-.628-.633-1.379-1.272-1.379h-5.731c-.709 0-1.279.86-1.279 1.566 0 7.466 4.059 16.512 23.453 16.512 14.039 0 22.088-5.455 22.088-15.109 0-9.572-6.467-12.084-20.082-13.886-13.762-1.819-15.16-2.738-15.16-5.962 0-2.658 1.184-6.203 11.374-6.203 9.105 0 12.461 1.954 13.842 8.091.118.577.645.991 1.24.991h5.754c.354 0 .692-.143.94-.396.24-.272.367-.613.335-.979-.891-10.568-7.912-15.493-22.112-15.493-12.631 0-20.166 5.334-20.166 14.275 0 9.698 7.497 12.378 19.622 13.577 14.505 1.422 15.633 3.542 15.633 6.395 0 4.955-3.978 7.066-13.309 7.066z"/></svg><svg viewBox="-1 -1 384.12 384.12" width="384.12" height="384.12" id="post" xmlns="http://www.w3.org/2000/svg"><path d="M336.764 45.945H45.354C20.346 45.945 0 65.484 0 89.5v203.117c0 24.016 20.346 43.555 45.354 43.555h291.41c25.008 0 45.353-19.539 45.353-43.555V89.5c0-24.016-20.345-43.555-45.353-43.555zm0 251.775H45.354c-3.676 0-6.9-2.384-6.9-5.103V116.359l131.797 111.27a15.014 15.014 0 0 0 9.676 3.538l22.259.001c3.536 0 6.974-1.257 9.677-3.539l131.803-111.274v176.264c-.002 2.717-3.227 5.101-6.902 5.101zM191.059 192.987L62.87 84.397h256.378l-128.189 108.59z"/></svg><svg id="rain" data-name="Layer 1" width="66" height="66" viewBox="-1 -1 66 66" x="450" y="384.12" xmlns="http://www.w3.org/2000/svg"><defs><style>.kcls-1{fill:#d4953f}</style></defs><title>rain</title><path class="kcls-1" d="M36 0a20.42 20.42 0 0 0-20 16A16 16 0 0 0 0 32a15.4 15.4 0 0 0 4.27 10.72A11.88 11.88 0 0 1 12 40a10.51 10.51 0 0 1 4.47 1A12 12 0 0 1 28 32a12.06 12.06 0 0 1 11.51 9A11.84 11.84 0 0 1 44 40a11.94 11.94 0 0 1 11 7.52A12.07 12.07 0 0 0 64 36c0-5.2-3.36-10.32-8-12v-4A20 20 0 0 0 36 0zm-9.27 40A4 4 0 0 0 24 44v16a4 4 0 1 0 8 0V44a4 4 0 0 0-4.71-4h-.56zm-16 8A4 4 0 0 0 8 52v8a4 4 0 1 0 8 0v-8a4 4 0 0 0-4.71-4h-.54zm32 0A4 4 0 0 0 40 52v8a4 4 0 1 0 8 0v-8a4 4 0 0 0-4.71-4h-.58z" transform="translate(-.04)"/></svg><svg viewBox="-1 -1 130 130" width="130" height="130" id="react" x="384.12" y="191.53" xmlns="http://www.w3.org/2000/svg"><g fill="#61DAFB"><circle cx="64" cy="64" r="11.4"/><path d="M107.3 45.2c-2.2-.8-4.5-1.6-6.9-2.3.6-2.4 1.1-4.8 1.5-7.1 2.1-13.2-.2-22.5-6.6-26.1-1.9-1.1-4-1.6-6.4-1.6-7 0-15.9 5.2-24.9 13.9-9-8.7-17.9-13.9-24.9-13.9-2.4 0-4.5.5-6.4 1.6-6.4 3.7-8.7 13-6.6 26.1.4 2.3.9 4.7 1.5 7.1-2.4.7-4.7 1.4-6.9 2.3C8.2 50 1.4 56.6 1.4 64s6.9 14 19.3 18.8c2.2.8 4.5 1.6 6.9 2.3-.6 2.4-1.1 4.8-1.5 7.1-2.1 13.2.2 22.5 6.6 26.1 1.9 1.1 4 1.6 6.4 1.6 7.1 0 16-5.2 24.9-13.9 9 8.7 17.9 13.9 24.9 13.9 2.4 0 4.5-.5 6.4-1.6 6.4-3.7 8.7-13 6.6-26.1-.4-2.3-.9-4.7-1.5-7.1 2.4-.7 4.7-1.4 6.9-2.3 12.5-4.8 19.3-11.4 19.3-18.8s-6.8-14-19.3-18.8zM92.5 14.7c4.1 2.4 5.5 9.8 3.8 20.3-.3 2.1-.8 4.3-1.4 6.6-5.2-1.2-10.7-2-16.5-2.5-3.4-4.8-6.9-9.1-10.4-13 7.4-7.3 14.9-12.3 21-12.3 1.3 0 2.5.3 3.5.9zM81.3 74c-1.8 3.2-3.9 6.4-6.1 9.6-3.7.3-7.4.4-11.2.4-3.9 0-7.6-.1-11.2-.4-2.2-3.2-4.2-6.4-6-9.6-1.9-3.3-3.7-6.7-5.3-10 1.6-3.3 3.4-6.7 5.3-10 1.8-3.2 3.9-6.4 6.1-9.6 3.7-.3 7.4-.4 11.2-.4 3.9 0 7.6.1 11.2.4 2.2 3.2 4.2 6.4 6 9.6 1.9 3.3 3.7 6.7 5.3 10-1.7 3.3-3.4 6.6-5.3 10zm8.3-3.3c1.5 3.5 2.7 6.9 3.8 10.3-3.4.8-7 1.4-10.8 1.9 1.2-1.9 2.5-3.9 3.6-6 1.2-2.1 2.3-4.2 3.4-6.2zM64 97.8c-2.4-2.6-4.7-5.4-6.9-8.3 2.3.1 4.6.2 6.9.2 2.3 0 4.6-.1 6.9-.2-2.2 2.9-4.5 5.7-6.9 8.3zm-18.6-15c-3.8-.5-7.4-1.1-10.8-1.9 1.1-3.3 2.3-6.8 3.8-10.3 1.1 2 2.2 4.1 3.4 6.1 1.2 2.2 2.4 4.1 3.6 6.1zm-7-25.5c-1.5-3.5-2.7-6.9-3.8-10.3 3.4-.8 7-1.4 10.8-1.9-1.2 1.9-2.5 3.9-3.6 6-1.2 2.1-2.3 4.2-3.4 6.2zM64 30.2c2.4 2.6 4.7 5.4 6.9 8.3-2.3-.1-4.6-.2-6.9-.2-2.3 0-4.6.1-6.9.2 2.2-2.9 4.5-5.7 6.9-8.3zm22.2 21l-3.6-6c3.8.5 7.4 1.1 10.8 1.9-1.1 3.3-2.3 6.8-3.8 10.3-1.1-2.1-2.2-4.2-3.4-6.2zM31.7 35c-1.7-10.5-.3-17.9 3.8-20.3 1-.6 2.2-.9 3.5-.9 6 0 13.5 4.9 21 12.3-3.5 3.8-7 8.2-10.4 13-5.8.5-11.3 1.4-16.5 2.5-.6-2.3-1-4.5-1.4-6.6zM7 64c0-4.7 5.7-9.7 15.7-13.4 2-.8 4.2-1.5 6.4-2.1 1.6 5 3.6 10.3 6 15.6-2.4 5.3-4.5 10.5-6 15.5C15.3 75.6 7 69.6 7 64zm28.5 49.3c-4.1-2.4-5.5-9.8-3.8-20.3.3-2.1.8-4.3 1.4-6.6 5.2 1.2 10.7 2 16.5 2.5 3.4 4.8 6.9 9.1 10.4 13-7.4 7.3-14.9 12.3-21 12.3-1.3 0-2.5-.3-3.5-.9zM96.3 93c1.7 10.5.3 17.9-3.8 20.3-1 .6-2.2.9-3.5.9-6 0-13.5-4.9-21-12.3 3.5-3.8 7-8.2 10.4-13 5.8-.5 11.3-1.4 16.5-2.5.6 2.3 1 4.5 1.4 6.6zm9-15.6c-2 .8-4.2 1.5-6.4 2.1-1.6-5-3.6-10.3-6-15.6 2.4-5.3 4.5-10.5 6-15.5 13.8 4 22.1 10 22.1 15.6 0 4.7-5.8 9.7-15.7 13.4z"/></g></svg><svg id="star" data-name="Layer 1" width="66" height="66" viewBox="-1 -1 66 66" y="514.12" xmlns="http://www.w3.org/2000/svg"><defs><style>.mcls-1{fill:#d4953f}</style></defs><title>star</title><path class="mcls-1" d="M32 0l-8 24H0l20 16-8 24 20-16 20 16-8-24 20-16H40z"/></svg><svg id="twitter" data-name="Layer 1" width="53.78" height="44.06" viewBox="-1 -1 53.78 44.06" x="528.52" y="66" xmlns="http://www.w3.org/2000/svg"><defs><style>.ncls-1{fill:#fff}</style></defs><title>twitter</title><path class="ncls-1" d="M51.78 5a22.23 22.23 0 0 1-5.32 5.52v1.38a30.15 30.15 0 0 1-1.25 8.53 30.81 30.81 0 0 1-3.76 8.13 32.1 32.1 0 0 1-6.06 6.92 27 27 0 0 1-8.48 4.8 31 31 0 0 1-10.62 1.8A29.47 29.47 0 0 1 0 37.29a22.71 22.71 0 0 0 2.56.13 20.78 20.78 0 0 0 13.17-4.53 10.63 10.63 0 0 1-9.92-7.36 13.45 13.45 0 0 0 2 .16 11 11 0 0 0 2.79-.36 10.44 10.44 0 0 1-6.09-3.67 10.25 10.25 0 0 1-2.41-6.75v-.13a10.52 10.52 0 0 0 4.8 1.34 10.6 10.6 0 0 1-3.45-3.78 10.34 10.34 0 0 1-1.28-5.07 10.4 10.4 0 0 1 1.45-5.33 30.08 30.08 0 0 0 9.71 7.83A29.57 29.57 0 0 0 25.53 13a11.79 11.79 0 0 1-.26-2.43 10.23 10.23 0 0 1 3-7.48 10.64 10.64 0 0 1 15 0l.21.22A20.81 20.81 0 0 0 50.33.8a10.3 10.3 0 0 1-4.67 5.85A21.14 21.14 0 0 0 51.78 5z"/></svg><svg id="wifi" data-name="Layer 1" width="62" height="66" viewBox="-1 -1 62 66" x="528.52" xmlns="http://www.w3.org/2000/svg"><defs><style>.ocls-1{fill:#d4953e}</style></defs><title>wifi</title><path class="ocls-1" d="M29.88 0A55.39 55.39 0 0 0 0 8.72l4.22 6.48a47.32 47.32 0 0 1 25.66-7.28 47.31 47.31 0 0 1 25.9 7.28L60 8.72A55.53 55.53 0 0 0 29.88 0zm0 24a31.08 31.08 0 0 0-17 5l4.22 6.72A23.09 23.09 0 0 1 29.8 32a24.17 24.17 0 0 1 13 3.76L47 29a32.37 32.37 0 0 0-17.2-5h.07zm0 24a8 8 0 1 0 8 8 8 8 0 0 0-8-8z"/></svg><svg viewBox="-1 -1 130 130" width="130" height="130" id="wordpress" x="384.12" y="61.53" xmlns="http://www.w3.org/2000/svg"><path fill-rule="evenodd" clip-rule="evenodd" fill="#494949" d="M64.094 126.224c34.275-.052 62.021-27.933 62.021-62.325 0-33.833-27.618-61.697-60.613-62.286C30.85.995 1.894 29.113 1.885 63.21c-.01 35.079 27.612 63.064 62.209 63.014zM63.993 4.63c32.907-.011 59.126 26.725 59.116 60.28-.011 31.679-26.925 58.18-59.092 58.187-32.771.007-59.125-26.563-59.124-59.608.002-32.193 26.766-58.848 59.1-58.859zM39.157 35.896c.538 1.793-.968 2.417-2.569 2.542-1.685.13-3.369.257-5.325.406 6.456 19.234 12.815 38.183 19.325 57.573.464-.759.655-.973.739-1.223 3.574-10.682 7.168-21.357 10.651-32.069.318-.977.16-2.271-.188-3.275-1.843-5.32-4.051-10.524-5.667-15.908-1.105-3.686-2.571-6.071-6.928-5.644-.742.073-1.648-1.524-2.479-2.349 1.005-.6 2.003-1.704 3.017-1.719a849.593 849.593 0 0 1 26.618.008c1.018.017 2.016 1.15 3.021 1.765-.88.804-1.639 2.01-2.668 2.321-1.651.498-3.482.404-5.458.58l19.349 57.56c2.931-9.736 5.658-18.676 8.31-27.639 2.366-8.001.956-15.473-3.322-22.52-1.286-2.119-2.866-4.175-3.595-6.486-.828-2.629-1.516-5.622-1.077-8.259.745-4.469 4.174-6.688 8.814-7.113C74.333.881 34.431 9.317 19.728 34.922c5.66-.261 11.064-.604 16.472-.678 1.022-.013 2.717.851 2.957 1.652zm10.117 77.971c-.118.345-.125.729-.218 1.302 10.943 3.034 21.675 2.815 32.659-.886l-16.78-45.96c-5.37 15.611-10.52 30.575-15.661 45.544zm-8.456-2.078l-25.281-69.35c-11.405 22.278-2.729 56.268 25.281 69.35zm76.428-44.562c.802-10.534-2.832-25.119-5.97-27.125-.35 3.875-.106 8.186-1.218 12.114-2.617 9.255-5.817 18.349-8.899 27.468-3.35 9.912-6.832 19.779-10.257 29.666 16.092-9.539 24.935-23.618 26.344-42.123z"/></svg><svg id="youtube" data-name="Layer 1" width="36.75" height="44" viewBox="-1 -1 36.75 44" x="551.75" y="154.07" xmlns="http://www.w3.org/2000/svg"><defs><style>.qcls-1{fill:#fff}</style></defs><title>youtube</title><path class="qcls-1" d="M22.13 29.15v5q0 1.57-.91 1.57a1.5 1.5 0 0 1-1.06-.52v-7.11a1.5 1.5 0 0 1 1.06-.54q.91 0 .91 1.6zm7.92 0v1.08h-2.1v-1.06q0-1.59 1.06-1.59t1 1.59zM7.42 24h2.5v-2.14h-7.3v2.2h2.46V37.4h2.34V24zm6.75 13.4h2.09V25.82h-2.09v8.86a1.86 1.86 0 0 1-1.31 1 .48.48 0 0 1-.49-.47 6.52 6.52 0 0 1 0-.82v-8.57h-2.14V35a5.79 5.79 0 0 0 .19 1.71 1.26 1.26 0 0 0 1.36.87 3.43 3.43 0 0 0 2.39-1.43v1.25zm10.05-3.47v-4.6A8.33 8.33 0 0 0 24 27a1.63 1.63 0 0 0-1.67-1.31A2.82 2.82 0 0 0 20.16 27v-5.1h-2.08v15.5h2.09v-1.13a2.91 2.91 0 0 0 2.18 1.31A1.62 1.62 0 0 0 24 36.27a8.61 8.61 0 0 0 .22-2.35zm7.92-.24v-.3H30a11.6 11.6 0 0 1 0 1.43.9.9 0 0 1-.94.85q-1.08 0-1.08-1.61V32h4.19v-2.41a4.65 4.65 0 0 0-.66-2.72 3.2 3.2 0 0 0-5 0 4.52 4.52 0 0 0-.66 2.72v4.05a4.4 4.4 0 0 0 .66 2.72 3 3 0 0 0 2.49 1.2 2.9 2.9 0 0 0 3-2.51 10.31 10.31 0 0 0 .09-1.36zM17.89 12.3V7.38q0-1.61-1-1.61t-1 1.61v4.92q0 1.64 1 1.64t1-1.64zm16.85 17.6a40.6 40.6 0 0 1-.61 8.2 4.45 4.45 0 0 1-1.36 2.32 4.1 4.1 0 0 1-2.39 1.08 125.31 125.31 0 0 1-13 .49 125.31 125.31 0 0 1-13-.49A4.15 4.15 0 0 1 2 40.42 4.28 4.28 0 0 1 .63 38.1 39.76 39.76 0 0 1 0 29.9a40.6 40.6 0 0 1 .61-8.2A4.45 4.45 0 0 1 2 19.37a4.25 4.25 0 0 1 2.41-1.1q4.29-.47 13-.47t13 .47a4.4 4.4 0 0 1 3.75 3.42 39.76 39.76 0 0 1 .58 8.21zM11.35 0h2.39l-2.83 9.35v6.35H8.57V9.35a39.68 39.68 0 0 0-1.43-5Q6.27 2 5.61 0H8.1l1.67 6.16zM20 7.8v4.1a4.59 4.59 0 0 1-.66 2.76 2.88 2.88 0 0 1-2.49 1.19 2.9 2.9 0 0 1-2.46-1.19 4.68 4.68 0 0 1-.66-2.76V7.8a4.59 4.59 0 0 1 .66-2.74 2.9 2.9 0 0 1 2.46-1.19 2.88 2.88 0 0 1 2.49 1.19A4.59 4.59 0 0 1 20 7.8zM27.87 4v11.7h-2.13v-1.27a3.37 3.37 0 0 1-2.41 1.45A1.31 1.31 0 0 1 22 15a6 6 0 0 1-.19-1.76V4h2.13v8.6a6.14 6.14 0 0 0 0 .82.49.49 0 0 0 .47.52 1.87 1.87 0 0 0 1.31-1V4h2.16z"/></svg></svg>