<svg width="1180" height="1125" viewBox="0 0 1180 1125" xmlns="http://www.w3.org/2000/svg" xmlns:xlink="http://www.w3.org/1999/xlink"><svg width="795.7" height="1124.52" viewBox="-1 -1 212 299" id="background" xmlns="http://www.w3.org/2000/svg"><path d="M-148.431 68.93h119.327v120.65h-119.327z" fill="#d40000" transform="matrix(2.19512 0 0 2.2807 182.95 -249.409)"/><path d="M90.223 189.58H-29.104V68.93H90.223z" opacity=".702" fill="#fff" transform="matrix(2.19512 0 0 2.2807 182.95 -249.409)"/></svg><svg id="clear-view-escapes" data-name="Layer 1" width="130" height="42" viewBox="-1 -1 130 42" x="795.7" y="683.12" xmlns="http://www.w3.org/2000/svg"><defs id="bdefs4"><linearGradient id="blinearGradient965"><stop offset="0" id="bstop961" stop-color="#2c0000"/><stop id="bstop969" offset=".501" stop-color="#ff9393"/><stop offset="1" id="bstop963" stop-color="#f22"/></linearGradient><linearGradient id="blinearGradient975"><stop offset="0" id="bstop971" stop-color="#f6f2df"/><stop offset="1" id="bstop973" stop-color="#e11111"/></linearGradient><style id="bstyle2">.cls-1{fill:#fff}</style><radialGradient xlink:href="#blinearGradient975" id="bradialGradient1571" cx="47.744" cy="33.199" fx="47.744" fy="33.199" r="21.16" gradientTransform="matrix(1.52825 0 0 1.30777 -250.373 -28.95)" gradientUnits="userSpaceOnUse"/><linearGradient xlink:href="#blinearGradient965" id="blinearGradient967" x1="53.989" y1="20.217" x2="116.996" y2="20.217" gradientUnits="userSpaceOnUse"/><linearGradient xlink:href="#blinearGradient965" id="blinearGradient993" gradientUnits="userSpaceOnUse" x1="53.989" y1="20.217" x2="116.996" y2="20.217"/><linearGradient xlink:href="#blinearGradient965" id="blinearGradient995" gradientUnits="userSpaceOnUse" x1="53.989" y1="20.217" x2="116.996" y2="20.217"/><linearGradient xlink:href="#blinearGradient965" id="blinearGradient997" gradientUnits="userSpaceOnUse" x1="53.989" y1="20.217" x2="116.996" y2="20.217"/></defs><title id="btitle6">clear-view-escapes</title><g id="bg1023"><path d="M-.354.354h128v40h-128z" id="brect999" opacity=".416" fill="#ccc" stroke-width="0"/><g transform="translate(-.917 .49)" id="bg991"><g id="bg878" transform="matrix(.50912 0 0 .59036 121.266 10.975)"><path id="bpath1599" d="M-144.713 15.15c-.323 20.616-24.278 31.783-41.915 26.388-18.094-3.005-30.516-26.947-17.142-41.983 14.3-17.854 46.709-15.65 56.858 5.588 1.427 3.122 2.203 6.56 2.199 10.008z" fill="url(#bradialGradient1571)" stroke="red" stroke-width="0"/><path id="bellipse1581" d="M-175.597 36.002c4.511-.46 8.164 5.579 4.627 9.032-3.459 4.206-11.807 1.154-10.555-4.63.589-2.707 3.31-4.442 5.928-4.402z" fill="#fc0" stroke="red" stroke-width="0"/><path id="bpath1583" d="M-170.68 31.814c-1.228 1.623-3.688 2.813-4.145 4.707.391 3.879-3.676 6.042-6.81 6.101-.929 1.14-4.426 3.913-3.686 3.99 6.456-2.632 13.174-7.401 14.641-14.798z" fill="red" stroke="#000" stroke-width="0"/><path id="bellipse1565" d="M-139.31 13.554c-1.247 6.683-13.206 5.622-12.669-1.399 1.245-6.648 13.232-5.675 12.67 1.399z" fill="#fff" stroke="red" stroke-width="0"/><path id="bpath1585" d="M-155.861 7.588c1.996 1.432 3.276 4.466 5.983 4.267 3.939.187 4.756 4.314 5.577 6.93 1.21.895 5.065 5.729 3.09 1.795-2.71-6.242-8.048-11.393-14.65-12.992z" stroke="#000" stroke-width="0"/><path id="bellipse1587" d="M-185.362-9.499c1.919 6.251 13.31 4.592 12.492-2.255-1.49-6.37-12.71-5.317-12.646 1.378l.068.517z" fill="#00f" stroke="red" stroke-width=".146"/><path id="bpath1591" d="M-169.516-16.878c-1.517 1.386-2.435 3.917-4.328 4.584-3.543.2-6.121 3.9-5.271 7.146-1.053 1.01-3.309 4.592-3.623 4.024 1.564-7.025 6.424-13.385 13.222-15.754z" fill="#fff" stroke="#000" stroke-width="0"/><path id="bellipse1593" d="M-201.588 17.402c-.393-6.9-12.38-6.899-12.773 0 .372 6.912 12.402 6.898 12.773 0z" stroke="red" stroke-width="0"/><path id="bpath1597" d="M-196.877 21.63c-2.19-1.21-3.871-4.024-6.565-3.577-3.926.232-5.35-3.708-6.54-6.25-1.355-.78-5.838-5.088-3.348-1.455 3.618 5.883 9.604 10.396 16.453 11.282z" fill="#fff" stroke="#000" stroke-width="0"/><path id="bellipse1821" d="M-165.435 14.41c-.344 10.593-13.64 14.186-19.974 7.599-5.656-4.697-3.344-15.034 3.068-17.32 6.582-3.401 16.734.626 16.906 9.72z" fill="#fff" stroke="red" stroke-width="0"/><path id="brect1278" d="M-182.145 13.673h10.156c-.317 1.784-3.821.316-5.419.794-1.31-.419-4.746.905-4.737-.794z" stroke="red" stroke-width="0"/><path id="brect1280" d="M-176.812 9.88v8.735c-1.974-.143-.436-3.869-.922-5.53.362-.977-.877-3.733.922-3.206z" stroke="red" stroke-width="0"/><path id="brect1725" d="M-183.242 20.03h12.35c-1.123.944-3.987.11-5.758.393h-6.592v-.346z" stroke="red" stroke-width="0"/></g><g id="bg959" fill="url(#blinearGradient967)"><g transform="translate(0 -6.682)" id="bg904" fill="url(#blinearGradient997)" font-weight="400" font-family="MoolBoran" word-spacing="0"><g style="line-height:1;-inkscape-font-specification:'MoolBoran, Normal';font-variant-ligatures:normal;font-variant-caps:normal;font-variant-numeric:normal;font-feature-settings:normal;text-align:start" id="btext894" font-size="30.4" letter-spacing=".713" fill="url(#blinearGradient993)" stroke-width=".713"><path d="M57.928 21.2l.356-.075q.52-.119.98-.297.46-.193.786-.549.342-.371.535-.965t.193-1.514q0-1.38-.624-2.004-.623-.638-1.633-.638-.252 0-.52.015-.251.015-.534.06v12.305h-2.642V13.926q.416-.03.906-.06.49-.03 1.01-.044.534-.03 1.053-.03.534-.015 1.024-.015 1.203 0 2.078.282.891.268 1.47.772.579.505.86 1.232.283.713.283 1.618 0 .95-.312 1.782-.312.83-.965 1.454-.638.624-1.647.98-.995.356-2.375.356h-.12z" id="bpath1026"/><path d="M70.293 27.716q-2.227 0-3.415-1.203-1.172-1.217-1.172-3.547 0-1.099.282-1.974.297-.891.876-1.5.579-.623 1.44-.95.86-.341 1.989-.341 2.27 0 3.428 1.232t1.158 3.503q0 1.113-.297 2.004-.282.876-.86 1.5-.58.608-1.44.95-.861.326-1.99.326zm-1.886-4.765q0 1.796.43 2.642.431.846 1.44.846.387 0 .728-.06.341-.073.564-.207.149-.074.252-.356.12-.297.193-.728.09-.43.12-.98.044-.548.044-1.142 0-1.752-.446-2.613-.43-.876-1.41-.876-.37 0-.727.075-.356.074-.624.237-.148.09-.267.371-.104.282-.178.713-.06.43-.089.965-.03.534-.03 1.113z" id="bpath1028"/><path d="M80.52 27.538h-2.598V12.545l2.598-.534z" id="bpath1030"/><path d="M91.742 26.187q.326 0 .905-.163v.623q-.208.193-.49.386-.282.178-.608.327-.312.133-.653.207-.342.09-.668.09-.356 0-.609-.104-.252-.104-.445-.253-.178-.163-.312-.37-.119-.209-.208-.402l-.653.446q-.312.207-.668.37-.341.164-.727.268-.386.104-.861.104-1.069 0-1.692-.668-.609-.668-.609-2.019 0-.712.178-1.247.193-.534.594-.876.416-.356 1.054-.534.653-.193 1.588-.223l1.574-.044v-1.321q0-.535-.297-.787-.282-.252-.98-.252-.49 0-1.143.118-.638.12-1.35.401l-.357-.95q.475-.208.98-.4.52-.208 1.039-.357.534-.163 1.069-.252.549-.104 1.083-.104.609 0 1.084.119.475.104.787.37.326.268.49.713.177.446.177 1.099v4.215q0 1.47.728 1.47zm-3.206-.43q-.015-.06-.03-.297-.015-.253-.03-.624-.015-.386-.03-.86V22.95q-.964 0-1.454.119-.49.104-.609.267-.06.06-.104.223-.03.163-.06.37l-.029.416v.386q0 .624.164 1.01.178.386.578.386.43 0 .817-.104.4-.104.787-.268z" id="bpath1032"/><path d="M100.129 20.457q-.297-.104-.639-.163-.341-.074-.653-.074-.222 0-.4.044-.179.03-.342.119-.148.089-.312.237-.148.149-.341.357v6.56h-2.598v-9.143h2.33l.223 1.455h.015q.104-.164.252-.372.149-.222.312-.43.178-.223.356-.4.193-.179.386-.253.342-.119.772-.149.43-.044.935-.044z" id="bpath1034"/><path d="M105.398 27.538H102.8v-9.144h2.598zm-1.35-14.325l1.647 1.707-1.648 1.722-1.632-1.722z" id="bpath1036"/><path d="M115.536 20.368q-.49-.252-1.172-.49-.668-.237-1.455-.237-.326 0-.653.074-.327.06-.564.237-.267.193-.43.92-.164.713-.164 2.242 0 .846.119 1.44.119.579.356.95.238.356.594.52.356.148.816.148.728 0 1.514-.148.787-.164 1.425-.43l.238.667q-.757.624-1.737 1.04-.965.415-2.123.415-.816 0-1.543-.238-.713-.252-1.232-.786-.52-.535-.832-1.396-.296-.86-.296-2.093 0-1.172.311-2.093.327-.935.935-1.573.61-.653 1.515-.995.905-.341 2.078-.341.712 0 1.425.104.727.104 1.32.237z" id="bpath1038"/></g><g transform="scale(.94346 1.05993)" style="line-height:1;-inkscape-font-specification:'MoolBoran, Normal';font-variant-ligatures:normal;font-variant-caps:normal;font-variant-numeric:normal;font-feature-settings:normal;text-align:start" id="btext898" font-size="13.518" letter-spacing=".317" fill="url(#blinearGradient995)" stroke-width=".317"><path d="M61.238 34.856q0 .33-.158.667-.159.33-.456.6-.297.265-.72.436-.415.165-.937.165-.277 0-.514-.033-.238-.033-.45-.086-.204-.059-.395-.138-.192-.086-.383-.185l.29-.904q.126.086.33.185.212.099.456.184.244.086.488.146.251.052.456.052.23 0 .376-.026.152-.033.27-.086.133-.053.212-.264.079-.211.079-.548 0-.31-.205-.495-.204-.184-.515-.316-.303-.14-.66-.271-.356-.139-.666-.35-.304-.218-.508-.554-.205-.337-.205-.885 0-.264.139-.554.138-.297.402-.541.264-.251.654-.41.39-.158.884-.158.396 0 .76.04.369.04.712.105l-.185.904q-.158-.059-.363-.112-.198-.053-.41-.092-.204-.04-.402-.06-.198-.026-.35-.026-.171 0-.316.02-.146.013-.264.086-.113.066-.165.23-.047.159-.047.383 0 .231.12.383.118.152.31.27.197.113.442.212.25.092.508.205.264.105.508.25.251.14.442.35.198.205.317.502.119.297.119.72z" id="bpath1041"/><path d="M62.518 33.134l-.435-.146v-.244l1.247-.884h.317l.013.713h1.235l-.053.448q-.139.027-.343.047-.198.02-.383.033l-.45.04v2.283q0 .218.08.37.08.145.33.145.066 0 .178-.007.113-.006.231-.02l.238-.026.198-.033v.337q-.145.092-.337.191-.191.092-.409.172-.211.072-.429.118-.218.047-.416.047-.152 0-.297-.033-.145-.027-.264-.113-.112-.085-.185-.237-.066-.159-.066-.41z" id="bpath1043"/><path d="M67.172 32.573v2.726q0 .363.112.54.119.172.396.172.099 0 .218-.026.119-.033.244-.08.125-.052.238-.111.118-.066.217-.139v-3.082h1.162v4.065h-1.036l-.106-.475h-.013q-.119.08-.29.178-.165.093-.363.185-.192.086-.41.145-.21.06-.416.06-.23 0-.435-.08-.198-.072-.35-.217-.152-.152-.244-.376-.086-.231-.086-.528v-2.957z" id="bpath1045"/><path d="M73.845 32.566q0-.092-.007-.178-.007-.073-.007-.145v-2.271l1.155-.237v6.903h-.785l-.323-.382h-.02q-.238.171-.515.316-.27.146-.627.146-.317 0-.614-.106-.29-.112-.515-.35-.224-.237-.363-.62-.132-.383-.132-.93 0-.522.132-.931.132-.416.383-.7.25-.284.607-.436.357-.152.806-.152.184 0 .396.02.217.02.429.053zm-1.558 2.08q0 .699.231 1.029.231.323.614.323.191 0 .37-.053.184-.052.323-.125v-2.653q-.264-.06-.528-.06-.244 0-.43.04-.184.04-.29.132-.099.099-.198.442-.092.343-.092.924z" id="bpath1047"/><path d="M78.32 32.487q.29 0 .56.086.278.079.509.277.23.191.396.521.172.324.257.812v.053q-.052.073-.145.132-.086.06-.23.106-.146.04-.357.079-.211.033-.509.053l-1.28.099v.171q0 .475.25.786.252.31.753.31.205 0 .43-.04.224-.046.422-.105.204-.06.37-.12.171-.065.257-.111l.099.297q-.185.138-.416.29-.231.145-.495.264-.264.119-.561.191-.29.08-.6.08-.364 0-.68-.106-.31-.112-.542-.35-.224-.237-.356-.62-.132-.383-.132-.93 0-.615.152-1.037.151-.43.422-.687.27-.264.634-.382.37-.12.792-.12zm-.548.686q-.046.04-.093.152-.04.106-.072.258-.033.145-.053.31-.02.158-.02.31l1.274-.06q-.02-.178-.06-.37-.039-.19-.118-.349-.073-.158-.185-.264-.112-.106-.27-.106-.113 0-.212.027-.099.026-.191.092z" id="bpath1049"/><path d="M83.97 36.638v-2.725q0-.363-.12-.535-.111-.172-.389-.172-.099 0-.224.027-.119.026-.244.079-.12.046-.238.112-.119.06-.218.132v3.082h-1.155v-4.065h1.03l.105.475h.014q.118-.08.284-.172.171-.099.37-.185.197-.085.408-.145.212-.06.416-.06.231 0 .43.08.204.073.356.224.151.146.237.37.093.224.093.528v2.95z" id="bpath1051"/><path d="M86.755 33.134l-.436-.146v-.244l1.248-.884h.317l.013.713h1.234l-.053.448q-.138.027-.343.047-.198.02-.383.033l-.449.04v2.283q0 .218.08.37.079.145.33.145.066 0 .178-.007.112-.006.23-.02l.238-.026.198-.033v.337q-.145.092-.336.191-.192.092-.41.172-.21.072-.428.118-.218.047-.416.047-.152 0-.297-.033-.145-.027-.264-.113-.112-.085-.185-.237-.066-.159-.066-.41z" id="bpath1053"/><path d="M95.85 34.856q0 .33-.158.667-.159.33-.456.6-.297.265-.72.436-.415.165-.936.165-.278 0-.515-.033-.238-.033-.449-.086-.205-.059-.396-.138-.191-.086-.383-.185l.29-.904q.126.086.33.185.212.099.456.184.244.086.488.146.251.052.456.052.23 0 .376-.026.152-.033.27-.086.133-.053.212-.264.08-.211.08-.548 0-.31-.205-.495-.205-.184-.515-.316-.304-.14-.66-.271-.357-.139-.667-.35-.304-.218-.508-.554-.205-.337-.205-.885 0-.264.139-.554.138-.297.402-.541.264-.251.654-.41.39-.158.884-.158.396 0 .76.04.369.04.712.105l-.185.904q-.158-.059-.363-.112-.198-.053-.409-.092-.204-.04-.403-.06-.198-.026-.35-.026-.17 0-.316.02-.145.013-.264.086-.112.066-.165.23-.046.159-.046.383 0 .231.118.383.12.152.31.27.199.113.443.212.25.092.508.205.264.105.508.25.251.14.443.35.198.205.316.502.12.297.12.72z" id="bpath1055"/><path d="M98.22 32.573v2.726q0 .363.112.54.119.172.396.172.099 0 .218-.026.119-.033.244-.08.125-.052.238-.111.118-.066.217-.139v-3.082h1.162v4.065h-1.036l-.106-.475h-.013q-.119.08-.29.178-.165.093-.363.185-.192.086-.41.145-.21.06-.415.06-.232 0-.436-.08-.198-.072-.35-.217-.152-.152-.244-.376-.086-.231-.086-.528v-2.957z" id="bpath1057"/><path d="M103.566 32.922q.244-.178.502-.303.264-.132.62-.132.317 0 .607.112.297.106.522.343.23.238.363.62.138.377.138.925 0 .528-.151.944-.146.409-.423.7-.27.283-.667.435-.389.152-.884.152-.165 0-.337-.027-.171-.02-.29-.053 0 .06.007.205t.007.297v2.092l-1.155.192V32.69l1.023-.178zm1.544 1.611q0-.68-.224-1.003-.218-.324-.594-.324-.191 0-.37.04-.171.04-.343.112v2.673q.132.033.258.046.132.014.277.014.218 0 .409-.04.191-.04.284-.132.105-.106.204-.462.1-.363.1-.924z" id="bpath1059"/><path d="M108.793 32.922q.245-.178.502-.303.264-.132.62-.132.317 0 .608.112.297.106.521.343.231.238.363.62.139.377.139.925 0 .528-.152.944-.145.409-.422.7-.271.283-.667.435-.39.152-.884.152-.166 0-.337-.027-.172-.02-.29-.053 0 .06.006.205.007.145.007.297v2.092l-1.155.192V32.69l1.023-.178zm1.545 1.611q0-.68-.224-1.003-.218-.324-.595-.324-.19 0-.37.04-.17.04-.342.112v2.673q.132.033.257.046.132.014.277.014.218 0 .41-.04.19-.04.283-.132.106-.106.205-.462.099-.363.099-.924z" id="bpath1061"/><path d="M114.635 36.718q-.99 0-1.518-.535-.522-.541-.522-1.577 0-.489.126-.878.132-.396.39-.667.257-.277.64-.422.382-.152.884-.152 1.01 0 1.524.548.515.548.515 1.557 0 .495-.132.891-.125.39-.383.667-.257.27-.64.422-.383.146-.884.146zm-.838-2.119q0 .799.19 1.175.192.376.641.376.172 0 .324-.026.151-.033.25-.093.066-.033.113-.158.052-.132.085-.324.04-.191.053-.435.02-.244.02-.508 0-.78-.198-1.162-.191-.39-.627-.39-.165 0-.323.033-.159.033-.278.106-.066.04-.118.165-.047.126-.08.317-.026.191-.04.429-.012.238-.012.495z" id="bpath1063"/><path d="M120.377 33.49q-.132-.046-.284-.072-.152-.033-.29-.033-.1 0-.178.02-.08.013-.152.052-.066.04-.139.106-.066.066-.152.158v2.917h-1.155v-4.065h1.037l.099.646h.007q.046-.072.112-.165.066-.099.138-.19.08-.1.159-.18.086-.078.171-.111.152-.053.344-.066.191-.02.415-.02z" id="bpath1065"/><path d="M121.605 33.134l-.436-.146v-.244l1.248-.884h.316l.014.713h1.234l-.053.448q-.139.027-.343.047-.198.02-.383.033l-.449.04v2.283q0 .218.08.37.079.145.33.145.065 0 .178-.007.112-.006.23-.02l.238-.026.198-.033v.337q-.145.092-.336.191-.192.092-.41.172-.21.072-.429.118-.217.047-.415.047-.152 0-.297-.033-.146-.027-.264-.113-.113-.085-.185-.237-.066-.159-.066-.41z" id="bpath1067"/></g></g></g></g></g></svg><svg id="comment" data-name="Layer 1" width="66" height="66" viewBox="-1 -1 66 66" x="925.7" y="725.12" xmlns="http://www.w3.org/2000/svg"><defs><style>.ccls-1{fill:#2f5572}</style></defs><title>comment</title><path class="ccls-1" d="M.72.08A.67.67 0 0 0 0 .8v46.48a.72.72 0 0 0 .72.72H48l16 16V.72a.67.67 0 0 0-.72-.72H.8z"/></svg><svg id="facebook" data-name="Layer 1" width="23.23" height="44.01" viewBox="-1 -1 23.23 44.01" x="1137.7" y="384.12" xmlns="http://www.w3.org/2000/svg"><defs><style>.dcls-1{fill:#fff}</style></defs><title>facebook</title><path class="dcls-1" d="M21.23.31V7H17.4a3.55 3.55 0 0 0-2.85.91 4.26 4.26 0 0 0-.74 2.72v4.77H21l-1 7.47h-6.19V42H6.27V22.85H0v-7.47h6.27V9.85q0-4.69 2.55-7.28A9 9 0 0 1 15.63 0a39.57 39.57 0 0 1 5.6.31z"/></svg><svg id="fire" data-name="Layer 1" width="58" height="66" viewBox="-1 -1 58 66" x="861.7" y="855.12" xmlns="http://www.w3.org/2000/svg"><defs><style>.ecls-1{fill:#d4953d}</style></defs><title>Untitled-2</title><path class="ecls-1" d="M16 0C24 16 0 24 0 40s16 24 16 24C8.16 48.16 32 40 32 24S16 0 16 0zm24 24c8 16-16 24-16 40h24c3.2 0 8-4 8-16 0-16-16-24-16-24z"/></svg><svg id="globe" data-name="Layer 1" width="66" height="66" viewBox="-1 -1 66 66" x="795.7" y="855.12" xmlns="http://www.w3.org/2000/svg"><defs><style>.fcls-1{fill:#d4953f}</style></defs><title>globe</title><path class="fcls-1" d="M32 0a32 32 0 1 0 32 32A32 32 0 0 0 32 0zm0 8a23.75 23.75 0 0 1 7.52 1.52c-1.68 1.6-3.6 3-3.28 4.48s5.52 1 5.52 4c0 2.16-3.36 2.8-1 5.28 2.8 2.8-5.12 7.84-5.28 11.52-.24 6.64 6.72 7.76 12.24 7.76 3.36 0 4.24 1.6 4 3.52a24.07 24.07 0 0 1-19.76 10 22.94 22.94 0 0 1-8.48-1.76c1.76-3.52-2.24-10.48-6-12.72-1.84-1.84-5.76-1.12-8-2a23.49 23.49 0 0 1-1.52-6.72 1.42 1.42 0 0 1 1.28-.72c1.52 0 3.6 3 4.72 2.72 1.4-.32-5.96-10.48-2.52-12.48 1.6-1 4.8 3.12 3.76-1.28-1-4.08 2.88-2.24 5.28-3.28 2.08-.88 3.6-3.28 1-4.72a8.55 8.55 0 0 1-1.76-1.52A23.75 23.75 0 0 1 32 8.08V8zm18.48 8.72A26.46 26.46 0 0 1 54 22.48v.24a11.78 11.78 0 0 1-1.76 1.76C50 26.72 49.68 22.8 48.72 22c-1-1-4.8.16-5.28-1-.56-1.48 4-3.4 7.04-4.28z"/></svg><svg id="instagram" data-name="Layer 1" width="44.01" height="44.01" viewBox="-1 -1 44.01 44.01" x="1111.48" y="725.12" xmlns="http://www.w3.org/2000/svg"><defs><style>.gcls-1{fill:#fff}</style></defs><title>instagram</title><path class="gcls-1" d="M37.25 35.49V17.77h-3.69a11.77 11.77 0 0 1 .57 3.58 12.12 12.12 0 0 1-1.75 6.36 12.76 12.76 0 0 1-4.76 4.59 13.13 13.13 0 0 1-6.56 1.7 12.78 12.78 0 0 1-9.19-3.71 12 12 0 0 1-3.83-9 11.77 11.77 0 0 1 .49-3.56H4.68v17.76a1.63 1.63 0 0 0 1.6 1.67h29.3a1.63 1.63 0 0 0 1.17-.47 1.59 1.59 0 0 0 .5-1.2zm-7.77-14.57A7.75 7.75 0 0 0 27 15.14a8.28 8.28 0 0 0-6-2.4 8.25 8.25 0 0 0-5.91 2.39 7.75 7.75 0 0 0-2.47 5.78 7.75 7.75 0 0 0 2.47 5.79A8.25 8.25 0 0 0 21 29.1a8.28 8.28 0 0 0 6-2.4 7.75 7.75 0 0 0 2.48-5.78zm7.76-9.84V6.56a1.84 1.84 0 0 0-.54-1.31 1.8 1.8 0 0 0-1.31-.56h-4.78a1.8 1.8 0 0 0-1.31.56 1.84 1.84 0 0 0-.54 1.31v4.52A1.87 1.87 0 0 0 30.6 13h4.8a1.87 1.87 0 0 0 1.85-1.89zM42 5.39v31.23A5.41 5.41 0 0 1 36.62 42H5.39a5.19 5.19 0 0 1-3.8-1.59A5.19 5.19 0 0 1 0 36.62V5.39a5.19 5.19 0 0 1 1.59-3.8A5.19 5.19 0 0 1 5.39 0h31.23a5.19 5.19 0 0 1 3.8 1.59A5.19 5.19 0 0 1 42 5.39z"/></svg><svg id="mail" data-name="Layer 1" width="66" height="50" viewBox="-1 -1 66 50" x="991.7" y="725.12" xmlns="http://www.w3.org/2000/svg"><defs><style>.hcls-1{fill:#2f5572}</style></defs><title>mail</title><path class="hcls-1" d="M0 0v8l32 16L64 8V0H0zm0 16v32h64V16L32 32z"/></svg><svg viewBox="-1 -1 130 130" width="130" height="130" id="mongodb" x="795.7" y="725.12" xmlns="http://www.w3.org/2000/svg"><path fill-rule="evenodd" clip-rule="evenodd" fill="#439934" d="M88.038 42.812c1.605 4.643 2.761 9.383 3.141 14.296.472 6.095.256 12.147-1.029 18.142-.035.165-.109.32-.164.48-.403.001-.814-.049-1.208.012-3.329.523-6.655 1.065-9.981 1.604-3.438.557-6.881 1.092-10.313 1.687-1.216.21-2.721-.041-3.212 1.641-.014.046-.154.054-.235.08l.166-10.051-.169-24.252 1.602-.275c2.62-.429 5.24-.864 7.862-1.281 3.129-.497 6.261-.98 9.392-1.465 1.381-.215 2.764-.412 4.148-.618z"/><path fill-rule="evenodd" clip-rule="evenodd" fill="#45A538" d="M61.729 110.054c-1.69-1.453-3.439-2.842-5.059-4.37-8.717-8.222-15.093-17.899-18.233-29.566-.865-3.211-1.442-6.474-1.627-9.792-.13-2.322-.318-4.665-.154-6.975.437-6.144 1.325-12.229 3.127-18.147l.099-.138c.175.233.427.439.516.702 1.759 5.18 3.505 10.364 5.242 15.551 5.458 16.3 10.909 32.604 16.376 48.9.107.318.384.579.583.866l-.87 2.969z"/><path fill-rule="evenodd" clip-rule="evenodd" fill="#46A037" d="M88.038 42.812c-1.384.206-2.768.403-4.149.616-3.131.485-6.263.968-9.392 1.465-2.622.417-5.242.852-7.862 1.281l-1.602.275-.012-1.045c-.053-.859-.144-1.717-.154-2.576-.069-5.478-.112-10.956-.18-16.434-.042-3.429-.105-6.857-.175-10.285-.043-2.13-.089-4.261-.185-6.388-.052-1.143-.236-2.28-.311-3.423-.042-.657.016-1.319.029-1.979.817 1.583 1.616 3.178 2.456 4.749 1.327 2.484 3.441 4.314 5.344 6.311 7.523 7.892 12.864 17.068 16.193 27.433z"/><path fill-rule="evenodd" clip-rule="evenodd" fill="#409433" d="M65.036 80.753c.081-.026.222-.034.235-.08.491-1.682 1.996-1.431 3.212-1.641 3.432-.594 6.875-1.13 10.313-1.687 3.326-.539 6.652-1.081 9.981-1.604.394-.062.805-.011 1.208-.012-.622 2.22-1.112 4.488-1.901 6.647-.896 2.449-1.98 4.839-3.131 7.182a49.142 49.142 0 0 1-6.353 9.763c-1.919 2.308-4.058 4.441-6.202 6.548-1.185 1.165-2.582 2.114-3.882 3.161l-.337-.23-1.214-1.038-1.256-2.753a41.402 41.402 0 0 1-1.394-9.838l.023-.561.171-2.426c.057-.828.133-1.655.168-2.485.129-2.982.241-5.964.359-8.946z"/><path fill-rule="evenodd" clip-rule="evenodd" fill="#4FAA41" d="M65.036 80.753c-.118 2.982-.23 5.964-.357 8.947-.035.83-.111 1.657-.168 2.485l-.765.289c-1.699-5.002-3.399-9.951-5.062-14.913-2.75-8.209-5.467-16.431-8.213-24.642a4498.887 4498.887 0 0 0-6.7-19.867c-.105-.31-.407-.552-.617-.826l4.896-9.002c.168.292.39.565.496.879a6167.476 6167.476 0 0 1 6.768 20.118c2.916 8.73 5.814 17.467 8.728 26.198.116.349.308.671.491 1.062l.67-.78-.167 10.052z"/><path fill-rule="evenodd" clip-rule="evenodd" fill="#4AA73C" d="M43.155 32.227c.21.274.511.516.617.826a4498.887 4498.887 0 0 1 6.7 19.867c2.746 8.211 5.463 16.433 8.213 24.642 1.662 4.961 3.362 9.911 5.062 14.913l.765-.289-.171 2.426-.155.559c-.266 2.656-.49 5.318-.814 7.968-.163 1.328-.509 2.632-.772 3.947-.198-.287-.476-.548-.583-.866-5.467-16.297-10.918-32.6-16.376-48.9a3888.972 3888.972 0 0 0-5.242-15.551c-.089-.263-.34-.469-.516-.702l3.272-8.84z"/><path fill-rule="evenodd" clip-rule="evenodd" fill="#57AE47" d="M65.202 70.702l-.67.78c-.183-.391-.375-.714-.491-1.062-2.913-8.731-5.812-17.468-8.728-26.198a6167.476 6167.476 0 0 0-6.768-20.118c-.105-.314-.327-.588-.496-.879l6.055-7.965c.191.255.463.482.562.769 1.681 4.921 3.347 9.848 5.003 14.778 1.547 4.604 3.071 9.215 4.636 13.813.105.308.47.526.714.786l.012 1.045c.058 8.082.115 16.167.171 24.251z"/><path fill-rule="evenodd" clip-rule="evenodd" fill="#60B24F" d="M65.021 45.404c-.244-.26-.609-.478-.714-.786-1.565-4.598-3.089-9.209-4.636-13.813-1.656-4.93-3.322-9.856-5.003-14.778-.099-.287-.371-.514-.562-.769 1.969-1.928 3.877-3.925 5.925-5.764 1.821-1.634 3.285-3.386 3.352-5.968.003-.107.059-.214.145-.514l.519 1.306c-.013.661-.072 1.322-.029 1.979.075 1.143.259 2.28.311 3.423.096 2.127.142 4.258.185 6.388.069 3.428.132 6.856.175 10.285.067 5.478.111 10.956.18 16.434.008.861.098 1.718.152 2.577z"/><path fill-rule="evenodd" clip-rule="evenodd" fill="#A9AA88" d="M62.598 107.085c.263-1.315.609-2.62.772-3.947.325-2.649.548-5.312.814-7.968l.066-.01.066.011a41.402 41.402 0 0 0 1.394 9.838c-.176.232-.425.439-.518.701-.727 2.05-1.412 4.116-2.143 6.166-.1.28-.378.498-.574.744l-.747-2.566.87-2.969z"/><path fill-rule="evenodd" clip-rule="evenodd" fill="#B6B598" d="M62.476 112.621c.196-.246.475-.464.574-.744.731-2.05 1.417-4.115 2.143-6.166.093-.262.341-.469.518-.701l1.255 2.754c-.248.352-.59.669-.728 1.061l-2.404 7.059c-.099.283-.437.483-.663.722l-.695-3.985z"/><path fill-rule="evenodd" clip-rule="evenodd" fill="#C2C1A7" d="M63.171 116.605c.227-.238.564-.439.663-.722l2.404-7.059c.137-.391.48-.709.728-1.061l1.215 1.037c-.587.58-.913 1.25-.717 2.097l-.369 1.208c-.168.207-.411.387-.494.624-.839 2.403-1.64 4.819-2.485 7.222-.107.305-.404.544-.614.812-.109-1.387-.22-2.771-.331-4.158z"/><path fill-rule="evenodd" clip-rule="evenodd" fill="#CECDB7" d="M63.503 120.763c.209-.269.506-.508.614-.812.845-2.402 1.646-4.818 2.485-7.222.083-.236.325-.417.494-.624l-.509 5.545c-.136.157-.333.294-.398.477-.575 1.614-1.117 3.24-1.694 4.854-.119.333-.347.627-.525.938-.158-.207-.441-.407-.454-.623-.051-.841-.016-1.688-.013-2.533z"/><path fill-rule="evenodd" clip-rule="evenodd" fill="#DBDAC7" d="M63.969 123.919c.178-.312.406-.606.525-.938.578-1.613 1.119-3.239 1.694-4.854.065-.183.263-.319.398-.477l.012 3.64-1.218 3.124-1.411-.495z"/><path fill-rule="evenodd" clip-rule="evenodd" fill="#EBE9DC" d="M65.38 124.415l1.218-3.124.251 3.696-1.469-.572z"/><path fill-rule="evenodd" clip-rule="evenodd" fill="#CECDB7" d="M67.464 110.898c-.196-.847.129-1.518.717-2.097l.337.23-1.054 1.867z"/><path fill-rule="evenodd" clip-rule="evenodd" fill="#4FAA41" d="M64.316 95.172l-.066-.011-.066.01.155-.559-.023.56z"/></svg><svg viewBox="-1 -1 130 130" width="130" height="130" id="nodejs" x="1007.7" y="514.12" xmlns="http://www.w3.org/2000/svg"><path fill="#83CD29" d="M112.771 30.334L68.674 4.729c-2.781-1.584-6.402-1.584-9.205 0L14.901 30.334C12.031 31.985 10 35.088 10 38.407v51.142c0 3.319 2.084 6.423 4.954 8.083l11.775 6.688c5.628 2.772 7.617 2.772 10.178 2.772 8.333 0 13.093-5.039 13.093-13.828v-50.49c0-.713-.371-1.774-1.071-1.774h-5.623C42.594 41 41 42.061 41 42.773v50.49c0 3.896-3.524 7.773-10.11 4.48L18.723 90.73c-.424-.23-.723-.693-.723-1.181V38.407c0-.482.555-.966.982-1.213l44.424-25.561c.415-.235 1.025-.235 1.439 0l43.882 25.555c.42.253.272.722.272 1.219v51.142c0 .488.183.963-.232 1.198l-44.086 25.576c-.378.227-.847.227-1.261 0l-11.307-6.749c-.341-.198-.746-.269-1.073-.086-3.146 1.783-3.726 2.02-6.677 3.043-.726.253-1.797.692.41 1.929l14.798 8.754a9.294 9.294 0 0 0 4.647 1.246c1.642 0 3.25-.426 4.667-1.246l43.885-25.582c2.87-1.672 4.23-4.764 4.23-8.083V38.407c0-3.319-1.36-6.414-4.229-8.073zM77.91 81.445c-11.726 0-14.309-3.235-15.17-9.066-.1-.628-.633-1.379-1.272-1.379h-5.731c-.709 0-1.279.86-1.279 1.566 0 7.466 4.059 16.512 23.453 16.512 14.039 0 22.088-5.455 22.088-15.109 0-9.572-6.467-12.084-20.082-13.886-13.762-1.819-15.16-2.738-15.16-5.962 0-2.658 1.184-6.203 11.374-6.203 9.105 0 12.461 1.954 13.842 8.091.118.577.645.991 1.24.991h5.754c.354 0 .692-.143.94-.396.24-.272.367-.613.335-.979-.891-10.568-7.912-15.493-22.112-15.493-12.631 0-20.166 5.334-20.166 14.275 0 9.698 7.497 12.378 19.622 13.577 14.505 1.422 15.633 3.542 15.633 6.395 0 4.955-3.978 7.066-13.309 7.066z"/></svg><svg viewBox="-1 -1 384.12 384.12" width="384.12" height="384.12" id="post" x="795.7" xmlns="http://www.w3.org/2000/svg"><path d="M336.764 45.945H45.354C20.346 45.945 0 65.484 0 89.5v203.117c0 24.016 20.346 43.555 45.354 43.555h291.41c25.008 0 45.353-19.539 45.353-43.555V89.5c0-24.016-20.345-43.555-45.353-43.555zm0 251.775H45.354c-3.676 0-6.9-2.384-6.9-5.103V116.359l131.797 111.27a15.014 15.014 0 0 0 9.676 3.538l22.259.001c3.536 0 6.974-1.257 9.677-3.539l131.803-111.274v176.264c-.002 2.717-3.227 5.101-6.902 5.101zM191.059 192.987L62.87 84.397h256.378l-128.189 108.59z"/></svg><svg id="rain" data-name="Layer 1" width="66" height="66" viewBox="-1 -1 66 66" x="919.7" y="855.12" xmlns="http://www.w3.org/2000/svg"><defs><style>.lcls-1{fill:#d4953f}</style></defs><title>rain</title><path class="lcls-1" d="M36 0a20.42 20.42 0 0 0-20 16A16 16 0 0 0 0 32a15.4 15.4 0 0 0 4.27 10.72A11.88 11.88 0 0 1 12 40a10.51 10.51 0 0 1 4.47 1A12 12 0 0 1 28 32a12.06 12.06 0 0 1 11.51 9A11.84 11.84 0 0 1 44 40a11.94 11.94 0 0 1 11 7.52A12.07 12.07 0 0 0 64 36c0-5.2-3.36-10.32-8-12v-4A20 20 0 0 0 36 0zm-9.27 40A4 4 0 0 0 24 44v16a4 4 0 1 0 8 0V44a4 4 0 0 0-4.71-4h-.56zm-16 8A4 4 0 0 0 8 52v8a4 4 0 1 0 8 0v-8a4 4 0 0 0-4.71-4h-.54zm32 0A4 4 0 0 0 40 52v8a4 4 0 1 0 8 0v-8a4 4 0 0 0-4.71-4h-.58z" transform="translate(-.04)"/></svg><svg viewBox="-1 -1 130 130" width="130" height="130" id="react" x="1007.7" y="384.12" xmlns="http://www.w3.org/2000/svg"><path d="M52.881 30.644a25.22 27.218 0 0 1-25.22 27.218 25.22 27.218 0 0 1-25.22-27.218A25.22 27.218 0 0 1 27.66 3.426a25.22 27.218 0 0 1 25.22 27.218z" opacity=".374" fill="#d4aa00" stroke-width="0" stroke-miterlimit="3.542" stroke-opacity=".995"/><g opacity=".808" fill="#d4aa00"><path d="M75.4 64A11.4 11.4 0 0 1 64 75.4 11.4 11.4 0 0 1 52.6 64 11.4 11.4 0 0 1 64 52.6 11.4 11.4 0 0 1 75.4 64z" transform="matrix(.4195 0 0 .4033 .813 4.833)"/><path d="M107.3 45.2c-2.2-.8-4.5-1.6-6.9-2.3.6-2.4 1.1-4.8 1.5-7.1 2.1-13.2-.2-22.5-6.6-26.1-1.9-1.1-4-1.6-6.4-1.6-7 0-15.9 5.2-24.9 13.9-9-8.7-17.9-13.9-24.9-13.9-2.4 0-4.5.5-6.4 1.6-6.4 3.7-8.7 13-6.6 26.1.4 2.3.9 4.7 1.5 7.1-2.4.7-4.7 1.4-6.9 2.3C8.2 50 1.4 56.6 1.4 64s6.9 14 19.3 18.8c2.2.8 4.5 1.6 6.9 2.3-.6 2.4-1.1 4.8-1.5 7.1-2.1 13.2.2 22.5 6.6 26.1 1.9 1.1 4 1.6 6.4 1.6 7.1 0 16-5.2 24.9-13.9 9 8.7 17.9 13.9 24.9 13.9 2.4 0 4.5-.5 6.4-1.6 6.4-3.7 8.7-13 6.6-26.1-.4-2.3-.9-4.7-1.5-7.1 2.4-.7 4.7-1.4 6.9-2.3 12.5-4.8 19.3-11.4 19.3-18.8s-6.8-14-19.3-18.8zM92.5 14.7c4.1 2.4 5.5 9.8 3.8 20.3-.3 2.1-.8 4.3-1.4 6.6-5.2-1.2-10.7-2-16.5-2.5-3.4-4.8-6.9-9.1-10.4-13 7.4-7.3 14.9-12.3 21-12.3 1.3 0 2.5.3 3.5.9zM81.3 74c-1.8 3.2-3.9 6.4-6.1 9.6-3.7.3-7.4.4-11.2.4-3.9 0-7.6-.1-11.2-.4-2.2-3.2-4.2-6.4-6-9.6-1.9-3.3-3.7-6.7-5.3-10 1.6-3.3 3.4-6.7 5.3-10 1.8-3.2 3.9-6.4 6.1-9.6 3.7-.3 7.4-.4 11.2-.4 3.9 0 7.6.1 11.2.4 2.2 3.2 4.2 6.4 6 9.6 1.9 3.3 3.7 6.7 5.3 10-1.7 3.3-3.4 6.6-5.3 10zm8.3-3.3c1.5 3.5 2.7 6.9 3.8 10.3-3.4.8-7 1.4-10.8 1.9 1.2-1.9 2.5-3.9 3.6-6 1.2-2.1 2.3-4.2 3.4-6.2zM64 97.8c-2.4-2.6-4.7-5.4-6.9-8.3 2.3.1 4.6.2 6.9.2 2.3 0 4.6-.1 6.9-.2-2.2 2.9-4.5 5.7-6.9 8.3zm-18.6-15c-3.8-.5-7.4-1.1-10.8-1.9 1.1-3.3 2.3-6.8 3.8-10.3 1.1 2 2.2 4.1 3.4 6.1 1.2 2.2 2.4 4.1 3.6 6.1zm-7-25.5c-1.5-3.5-2.7-6.9-3.8-10.3 3.4-.8 7-1.4 10.8-1.9-1.2 1.9-2.5 3.9-3.6 6-1.2 2.1-2.3 4.2-3.4 6.2zM64 30.2c2.4 2.6 4.7 5.4 6.9 8.3-2.3-.1-4.6-.2-6.9-.2-2.3 0-4.6.1-6.9.2 2.2-2.9 4.5-5.7 6.9-8.3zm22.2 21l-3.6-6c3.8.5 7.4 1.1 10.8 1.9-1.1 3.3-2.3 6.8-3.8 10.3-1.1-2.1-2.2-4.2-3.4-6.2zM31.7 35c-1.7-10.5-.3-17.9 3.8-20.3 1-.6 2.2-.9 3.5-.9 6 0 13.5 4.9 21 12.3-3.5 3.8-7 8.2-10.4 13-5.8.5-11.3 1.4-16.5 2.5-.6-2.3-1-4.5-1.4-6.6zM7 64c0-4.7 5.7-9.7 15.7-13.4 2-.8 4.2-1.5 6.4-2.1 1.6 5 3.6 10.3 6 15.6-2.4 5.3-4.5 10.5-6 15.5C15.3 75.6 7 69.6 7 64zm28.5 49.3c-4.1-2.4-5.5-9.8-3.8-20.3.3-2.1.8-4.3 1.4-6.6 5.2 1.2 10.7 2 16.5 2.5 3.4 4.8 6.9 9.1 10.4 13-7.4 7.3-14.9 12.3-21 12.3-1.3 0-2.5-.3-3.5-.9zM96.3 93c1.7 10.5.3 17.9-3.8 20.3-1 .6-2.2.9-3.5.9-6 0-13.5-4.9-21-12.3 3.5-3.8 7-8.2 10.4-13 5.8-.5 11.3-1.4 16.5-2.5.6 2.3 1 4.5 1.4 6.6zm9-15.6c-2 .8-4.2 1.5-6.4 2.1-1.6-5-3.6-10.3-6-15.6 2.4-5.3 4.5-10.5 6-15.5 13.8 4 22.1 10 22.1 15.6 0 4.7-5.8 9.7-15.7 13.4z" transform="matrix(.4195 0 0 .4033 .813 4.833)"/></g><path d="M-189.082 97.627v-8.105h-7.735v8.105h-3.476V79.62h3.476v7.89h7.735v-7.89h3.496v18.008zm13.125 0V81.533l-5.254-.078.176-1.836h13.847l-.176 1.778-5.097.136v16.094zm30.781 0l-1.387-13.73-6.171 13.73h-1.055l-6.445-13.73-1.172 13.73h-2.012l1.738-18.125h3.262l5.996 12.754 5.703-12.754h3.184l1.894 18.125zm9.043 0V79.62h3.477v16.114h6.504l-.176 1.894zm-26.932 23.033q-2.012 0-3.418-.683-1.406-.683-2.285-1.914-.879-1.23-1.29-2.95-.39-1.737-.39-3.847 0-1.7.39-3.027.391-1.348 1.055-2.344.684-1.016 1.563-1.719.898-.703 1.875-1.133.996-.449 2.031-.644 1.035-.195 2.012-.195.605 0 1.27.039.683.039 1.308.117.645.059 1.191.156.547.078.899.156l-.645 2.559q-.351-.117-.996-.234-.644-.137-1.386-.254-.723-.117-1.446-.196-.703-.078-1.172-.078-.527 0-.937.04-.41.019-.762.117-.332.078-.644.234-.293.156-.606.39-.8.567-1.094 2.15-.273 1.581-.273 3.944 0 3.633 1.074 5.508 1.074 1.856 3.457 1.856 1.348 0 2.813-.215 1.465-.235 2.656-.645v1.504q-.664.313-1.445.567-.762.234-1.582.41-.801.156-1.641.234-.82.098-1.582.098zm21.719-5.527q0 .977-.469 1.973-.469.977-1.348 1.777-.878.782-2.128 1.29-1.23.488-2.774.488-.82 0-1.523-.098t-1.328-.254q-.606-.176-1.172-.41-.567-.254-1.133-.547l.86-2.676q.37.254.976.547.625.293 1.347.547.723.254 1.446.43.742.156 1.347.156.684 0 1.114-.078.449-.098.8-.254.391-.156.626-.781.234-.625.234-1.621 0-.918-.606-1.465-.605-.547-1.523-.938-.898-.41-1.953-.8-1.055-.41-1.973-1.036-.898-.644-1.504-1.64-.605-.996-.605-2.617 0-.782.41-1.641.41-.879 1.191-1.602.782-.742 1.934-1.21 1.152-.47 2.617-.47 1.172 0 2.246.118 1.094.117 2.11.312l-.547 2.676q-.469-.176-1.074-.332-.586-.156-1.211-.273-.606-.118-1.192-.176-.586-.078-1.035-.078-.508 0-.937.058-.43.04-.782.254-.332.196-.488.684-.137.469-.137 1.133 0 .683.352 1.132.351.45.918.801.586.332 1.308.625.743.274 1.504.606.782.312 1.504.742.742.41 1.309 1.035.586.606.937 1.484.352.88.352 2.13zm15.215 0q0 .977-.469 1.973-.469.977-1.348 1.777-.878.782-2.128 1.29-1.23.488-2.774.488-.82 0-1.523-.098t-1.328-.254q-.606-.176-1.172-.41-.567-.254-1.133-.547l.86-2.676q.37.254.976.547.625.293 1.347.547.723.254 1.446.43.742.156 1.347.156.684 0 1.114-.078.449-.098.8-.254.391-.156.626-.781.234-.625.234-1.621 0-.918-.606-1.465-.605-.547-1.523-.938-.898-.41-1.953-.8-1.055-.41-1.973-1.036-.898-.644-1.504-1.64-.605-.996-.605-2.617 0-.782.41-1.641.41-.879 1.191-1.602.782-.742 1.934-1.21 1.152-.47 2.617-.47 1.172 0 2.246.118 1.094.117 2.11.312l-.547 2.676q-.469-.176-1.074-.332-.586-.156-1.211-.273-.606-.118-1.192-.176-.586-.078-1.035-.078-.508 0-.937.058-.43.04-.782.254-.332.196-.488.684-.137.469-.137 1.133 0 .683.352 1.132.351.45.918.801.586.332 1.308.625.743.274 1.504.606.782.312 1.504.742.742.41 1.309 1.035.586.606.937 1.484.352.88.352 2.13zm11.213-17.769q0 2.793-1.31 4.473-1.288 1.7-3.866 2.578l-.586-1.113q.703-.43 1.152-.957.45-.528.684-1.153.254-.605.351-1.308.098-.684.098-1.465V80.704h3.477zm16.425-3.926q0 .977-.468 1.973-.47.977-1.348 1.777-.879.782-2.129 1.29-1.23.488-2.773.488-.82 0-1.524-.098-.703-.098-1.328-.254-.605-.176-1.172-.41-.566-.254-1.133-.547l.86-2.676q.37.254.976.547.625.293 1.348.547.723.254 1.445.43.743.156 1.348.156.684 0 1.113-.078.45-.098.801-.254.39-.156.625-.781.234-.625.234-1.621 0-.918-.605-1.465t-1.523-.938q-.899-.41-1.954-.8-1.054-.41-1.972-1.036-.899-.644-1.504-1.64-.606-.996-.606-2.617 0-.782.41-1.641.41-.879 1.192-1.602.781-.742 1.934-1.21 1.152-.47 2.617-.47 1.172 0 2.246.118 1.094.117 2.11.312l-.548 2.676q-.468-.176-1.074-.332-.586-.156-1.21-.273-.606-.117-1.192-.176-.586-.078-1.035-.078-.508 0-.938.058-.43.04-.781.254-.332.196-.488.684-.137.469-.137 1.133 0 .683.351 1.133.352.449.918.8.586.332 1.309.625.742.274 1.504.606.781.312 1.504.742.742.41 1.308 1.035.586.606.938 1.485.351.878.351 2.128zm-71.506-17.951l-12.09-12.636h-.039q.04 1.582.078 2.91.02.566.02 1.133.02.566.02 1.054.019.47.019.84v6.602h-2.031V57.265h1.523l12.09 12.578q-.02-1.445-.04-2.715 0-.547-.019-1.094 0-.566-.02-1.074v-7.558h2.052v18.085zm24.141-9.16q0 2.13-.547 3.848-.527 1.719-1.62 2.95-1.075 1.21-2.696 1.874-1.621.645-3.77.645-2.207 0-3.789-.664-1.582-.664-2.598-1.875-.996-1.23-1.484-2.95-.469-1.718-.469-3.828 0-2.109.489-3.789.488-1.699 1.504-2.89 1.035-1.192 2.617-1.817 1.582-.644 3.75-.644t3.77.644q1.62.625 2.695 1.817 1.074 1.191 1.601 2.89.547 1.68.547 3.79zm-3.672 0q0-1.64-.293-2.949-.273-1.308-.879-2.207-.605-.918-1.543-1.387-.937-.488-2.226-.488-1.133 0-2.11.254-.976.234-1.543.684-.566.449-.84 1.972-.253 1.524-.253 4.121 0 1.621.234 2.95.234 1.308.781 2.265.547.957 1.446 1.485.918.507 2.265.507 1.387 0 2.285-.254.899-.253 1.524-.683.293-.195.508-.781.214-.586.351-1.426.156-.86.215-1.895.078-1.054.078-2.168zm12.774 7.266q.176.039.41.078l.488.04.488.038h.391q1.563 0 2.598-.195 1.054-.195 1.816-.762.41-.312.742-.781.352-.488.606-1.25.273-.781.41-1.934.156-1.172.156-2.851 0-2.11-.508-3.457-.488-1.348-1.347-2.11-.84-.78-1.992-1.074-1.133-.312-2.442-.312-.195 0-.45.02-.253 0-.507.019-.254.02-.488.058-.235.02-.371.04zm-3.477-16.055q.547-.058 1.27-.117.742-.078 1.562-.117.82-.059 1.64-.078.84-.04 1.563-.04 2.09 0 3.79.47 1.718.468 2.93 1.503 1.23 1.016 1.894 2.637.683 1.602.683 3.887 0 2.226-.527 4.062-.527 1.817-1.68 3.106-1.152 1.289-2.969 1.992-1.816.703-4.394.703-.723 0-1.524-.02-.78-.019-1.542-.078-.762-.039-1.465-.078-.703-.058-1.23-.117zm31.211 17.852h-10.293V57.382h9.942l-.176 1.836-6.29.078v5.86l5.919.078-.156 1.66-5.762.136v6.446l6.973.136z" transform="matrix(.42296 0 0 .37745 90.848 -2.92)" style="line-height:1.25;-inkscape-font-specification:'MoolBoran, Normal';font-variant-ligatures:normal;font-variant-caps:normal;font-variant-numeric:normal;font-feature-settings:normal;text-align:start" opacity=".808" font-weight="400" font-size="40" font-family="MoolBoran" letter-spacing="2.09" word-spacing="0"/></svg><svg width="212" height="299" viewBox="-1 -1 212 299" id="spectra" x="795.7" y="384.12" xmlns="http://www.w3.org/2000/svg"><defs><linearGradient id="nb"><stop offset="0" stop-color="#ffc1c1"/><stop offset="1" stop-color="#ff3704"/></linearGradient><linearGradient id="na"><stop offset="0"/><stop offset="1" stop-color="#fff" stop-opacity="0"/></linearGradient><linearGradient xlink:href="#na" id="nc" x1="-87.312" y1="109.543" x2="-48.419" y2="109.543" gradientUnits="userSpaceOnUse"/><linearGradient xlink:href="#nb" id="nd" x1="-66.929" y1="133.742" x2="-43.384" y2="133.742" gradientUnits="userSpaceOnUse"/><linearGradient xlink:href="#nb" id="ne" gradientUnits="userSpaceOnUse" x1="-66.929" y1="133.742" x2="-43.384" y2="133.742"/></defs><ellipse cx="-94.456" cy="132.297" rx="29.898" ry="21.828" opacity=".808" fill-opacity="0" stroke-width="1.005"/><path d="M-87.312 87.49h38.893v44.106h-38.893z" opacity=".702" fill="url(#nc)" stroke-width=".75" transform="matrix(.19616 0 0 .17216 -54.553 90.154)"/><g style="line-height:1.25;-inkscape-font-specification:'DaunPenh, Normal';font-variant-ligatures:normal;font-variant-caps:normal;font-variant-numeric:normal;font-feature-settings:normal;text-align:start"><path d="M-65.318 141.45q.767 1.994 1.61 3.68.883 1.688 2.071 2.954 1.227 1.227 2.838 1.955 1.61.69 3.873.69 1.495 0 2.76-.498 1.266-.499 2.225-1.419.959-.92 1.495-2.147.537-1.266.537-2.761 0-1.88-.69-3.221-.69-1.342-1.84-2.301-1.151-.997-2.608-1.726-1.457-.728-2.991-1.418-1.726-.767-3.49-1.688-1.725-.92-3.106-2.185-1.38-1.266-2.262-2.915-.882-1.649-.882-3.911 0-2.416.959-4.256.997-1.88 2.645-3.145 1.688-1.265 3.873-1.917 2.224-.652 4.717-.652 2.416 0 4.448.383 2.07.346 4.41.96-.115 1.226-.192 2.3-.076 1.035-.115 2.07 0 .998-.038 2.071v2.263l-1.61.153q-.346-4.065-2.493-6.059-2.11-2.032-5.714-2.032-1.38 0-2.53.422-1.151.422-1.995 1.227-.843.805-1.342 1.917-.46 1.112-.46 2.493 0 1.84.575 3.106.614 1.227 1.65 2.147 1.035.92 2.377 1.61 1.38.653 2.876 1.304 1.84.806 3.68 1.764 1.88.96 3.337 2.263 1.495 1.304 2.416 3.03.92 1.725.92 4.064 0 2.607-1.074 4.64-1.073 1.994-2.837 3.413-1.764 1.38-4.065 2.109-2.3.728-4.717.728-2.109 0-4.371-.422-2.262-.421-4.793-1.15-.269-2.53-.652-4.755-.384-2.224-1.036-4.755z" style="-inkscape-font-specification:'DaunPenh, Normal';font-variant-ligatures:normal;font-variant-caps:normal;font-variant-numeric:normal;font-feature-settings:normal;text-align:start" fill="url(#ne)" transform="matrix(.24116 .01573 -.0118 .13926 -53.013 91.073)" font-weight="400" font-size="78.533" font-family="DaunPenh" letter-spacing="4.103" word-spacing="0" stroke-width="1.963"/></g></svg><svg id="star" data-name="Layer 1" width="66" height="66" viewBox="-1 -1 66 66" x="1113.7" y="855.12" xmlns="http://www.w3.org/2000/svg"><defs id="odefs4"><style id="ostyle2">.ocls-1{fill:#d4953f}</style></defs><title id="otitle6">star</title><path class="ocls-1" d="M32 0l-8 24H0l20 16-8 24 20-16 20 16-8-24 20-16H40z" id="opath8" fill="#d40000"/></svg><svg id="twitter" data-name="Layer 1" width="53.78" height="44.06" viewBox="-1 -1 53.78 44.06" x="1057.7" y="725.12" xmlns="http://www.w3.org/2000/svg"><defs><style>.pcls-1{fill:#fff}</style></defs><title>twitter</title><path class="pcls-1" d="M51.78 5a22.23 22.23 0 0 1-5.32 5.52v1.38a30.15 30.15 0 0 1-1.25 8.53 30.81 30.81 0 0 1-3.76 8.13 32.1 32.1 0 0 1-6.06 6.92 27 27 0 0 1-8.48 4.8 31 31 0 0 1-10.62 1.8A29.47 29.47 0 0 1 0 37.29a22.71 22.71 0 0 0 2.56.13 20.78 20.78 0 0 0 13.17-4.53 10.63 10.63 0 0 1-9.92-7.36 13.45 13.45 0 0 0 2 .16 11 11 0 0 0 2.79-.36 10.44 10.44 0 0 1-6.09-3.67 10.25 10.25 0 0 1-2.41-6.75v-.13a10.52 10.52 0 0 0 4.8 1.34 10.6 10.6 0 0 1-3.45-3.78 10.34 10.34 0 0 1-1.28-5.07 10.4 10.4 0 0 1 1.45-5.33 30.08 30.08 0 0 0 9.71 7.83A29.57 29.57 0 0 0 25.53 13a11.79 11.79 0 0 1-.26-2.43 10.23 10.23 0 0 1 3-7.48 10.64 10.64 0 0 1 15 0l.21.22A20.81 20.81 0 0 0 50.33.8a10.3 10.3 0 0 1-4.67 5.85A21.14 21.14 0 0 0 51.78 5z"/></svg><svg id="wifi" data-name="Layer 1" width="62" height="66" viewBox="-1 -1 62 66" x="1051.7" y="855.12" xmlns="http://www.w3.org/2000/svg"><defs><style>.qcls-1{fill:#d4953e}</style></defs><title>wifi</title><path class="qcls-1" d="M29.88 0A55.39 55.39 0 0 0 0 8.72l4.22 6.48a47.32 47.32 0 0 1 25.66-7.28 47.31 47.31 0 0 1 25.9 7.28L60 8.72A55.53 55.53 0 0 0 29.88 0zm0 24a31.08 31.08 0 0 0-17 5l4.22 6.72A23.09 23.09 0 0 1 29.8 32a24.17 24.17 0 0 1 13 3.76L47 29a32.37 32.37 0 0 0-17.2-5h.07zm0 24a8 8 0 1 0 8 8 8 8 0 0 0-8-8z"/></svg><svg viewBox="-1 -1 66 66" width="66" height="66" id="wordpress" x="985.7" y="855.12" xmlns="http://www.w3.org/2000/svg"><path d="M32.306 64.265c17.658-.026 31.952-14.345 31.952-32.007C64.258 14.883 50.03.573 33.032.271 15.18-.047.262 14.393.258 31.904.253 49.92 14.483 64.291 32.306 64.265zM32.254 1.82c16.953-.006 30.46 13.725 30.455 30.957-.006 16.27-13.87 29.879-30.442 29.883-16.883.003-30.46-13.642-30.46-30.613C1.81 15.515 15.598 1.826 32.255 1.82zM19.46 17.877c.278.92-.498 1.241-1.323 1.305l-2.743.209 9.955 29.567c.24-.39.338-.5.381-.628 1.841-5.486 3.693-10.968 5.487-16.47.164-.501.083-1.166-.097-1.681-.95-2.732-2.087-5.405-2.92-8.17-.568-1.893-1.324-3.118-3.568-2.899-.383.038-.85-.782-1.277-1.206.517-.308 1.032-.875 1.554-.883a441.45 441.45 0 0 1 13.713.004c.524.01 1.038.591 1.556.907-.453.413-.844 1.032-1.374 1.192-.85.256-1.794.207-2.812.298l9.968 29.56c1.51-5 2.915-9.591 4.281-14.194 1.219-4.11.493-7.946-1.711-11.565-.663-1.089-1.477-2.145-1.852-3.331-.427-1.35-.781-2.888-.555-4.242.384-2.295 2.15-3.435 4.54-3.653-13.08-12.102-33.637-7.77-41.212 5.38 2.916-.134 5.7-.31 8.486-.348.527-.007 1.4.437 1.523.848zm5.212 40.042c-.06.178-.064.375-.112.67 5.638 1.557 11.167 1.445 16.825-.456L32.74 34.53c-2.767 8.017-5.42 15.702-8.069 23.39zm-4.356-1.067L7.291 21.237C1.415 32.678 5.885 50.134 20.315 56.852zM59.69 33.967c.413-5.41-1.46-12.9-3.076-13.93-.18 1.99-.054 4.204-.627 6.221-1.348 4.753-2.997 9.423-4.585 14.107-1.726 5.09-3.52 10.157-5.284 15.235 8.29-4.9 12.846-12.13 13.572-21.633z" clip-rule="evenodd" fill="#e6b800" fill-rule="evenodd" stroke-width=".514"/></svg><svg id="youtube" data-name="Layer 1" width="36.75" height="44" viewBox="-1 -1 36.75 44" x="1137.7" y="428.13" xmlns="http://www.w3.org/2000/svg"><defs><style>.scls-1{fill:#fff}</style></defs><title>youtube</title><path class="scls-1" d="M22.13 29.15v5q0 1.57-.91 1.57a1.5 1.5 0 0 1-1.06-.52v-7.11a1.5 1.5 0 0 1 1.06-.54q.91 0 .91 1.6zm7.92 0v1.08h-2.1v-1.06q0-1.59 1.06-1.59t1 1.59zM7.42 24h2.5v-2.14h-7.3v2.2h2.46V37.4h2.34V24zm6.75 13.4h2.09V25.82h-2.09v8.86a1.86 1.86 0 0 1-1.31 1 .48.48 0 0 1-.49-.47 6.52 6.52 0 0 1 0-.82v-8.57h-2.14V35a5.79 5.79 0 0 0 .19 1.71 1.26 1.26 0 0 0 1.36.87 3.43 3.43 0 0 0 2.39-1.43v1.25zm10.05-3.47v-4.6A8.33 8.33 0 0 0 24 27a1.63 1.63 0 0 0-1.67-1.31A2.82 2.82 0 0 0 20.16 27v-5.1h-2.08v15.5h2.09v-1.13a2.91 2.91 0 0 0 2.18 1.31A1.62 1.62 0 0 0 24 36.27a8.61 8.61 0 0 0 .22-2.35zm7.92-.24v-.3H30a11.6 11.6 0 0 1 0 1.43.9.9 0 0 1-.94.85q-1.08 0-1.08-1.61V32h4.19v-2.41a4.65 4.65 0 0 0-.66-2.72 3.2 3.2 0 0 0-5 0 4.52 4.52 0 0 0-.66 2.72v4.05a4.4 4.4 0 0 0 .66 2.72 3 3 0 0 0 2.49 1.2 2.9 2.9 0 0 0 3-2.51 10.31 10.31 0 0 0 .09-1.36zM17.89 12.3V7.38q0-1.61-1-1.61t-1 1.61v4.92q0 1.64 1 1.64t1-1.64zm16.85 17.6a40.6 40.6 0 0 1-.61 8.2 4.45 4.45 0 0 1-1.36 2.32 4.1 4.1 0 0 1-2.39 1.08 125.31 125.31 0 0 1-13 .49 125.31 125.31 0 0 1-13-.49A4.15 4.15 0 0 1 2 40.42 4.28 4.28 0 0 1 .63 38.1 39.76 39.76 0 0 1 0 29.9a40.6 40.6 0 0 1 .61-8.2A4.45 4.45 0 0 1 2 19.37a4.25 4.25 0 0 1 2.41-1.1q4.29-.47 13-.47t13 .47a4.4 4.4 0 0 1 3.75 3.42 39.76 39.76 0 0 1 .58 8.21zM11.35 0h2.39l-2.83 9.35v6.35H8.57V9.35a39.68 39.68 0 0 0-1.43-5Q6.27 2 5.61 0H8.1l1.67 6.16zM20 7.8v4.1a4.59 4.59 0 0 1-.66 2.76 2.88 2.88 0 0 1-2.49 1.19 2.9 2.9 0 0 1-2.46-1.19 4.68 4.68 0 0 1-.66-2.76V7.8a4.59 4.59 0 0 1 .66-2.74 2.9 2.9 0 0 1 2.46-1.19 2.88 2.88 0 0 1 2.49 1.19A4.59 4.59 0 0 1 20 7.8zM27.87 4v11.7h-2.13v-1.27a3.37 3.37 0 0 1-2.41 1.45A1.31 1.31 0 0 1 22 15a6 6 0 0 1-.19-1.76V4h2.13v8.6a6.14 6.14 0 0 0 0 .82.49.49 0 0 0 .47.52 1.87 1.87 0 0 0 1.31-1V4h2.16z"/></svg></svg>