<?xml version="1.0" encoding="UTF-8" standalone="no"?><!DOCTYPE svg PUBLIC "-//W3C//DTD SVG 1.1//EN" "http://www.w3.org/Graphics/SVG/1.1/DTD/svg11.dtd"><svg width="1180" height="1125" viewBox="0 0 1180 1125" xmlns="http://www.w3.org/2000/svg" xmlns:xlink="http://www.w3.org/1999/xlink"><svg width="795.7" height="1124.52" viewBox="-1 -1 212 299" id="background" xmlns="http://www.w3.org/2000/svg"><g transform="matrix(2.19512 0 0 2.2807 182.95 -249.409)"><path d="M-148.431 68.93h119.327v120.65h-119.327z" fill="#d40000"/><path d="M90.223 189.58H-29.104V68.93H90.223z" opacity=".702" fill="#fff"/></g></svg><svg id="clear-view-escapes" data-name="Layer 1" width="144.4" height="61.53" viewBox="-1 -1 144.4 61.53" x="1007.7" y="384.12" xmlns="http://www.w3.org/2000/svg"><defs id="bdefs4"><style id="bstyle2">.cls-1{fill:#fff}</style></defs><title id="btitle6">clear-view-escapes</title><g id="bg977" transform="matrix(.97299 0 0 1 261.153 34.975)"><path d="M-267.67-35.76h143.115V24.91H-267.67z" id="brect860" opacity=".593" fill="#fff" stroke-width="4.247"/><path d="M-234.584-17.282l-3.603-2.227-3.033 2.957 1.004-4.115-3.749-1.972 4.224-.316.716-4.175 1.607 3.92 4.191-.61-3.23 2.74z" id="bpath870" fill="#241c1c" stroke-width="2.141"/><path transform="matrix(.65143 0 0 .65143 -99.66 20.115)" d="M-227.395-15.076l-6.732-4.16-5.668 5.524 1.876-7.688-7.004-3.684 7.892-.591 1.338-7.8 3.002 7.323 7.831-1.137-6.037 5.117z" id="bpath874" fill="#fc0" stroke-width="4"/><path d="M-191.445-9.081l-5.516-3.409-4.644 4.526 1.537-6.3-5.739-3.018 6.466-.485 1.097-6.39 2.46 6 6.417-.932-4.947 4.193z" id="bpath876" fill="#0f0" stroke-width="3.278"/><path transform="matrix(.96442 0 0 .91863 39.367 6.545)" d="M-174.163 2.784l-6.732-4.16-5.668 5.523 1.876-7.688-7.004-3.683 7.892-.592 1.338-7.8 3.001 7.323 7.832-1.137-6.037 5.117z" id="bpath880" fill="#aa00d4" stroke-width="4"/><path d="M-132.406-20l-4.124-2.548-3.473 3.384 1.15-4.71-4.292-2.258 4.835-.362.82-4.779 1.84 4.487 4.798-.697-3.7 3.135z" id="bpath882" fill="#fc0" stroke-width="2.451"/><path transform="matrix(.4698 0 0 .5891 -97.17 6.11)" d="M-131.693 12.777l-6.732-4.16-5.668 5.523 1.876-7.688-7.004-3.683 7.892-.592 1.338-7.8 3.002 7.323 7.831-1.137-6.037 5.117z" id="bpath884" fill="#0f0" stroke-width="4"/><path transform="matrix(.44648 0 0 .43994 -65.628 4.54)" d="M-140.082-14.123l-6.732-4.16-5.668 5.523 1.876-7.688-7.004-3.683 7.892-.592 1.338-7.8 3.001 7.323 7.832-1.137-6.037 5.117z" id="bpath872" fill="#241c1c" stroke-width="4"/><path transform="matrix(.78653 0 0 .83747 -73.126 -18.349)" d="M-174.163 2.784l-6.732-4.16-5.668 5.523 1.876-7.688-7.004-3.683 7.892-.592 1.338-7.8 3.001 7.323 7.832-1.137-6.037 5.117z" id="bpath886" fill="#06f" stroke-width="4"/><path transform="matrix(.47898 0 0 .62533 -134.247 -8.1)" d="M-243.298-6.544l-5.516-3.409-4.644 4.526 1.537-6.3-5.739-3.018 6.467-.485 1.096-6.39 2.46 6 6.417-.932-4.947 4.192z" id="bpath932" fill="#0f0" stroke-width="3.278"/><path transform="matrix(.65143 0 0 .65143 -74.256 13.184)" d="M-227.395-15.076l-6.732-4.16-5.668 5.524 1.876-7.688-7.004-3.684 7.892-.591 1.338-7.8 3.002 7.323 7.831-1.137-6.037 5.117z" id="bpath943" fill="#fc0" stroke-width="4"/><path d="M-230.317 18.283l-3.603-2.227-3.034 2.956 1.004-4.115-3.748-1.971 4.223-.317.717-4.174 1.606 3.919 4.192-.609-3.231 2.74z" id="bpath945" fill="#241c1c" stroke-width="2.141"/><path transform="matrix(1.10673 0 0 1.05418 -10.237 10.979)" d="M-174.163 2.784l-6.732-4.16-5.668 5.523 1.876-7.688-7.004-3.683 7.892-.592 1.338-7.8 3.001 7.323 7.832-1.137-6.037 5.117z" id="bpath947" fill="#06f" stroke-width="4"/><path d="M-164.306-3.02l-4.125-2.548-3.473 3.384 1.15-4.71-4.292-2.258 4.836-.362.82-4.779 1.839 4.487 4.798-.697-3.699 3.135z" id="bpath949" fill="#fc0" stroke-width="2.451"/><path transform="matrix(.73662 0 0 .66133 -51.287 -15.913)" d="M-131.693 12.777l-6.732-4.16-5.668 5.523 1.876-7.688-7.004-3.683 7.892-.592 1.338-7.8 3.002 7.323 7.831-1.137-6.037 5.117z" id="bpath951" fill="#0f0" stroke-width="4"/><path transform="matrix(.44648 0 0 .43994 -98.819 -19.014)" d="M-140.082-14.123l-6.732-4.16-5.668 5.523 1.876-7.688-7.004-3.683 7.892-.592 1.338-7.8 3.001 7.323 7.832-1.137-6.037 5.117z" id="bpath953" fill="#241c1c" stroke-width="4"/><path transform="matrix(.96442 0 0 .91863 -7.686 13.351)" d="M-174.163 2.784l-6.732-4.16-5.668 5.523 1.876-7.688-7.004-3.683 7.892-.592 1.338-7.8 3.001 7.323 7.832-1.137-6.037 5.117z" id="bpath955" fill="#aa00d4" stroke-width="4"/><g transform="scale(.83632 1.19572)" style="line-height:1.25;-inkscape-font-specification:'MoolBoran, Normal';font-variant-ligatures:normal;font-variant-caps:normal;font-variant-numeric:normal;font-feature-settings:normal;text-align:start" id="btext905" font-weight="400" font-size="64.878" font-family="MoolBoran" letter-spacing="-1.521" word-spacing="0" fill="#fff" stroke="red" stroke-width="1.515"><path d="M-286.149.866q0 1.584-.76 3.2-.76 1.583-2.186 2.882-1.425 1.267-3.453 2.09-1.996.793-4.498.793-1.33 0-2.471-.159-1.14-.158-2.154-.411-.982-.285-1.901-.666-.919-.411-1.837-.887l1.393-4.34q.602.412 1.584.887 1.014.476 2.186.887 1.172.412 2.344.697 1.204.254 2.186.254 1.109 0 1.806-.127.729-.158 1.299-.412.633-.253 1.013-1.267.38-1.014.38-2.63 0-1.488-.981-2.375-.982-.887-2.471-1.52-1.458-.666-3.168-1.3-1.71-.665-3.2-1.678-1.457-1.046-2.439-2.661-.982-1.616-.982-4.245 0-1.267.665-2.661.665-1.426 1.933-2.598 1.267-1.204 3.136-1.964 1.869-.76 4.245-.76 1.9 0 3.643.19 1.774.19 3.421.507l-.887 4.34q-.76-.286-1.742-.539-.95-.253-1.964-.443-.982-.19-1.933-.286-.95-.126-1.679-.126-.823 0-1.52.095-.697.063-1.267.412-.539.316-.792 1.108-.222.76-.222 1.838 0 1.108.57 1.837.57.729 1.489 1.299.95.538 2.122 1.014 1.204.443 2.44.982 1.267.506 2.439 1.203 1.204.666 2.122 1.68.95.981 1.521 2.407.57 1.425.57 3.453z" id="bpath996"/><path d="M-276.487-4.108l.76-.158q1.11-.253 2.091-.634.982-.411 1.68-1.172.728-.792 1.14-2.059.411-1.267.411-3.231 0-2.946-1.33-4.277Q-273.065-17-275.22-17q-.538 0-1.109.032-.538.032-1.14.127V9.419h-5.639v-29.05q.887-.062 1.933-.126 1.045-.063 2.154-.095 1.14-.063 2.249-.063 1.14-.032 2.186-.032 2.566 0 4.435.602 1.9.57 3.136 1.647 1.235 1.077 1.837 2.63.602 1.52.602 3.453 0 2.027-.665 3.8-.665 1.775-2.06 3.105-1.361 1.33-3.515 2.091-2.123.76-5.069.76h-.253z" id="bpath998"/><path d="M-244.745 9.42h-16.695V-19.79h16.125l-.285 2.978-10.2.127v9.504l9.598.126-.254 2.693-9.345.222V6.315l11.31.221z" id="bpath1000"/><path d="M-230.3 9.83q-3.263 0-5.543-1.108-2.281-1.109-3.707-3.104-1.425-1.996-2.09-4.784-.634-2.82-.634-6.24 0-2.757.633-4.91.634-2.186 1.711-3.802 1.109-1.647 2.534-2.788 1.458-1.14 3.042-1.837 1.615-.729 3.294-1.046 1.68-.316 3.263-.316.982 0 2.06.063 1.108.063 2.122.19 1.045.095 1.932.254.887.126 1.457.253l-1.045 4.15q-.57-.19-1.616-.38-1.045-.222-2.249-.412-1.172-.19-2.344-.317-1.14-.127-1.901-.127-.855 0-1.52.064-.666.031-1.236.19-.539.127-1.045.38-.476.253-.982.634-1.3.918-1.774 3.484-.444 2.566-.444 6.4 0 5.891 1.742 8.933 1.743 3.009 5.608 3.009 2.185 0 4.561-.348 2.376-.38 4.309-1.046v2.44q-1.078.506-2.345.918-1.235.38-2.566.665-1.298.254-2.66.38-1.331.159-2.567.159z" id="bpath1002"/><path d="M-211.04 9.42v-26.104l-8.52-.127.284-2.978h22.46l-.285 2.883-8.268.222V9.419z" id="bpath1004"/><path d="M-187.122-2.619h-1.9V9.42h-5.64v-29.144q1.711-.127 3.865-.222 2.155-.095 4.119-.095 5.037 0 7.634 1.932 2.63 1.933 2.63 6.051 0 1.837-.444 3.2-.443 1.362-1.172 2.375-.729 1.014-1.68 1.711-.95.697-1.995 1.172 1.236 2.25 2.344 4.245 1.14 1.996 2.25 3.485 1.14 1.489 2.28 2.376 1.173.855 2.503.855h.19v1.869q-.665.222-1.552.348-.855.159-1.933.159-1.552 0-2.724-.285-1.14-.285-2.249-1.236-1.077-.95-2.25-2.787-1.171-1.838-2.724-4.974zm-.887-2.883q1.172 0 2.25-.285 1.108-.316 1.742-.76.316-.222.633-.57.317-.349.57-.919.254-.57.412-1.457.159-.887.159-2.218 0-1.488-.349-2.502-.317-1.014-.982-1.616-.665-.633-1.647-.887-.982-.285-2.25-.285-.348 0-.791.032-.412 0-.76.063v11.404z" id="bpath1006"/><path d="M-153.384 9.42l-3.263-9.853-10.454.158-3.358 9.694h-3.58l10.993-28.954 5.48-.982 10.232 29.936zm-4.15-12.609l-4.213-12.608-4.34 12.608z" id="bpath1008"/></g><path transform="matrix(2.31607 .34115 -.34251 2.3253 257.268 84.256)" d="M-192.682-1.483l-6.732-4.16-5.667 5.523 1.876-7.688-7.005-3.684 7.892-.591 1.339-7.8 3 7.323 7.832-1.137-6.036 5.117z" id="bpath878" opacity=".682" fill="red" stroke="red" stroke-width=".853"/></g></svg><svg id="comment" data-name="Layer 1" width="66" height="66" viewBox="-1 -1 66 66" x="1007.7" y="575.65" xmlns="http://www.w3.org/2000/svg"><defs><style>.ccls-1{fill:#2f5572}</style></defs><title>comment</title><path class="ccls-1" d="M.72.08A.67.67 0 0 0 0 .8v46.48a.72.72 0 0 0 .72.72H48l16 16V.72a.67.67 0 0 0-.72-.72H.8z"/></svg><svg id="facebook" data-name="Layer 1" width="23.23" height="44.01" viewBox="-1 -1 23.23 44.01" x="1152.1000000000001" y="384.12" xmlns="http://www.w3.org/2000/svg"><defs><style>.dcls-1{fill:#fff}</style></defs><title>facebook</title><path class="dcls-1" d="M21.23.31V7H17.4a3.55 3.55 0 0 0-2.85.91 4.26 4.26 0 0 0-.74 2.72v4.77H21l-1 7.47h-6.19V42H6.27V22.85H0v-7.47h6.27V9.85q0-4.69 2.55-7.28A9 9 0 0 1 15.63 0a39.57 39.57 0 0 1 5.6.31z"/></svg><svg id="fire" data-name="Layer 1" width="58" height="66" viewBox="-1 -1 58 66" x="1121.7" y="683.12" xmlns="http://www.w3.org/2000/svg"><defs><style>.ecls-1{fill:#d4953d}</style></defs><title>Untitled-2</title><path class="ecls-1" d="M16 0C24 16 0 24 0 40s16 24 16 24C8.16 48.16 32 40 32 24S16 0 16 0zm24 24c8 16-16 24-16 40h24c3.2 0 8-4 8-16 0-16-16-24-16-24z"/></svg><svg id="globe" data-name="Layer 1" width="66" height="66" viewBox="-1 -1 66 66" x="1055.7" y="683.12" xmlns="http://www.w3.org/2000/svg"><defs><style>.fcls-1{fill:#d4953f}</style></defs><title>globe</title><path class="fcls-1" d="M32 0a32 32 0 1 0 32 32A32 32 0 0 0 32 0zm0 8a23.75 23.75 0 0 1 7.52 1.52c-1.68 1.6-3.6 3-3.28 4.48s5.52 1 5.52 4c0 2.16-3.36 2.8-1 5.28 2.8 2.8-5.12 7.84-5.28 11.52-.24 6.64 6.72 7.76 12.24 7.76 3.36 0 4.24 1.6 4 3.52a24.07 24.07 0 0 1-19.76 10 22.94 22.94 0 0 1-8.48-1.76c1.76-3.52-2.24-10.48-6-12.72-1.84-1.84-5.76-1.12-8-2a23.49 23.49 0 0 1-1.52-6.72 1.42 1.42 0 0 1 1.28-.72c1.52 0 3.6 3 4.72 2.72 1.4-.32-5.96-10.48-2.52-12.48 1.6-1 4.8 3.12 3.76-1.28-1-4.08 2.88-2.24 5.28-3.28 2.08-.88 3.6-3.28 1-4.72a8.55 8.55 0 0 1-1.76-1.52A23.75 23.75 0 0 1 32 8.08V8zm18.48 8.72A26.46 26.46 0 0 1 54 22.48v.24a11.78 11.78 0 0 1-1.76 1.76C50 26.72 49.68 22.8 48.72 22c-1-1-4.8.16-5.28-1-.56-1.48 4-3.4 7.04-4.28z"/></svg><svg id="instagram" data-name="Layer 1" width="44.01" height="44.01" viewBox="-1 -1 44.01 44.01" x="1109.48" y="749.12" xmlns="http://www.w3.org/2000/svg"><defs><style>.gcls-1{fill:#fff}</style></defs><title>instagram</title><path class="gcls-1" d="M37.25 35.49V17.77h-3.69a11.77 11.77 0 0 1 .57 3.58 12.12 12.12 0 0 1-1.75 6.36 12.76 12.76 0 0 1-4.76 4.59 13.13 13.13 0 0 1-6.56 1.7 12.78 12.78 0 0 1-9.19-3.71 12 12 0 0 1-3.83-9 11.77 11.77 0 0 1 .49-3.56H4.68v17.76a1.63 1.63 0 0 0 1.6 1.67h29.3a1.63 1.63 0 0 0 1.17-.47 1.59 1.59 0 0 0 .5-1.2zm-7.77-14.57A7.75 7.75 0 0 0 27 15.14a8.28 8.28 0 0 0-6-2.4 8.25 8.25 0 0 0-5.91 2.39 7.75 7.75 0 0 0-2.47 5.78 7.75 7.75 0 0 0 2.47 5.79A8.25 8.25 0 0 0 21 29.1a8.28 8.28 0 0 0 6-2.4 7.75 7.75 0 0 0 2.48-5.78zm7.76-9.84V6.56a1.84 1.84 0 0 0-.54-1.31 1.8 1.8 0 0 0-1.31-.56h-4.78a1.8 1.8 0 0 0-1.31.56 1.84 1.84 0 0 0-.54 1.31v4.52A1.87 1.87 0 0 0 30.6 13h4.8a1.87 1.87 0 0 0 1.85-1.89zM42 5.39v31.23A5.41 5.41 0 0 1 36.62 42H5.39a5.19 5.19 0 0 1-3.8-1.59A5.19 5.19 0 0 1 0 36.62V5.39a5.19 5.19 0 0 1 1.59-3.8A5.19 5.19 0 0 1 5.39 0h31.23a5.19 5.19 0 0 1 3.8 1.59A5.19 5.19 0 0 1 42 5.39z"/></svg><svg id="mail" data-name="Layer 1" width="66" height="50" viewBox="-1 -1 66 50" x="1073.7" y="575.65" xmlns="http://www.w3.org/2000/svg"><defs><style>.hcls-1{fill:#2f5572}</style></defs><title>mail</title><path class="hcls-1" d="M0 0v8l32 16L64 8V0H0zm0 16v32h64V16L32 32z"/></svg><svg viewBox="-1 -1 130 130" width="130" height="130" id="mongodb" x="925.7" y="683.12" xmlns="http://www.w3.org/2000/svg"><path fill-rule="evenodd" clip-rule="evenodd" fill="#439934" d="M88.038 42.812c1.605 4.643 2.761 9.383 3.141 14.296.472 6.095.256 12.147-1.029 18.142-.035.165-.109.32-.164.48-.403.001-.814-.049-1.208.012-3.329.523-6.655 1.065-9.981 1.604-3.438.557-6.881 1.092-10.313 1.687-1.216.21-2.721-.041-3.212 1.641-.014.046-.154.054-.235.08l.166-10.051-.169-24.252 1.602-.275c2.62-.429 5.24-.864 7.862-1.281 3.129-.497 6.261-.98 9.392-1.465 1.381-.215 2.764-.412 4.148-.618z"/><path fill-rule="evenodd" clip-rule="evenodd" fill="#45A538" d="M61.729 110.054c-1.69-1.453-3.439-2.842-5.059-4.37-8.717-8.222-15.093-17.899-18.233-29.566-.865-3.211-1.442-6.474-1.627-9.792-.13-2.322-.318-4.665-.154-6.975.437-6.144 1.325-12.229 3.127-18.147l.099-.138c.175.233.427.439.516.702 1.759 5.18 3.505 10.364 5.242 15.551 5.458 16.3 10.909 32.604 16.376 48.9.107.318.384.579.583.866l-.87 2.969z"/><path fill-rule="evenodd" clip-rule="evenodd" fill="#46A037" d="M88.038 42.812c-1.384.206-2.768.403-4.149.616-3.131.485-6.263.968-9.392 1.465-2.622.417-5.242.852-7.862 1.281l-1.602.275-.012-1.045c-.053-.859-.144-1.717-.154-2.576-.069-5.478-.112-10.956-.18-16.434-.042-3.429-.105-6.857-.175-10.285-.043-2.13-.089-4.261-.185-6.388-.052-1.143-.236-2.28-.311-3.423-.042-.657.016-1.319.029-1.979.817 1.583 1.616 3.178 2.456 4.749 1.327 2.484 3.441 4.314 5.344 6.311 7.523 7.892 12.864 17.068 16.193 27.433z"/><path fill-rule="evenodd" clip-rule="evenodd" fill="#409433" d="M65.036 80.753c.081-.026.222-.034.235-.08.491-1.682 1.996-1.431 3.212-1.641 3.432-.594 6.875-1.13 10.313-1.687 3.326-.539 6.652-1.081 9.981-1.604.394-.062.805-.011 1.208-.012-.622 2.22-1.112 4.488-1.901 6.647-.896 2.449-1.98 4.839-3.131 7.182a49.142 49.142 0 0 1-6.353 9.763c-1.919 2.308-4.058 4.441-6.202 6.548-1.185 1.165-2.582 2.114-3.882 3.161l-.337-.23-1.214-1.038-1.256-2.753a41.402 41.402 0 0 1-1.394-9.838l.023-.561.171-2.426c.057-.828.133-1.655.168-2.485.129-2.982.241-5.964.359-8.946z"/><path fill-rule="evenodd" clip-rule="evenodd" fill="#4FAA41" d="M65.036 80.753c-.118 2.982-.23 5.964-.357 8.947-.035.83-.111 1.657-.168 2.485l-.765.289c-1.699-5.002-3.399-9.951-5.062-14.913-2.75-8.209-5.467-16.431-8.213-24.642a4498.887 4498.887 0 0 0-6.7-19.867c-.105-.31-.407-.552-.617-.826l4.896-9.002c.168.292.39.565.496.879a6167.476 6167.476 0 0 1 6.768 20.118c2.916 8.73 5.814 17.467 8.728 26.198.116.349.308.671.491 1.062l.67-.78-.167 10.052z"/><path fill-rule="evenodd" clip-rule="evenodd" fill="#4AA73C" d="M43.155 32.227c.21.274.511.516.617.826a4498.887 4498.887 0 0 1 6.7 19.867c2.746 8.211 5.463 16.433 8.213 24.642 1.662 4.961 3.362 9.911 5.062 14.913l.765-.289-.171 2.426-.155.559c-.266 2.656-.49 5.318-.814 7.968-.163 1.328-.509 2.632-.772 3.947-.198-.287-.476-.548-.583-.866-5.467-16.297-10.918-32.6-16.376-48.9a3888.972 3888.972 0 0 0-5.242-15.551c-.089-.263-.34-.469-.516-.702l3.272-8.84z"/><path fill-rule="evenodd" clip-rule="evenodd" fill="#57AE47" d="M65.202 70.702l-.67.78c-.183-.391-.375-.714-.491-1.062-2.913-8.731-5.812-17.468-8.728-26.198a6167.476 6167.476 0 0 0-6.768-20.118c-.105-.314-.327-.588-.496-.879l6.055-7.965c.191.255.463.482.562.769 1.681 4.921 3.347 9.848 5.003 14.778 1.547 4.604 3.071 9.215 4.636 13.813.105.308.47.526.714.786l.012 1.045c.058 8.082.115 16.167.171 24.251z"/><path fill-rule="evenodd" clip-rule="evenodd" fill="#60B24F" d="M65.021 45.404c-.244-.26-.609-.478-.714-.786-1.565-4.598-3.089-9.209-4.636-13.813-1.656-4.93-3.322-9.856-5.003-14.778-.099-.287-.371-.514-.562-.769 1.969-1.928 3.877-3.925 5.925-5.764 1.821-1.634 3.285-3.386 3.352-5.968.003-.107.059-.214.145-.514l.519 1.306c-.013.661-.072 1.322-.029 1.979.075 1.143.259 2.28.311 3.423.096 2.127.142 4.258.185 6.388.069 3.428.132 6.856.175 10.285.067 5.478.111 10.956.18 16.434.008.861.098 1.718.152 2.577z"/><path fill-rule="evenodd" clip-rule="evenodd" fill="#A9AA88" d="M62.598 107.085c.263-1.315.609-2.62.772-3.947.325-2.649.548-5.312.814-7.968l.066-.01.066.011a41.402 41.402 0 0 0 1.394 9.838c-.176.232-.425.439-.518.701-.727 2.05-1.412 4.116-2.143 6.166-.1.28-.378.498-.574.744l-.747-2.566.87-2.969z"/><path fill-rule="evenodd" clip-rule="evenodd" fill="#B6B598" d="M62.476 112.621c.196-.246.475-.464.574-.744.731-2.05 1.417-4.115 2.143-6.166.093-.262.341-.469.518-.701l1.255 2.754c-.248.352-.59.669-.728 1.061l-2.404 7.059c-.099.283-.437.483-.663.722l-.695-3.985z"/><path fill-rule="evenodd" clip-rule="evenodd" fill="#C2C1A7" d="M63.171 116.605c.227-.238.564-.439.663-.722l2.404-7.059c.137-.391.48-.709.728-1.061l1.215 1.037c-.587.58-.913 1.25-.717 2.097l-.369 1.208c-.168.207-.411.387-.494.624-.839 2.403-1.64 4.819-2.485 7.222-.107.305-.404.544-.614.812-.109-1.387-.22-2.771-.331-4.158z"/><path fill-rule="evenodd" clip-rule="evenodd" fill="#CECDB7" d="M63.503 120.763c.209-.269.506-.508.614-.812.845-2.402 1.646-4.818 2.485-7.222.083-.236.325-.417.494-.624l-.509 5.545c-.136.157-.333.294-.398.477-.575 1.614-1.117 3.24-1.694 4.854-.119.333-.347.627-.525.938-.158-.207-.441-.407-.454-.623-.051-.841-.016-1.688-.013-2.533z"/><path fill-rule="evenodd" clip-rule="evenodd" fill="#DBDAC7" d="M63.969 123.919c.178-.312.406-.606.525-.938.578-1.613 1.119-3.239 1.694-4.854.065-.183.263-.319.398-.477l.012 3.64-1.218 3.124-1.411-.495z"/><path fill-rule="evenodd" clip-rule="evenodd" fill="#EBE9DC" d="M65.38 124.415l1.218-3.124.251 3.696-1.469-.572z"/><path fill-rule="evenodd" clip-rule="evenodd" fill="#CECDB7" d="M67.464 110.898c-.196-.847.129-1.518.717-2.097l.337.23-1.054 1.867z"/><path fill-rule="evenodd" clip-rule="evenodd" fill="#4FAA41" d="M64.316 95.172l-.066-.011-.066.01.155-.559-.023.56z"/></svg><svg viewBox="-1 -1 130 130" width="130" height="130" id="nodejs" x="1007.7" y="445.65" xmlns="http://www.w3.org/2000/svg"><path fill="#83CD29" d="M112.771 30.334L68.674 4.729c-2.781-1.584-6.402-1.584-9.205 0L14.901 30.334C12.031 31.985 10 35.088 10 38.407v51.142c0 3.319 2.084 6.423 4.954 8.083l11.775 6.688c5.628 2.772 7.617 2.772 10.178 2.772 8.333 0 13.093-5.039 13.093-13.828v-50.49c0-.713-.371-1.774-1.071-1.774h-5.623C42.594 41 41 42.061 41 42.773v50.49c0 3.896-3.524 7.773-10.11 4.48L18.723 90.73c-.424-.23-.723-.693-.723-1.181V38.407c0-.482.555-.966.982-1.213l44.424-25.561c.415-.235 1.025-.235 1.439 0l43.882 25.555c.42.253.272.722.272 1.219v51.142c0 .488.183.963-.232 1.198l-44.086 25.576c-.378.227-.847.227-1.261 0l-11.307-6.749c-.341-.198-.746-.269-1.073-.086-3.146 1.783-3.726 2.02-6.677 3.043-.726.253-1.797.692.41 1.929l14.798 8.754a9.294 9.294 0 0 0 4.647 1.246c1.642 0 3.25-.426 4.667-1.246l43.885-25.582c2.87-1.672 4.23-4.764 4.23-8.083V38.407c0-3.319-1.36-6.414-4.229-8.073zM77.91 81.445c-11.726 0-14.309-3.235-15.17-9.066-.1-.628-.633-1.379-1.272-1.379h-5.731c-.709 0-1.279.86-1.279 1.566 0 7.466 4.059 16.512 23.453 16.512 14.039 0 22.088-5.455 22.088-15.109 0-9.572-6.467-12.084-20.082-13.886-13.762-1.819-15.16-2.738-15.16-5.962 0-2.658 1.184-6.203 11.374-6.203 9.105 0 12.461 1.954 13.842 8.091.118.577.645.991 1.24.991h5.754c.354 0 .692-.143.94-.396.24-.272.367-.613.335-.979-.891-10.568-7.912-15.493-22.112-15.493-12.631 0-20.166 5.334-20.166 14.275 0 9.698 7.497 12.378 19.622 13.577 14.505 1.422 15.633 3.542 15.633 6.395 0 4.955-3.978 7.066-13.309 7.066z"/></svg><svg viewBox="-1 -1 384.12 384.12" width="384.12" height="384.12" id="post" x="795.7" xmlns="http://www.w3.org/2000/svg"><path d="M336.764 45.945H45.354C20.346 45.945 0 65.484 0 89.5v203.117c0 24.016 20.346 43.555 45.354 43.555h291.41c25.008 0 45.353-19.539 45.353-43.555V89.5c0-24.016-20.345-43.555-45.353-43.555zm0 251.775H45.354c-3.676 0-6.9-2.384-6.9-5.103V116.359l131.797 111.27a15.014 15.014 0 0 0 9.676 3.538l22.259.001c3.536 0 6.974-1.257 9.677-3.539l131.803-111.274v176.264c-.002 2.717-3.227 5.101-6.902 5.101zM191.059 192.987L62.87 84.397h256.378l-128.189 108.59z"/></svg><svg id="rain" data-name="Layer 1" width="66" height="66" viewBox="-1 -1 66 66" x="795.7" y="813.12" xmlns="http://www.w3.org/2000/svg"><defs><style>.lcls-1{fill:#d4953f}</style></defs><title>rain</title><path class="lcls-1" d="M36 0a20.42 20.42 0 0 0-20 16A16 16 0 0 0 0 32a15.4 15.4 0 0 0 4.27 10.72A11.88 11.88 0 0 1 12 40a10.51 10.51 0 0 1 4.47 1A12 12 0 0 1 28 32a12.06 12.06 0 0 1 11.51 9A11.84 11.84 0 0 1 44 40a11.94 11.94 0 0 1 11 7.52A12.07 12.07 0 0 0 64 36c0-5.2-3.36-10.32-8-12v-4A20 20 0 0 0 36 0zm-9.27 40A4 4 0 0 0 24 44v16a4 4 0 1 0 8 0V44a4 4 0 0 0-4.71-4h-.56zm-16 8A4 4 0 0 0 8 52v8a4 4 0 1 0 8 0v-8a4 4 0 0 0-4.71-4h-.54zm32 0A4 4 0 0 0 40 52v8a4 4 0 1 0 8 0v-8a4 4 0 0 0-4.71-4h-.58z" transform="translate(-.04)"/></svg><svg viewBox="-1 -1 130 130" width="130" height="130" id="react" x="795.7" y="683.12" xmlns="http://www.w3.org/2000/svg"><path d="M52.881 30.644a25.22 27.218 0 0 1-25.22 27.218 25.22 27.218 0 0 1-25.22-27.218A25.22 27.218 0 0 1 27.66 3.426a25.22 27.218 0 0 1 25.22 27.218z" opacity=".374" fill="#d4aa00" stroke-width="0" stroke-miterlimit="3.542" stroke-opacity=".995"/><g transform="matrix(.4195 0 0 .4033 .813 4.833)" opacity=".808" fill="#d4aa00"><path d="M75.4 64A11.4 11.4 0 0 1 64 75.4 11.4 11.4 0 0 1 52.6 64 11.4 11.4 0 0 1 64 52.6 11.4 11.4 0 0 1 75.4 64z"/><path d="M107.3 45.2c-2.2-.8-4.5-1.6-6.9-2.3.6-2.4 1.1-4.8 1.5-7.1 2.1-13.2-.2-22.5-6.6-26.1-1.9-1.1-4-1.6-6.4-1.6-7 0-15.9 5.2-24.9 13.9-9-8.7-17.9-13.9-24.9-13.9-2.4 0-4.5.5-6.4 1.6-6.4 3.7-8.7 13-6.6 26.1.4 2.3.9 4.7 1.5 7.1-2.4.7-4.7 1.4-6.9 2.3C8.2 50 1.4 56.6 1.4 64s6.9 14 19.3 18.8c2.2.8 4.5 1.6 6.9 2.3-.6 2.4-1.1 4.8-1.5 7.1-2.1 13.2.2 22.5 6.6 26.1 1.9 1.1 4 1.6 6.4 1.6 7.1 0 16-5.2 24.9-13.9 9 8.7 17.9 13.9 24.9 13.9 2.4 0 4.5-.5 6.4-1.6 6.4-3.7 8.7-13 6.6-26.1-.4-2.3-.9-4.7-1.5-7.1 2.4-.7 4.7-1.4 6.9-2.3 12.5-4.8 19.3-11.4 19.3-18.8s-6.8-14-19.3-18.8zM92.5 14.7c4.1 2.4 5.5 9.8 3.8 20.3-.3 2.1-.8 4.3-1.4 6.6-5.2-1.2-10.7-2-16.5-2.5-3.4-4.8-6.9-9.1-10.4-13 7.4-7.3 14.9-12.3 21-12.3 1.3 0 2.5.3 3.5.9zM81.3 74c-1.8 3.2-3.9 6.4-6.1 9.6-3.7.3-7.4.4-11.2.4-3.9 0-7.6-.1-11.2-.4-2.2-3.2-4.2-6.4-6-9.6-1.9-3.3-3.7-6.7-5.3-10 1.6-3.3 3.4-6.7 5.3-10 1.8-3.2 3.9-6.4 6.1-9.6 3.7-.3 7.4-.4 11.2-.4 3.9 0 7.6.1 11.2.4 2.2 3.2 4.2 6.4 6 9.6 1.9 3.3 3.7 6.7 5.3 10-1.7 3.3-3.4 6.6-5.3 10zm8.3-3.3c1.5 3.5 2.7 6.9 3.8 10.3-3.4.8-7 1.4-10.8 1.9 1.2-1.9 2.5-3.9 3.6-6 1.2-2.1 2.3-4.2 3.4-6.2zM64 97.8c-2.4-2.6-4.7-5.4-6.9-8.3 2.3.1 4.6.2 6.9.2 2.3 0 4.6-.1 6.9-.2-2.2 2.9-4.5 5.7-6.9 8.3zm-18.6-15c-3.8-.5-7.4-1.1-10.8-1.9 1.1-3.3 2.3-6.8 3.8-10.3 1.1 2 2.2 4.1 3.4 6.1 1.2 2.2 2.4 4.1 3.6 6.1zm-7-25.5c-1.5-3.5-2.7-6.9-3.8-10.3 3.4-.8 7-1.4 10.8-1.9-1.2 1.9-2.5 3.9-3.6 6-1.2 2.1-2.3 4.2-3.4 6.2zM64 30.2c2.4 2.6 4.7 5.4 6.9 8.3-2.3-.1-4.6-.2-6.9-.2-2.3 0-4.6.1-6.9.2 2.2-2.9 4.5-5.7 6.9-8.3zm22.2 21l-3.6-6c3.8.5 7.4 1.1 10.8 1.9-1.1 3.3-2.3 6.8-3.8 10.3-1.1-2.1-2.2-4.2-3.4-6.2zM31.7 35c-1.7-10.5-.3-17.9 3.8-20.3 1-.6 2.2-.9 3.5-.9 6 0 13.5 4.9 21 12.3-3.5 3.8-7 8.2-10.4 13-5.8.5-11.3 1.4-16.5 2.5-.6-2.3-1-4.5-1.4-6.6zM7 64c0-4.7 5.7-9.7 15.7-13.4 2-.8 4.2-1.5 6.4-2.1 1.6 5 3.6 10.3 6 15.6-2.4 5.3-4.5 10.5-6 15.5C15.3 75.6 7 69.6 7 64zm28.5 49.3c-4.1-2.4-5.5-9.8-3.8-20.3.3-2.1.8-4.3 1.4-6.6 5.2 1.2 10.7 2 16.5 2.5 3.4 4.8 6.9 9.1 10.4 13-7.4 7.3-14.9 12.3-21 12.3-1.3 0-2.5-.3-3.5-.9zM96.3 93c1.7 10.5.3 17.9-3.8 20.3-1 .6-2.2.9-3.5.9-6 0-13.5-4.9-21-12.3 3.5-3.8 7-8.2 10.4-13 5.8-.5 11.3-1.4 16.5-2.5.6 2.3 1 4.5 1.4 6.6zm9-15.6c-2 .8-4.2 1.5-6.4 2.1-1.6-5-3.6-10.3-6-15.6 2.4-5.3 4.5-10.5 6-15.5 13.8 4 22.1 10 22.1 15.6 0 4.7-5.8 9.7-15.7 13.4z"/></g><g transform="matrix(.42296 0 0 .37745 90.848 -2.92)" opacity=".808" font-weight="400" font-size="40" font-family="MoolBoran" letter-spacing="2.09" word-spacing="0"><g style="line-height:1.25;-inkscape-font-specification:'MoolBoran, Normal';font-variant-ligatures:normal;font-variant-caps:normal;font-variant-numeric:normal;font-feature-settings:normal;text-align:start"><path d="M-189.082 97.627v-8.105h-7.735v8.105h-3.476V79.62h3.476v7.89h7.735v-7.89h3.496v18.008zM-175.957 97.627V81.533l-5.254-.078.176-1.836h13.847l-.176 1.778-5.097.136v16.094zM-145.176 97.627l-1.387-13.73-6.171 13.73h-1.055l-6.445-13.73-1.172 13.73h-2.012l1.738-18.125h3.262l5.996 12.754 5.703-12.754h3.184l1.894 18.125zM-136.133 97.627V79.62h3.477v16.114h6.504l-.176 1.894z"/></g><g style="line-height:1.25;-inkscape-font-specification:'MoolBoran, Normal';font-variant-ligatures:normal;font-variant-caps:normal;font-variant-numeric:normal;font-feature-settings:normal;text-align:start"><path d="M-163.065 120.66q-2.012 0-3.418-.683-1.406-.683-2.285-1.914-.879-1.23-1.29-2.95-.39-1.737-.39-3.847 0-1.7.39-3.027.391-1.348 1.055-2.344.684-1.016 1.563-1.719.898-.703 1.875-1.133.996-.449 2.031-.644 1.035-.195 2.012-.195.605 0 1.27.039.683.039 1.308.117.645.059 1.191.156.547.078.899.156l-.645 2.559q-.351-.117-.996-.234-.644-.137-1.386-.254-.723-.117-1.446-.196-.703-.078-1.172-.078-.527 0-.937.04-.41.019-.762.117-.332.078-.644.234-.293.156-.606.39-.8.567-1.094 2.15-.273 1.581-.273 3.944 0 3.633 1.074 5.508 1.074 1.856 3.457 1.856 1.348 0 2.813-.215 1.465-.235 2.656-.645v1.504q-.664.313-1.445.567-.762.234-1.582.41-.801.156-1.641.234-.82.098-1.582.098zM-141.346 115.133q0 .977-.469 1.973-.469.977-1.348 1.777-.878.782-2.128 1.29-1.23.488-2.774.488-.82 0-1.523-.098t-1.328-.254q-.606-.176-1.172-.41-.567-.254-1.133-.547l.86-2.676q.37.254.976.547.625.293 1.347.547.723.254 1.446.43.742.156 1.347.156.684 0 1.114-.078.449-.098.8-.254.391-.156.626-.781.234-.625.234-1.621 0-.918-.606-1.465-.605-.547-1.523-.938-.898-.41-1.953-.8-1.055-.41-1.973-1.036-.898-.644-1.504-1.64-.605-.996-.605-2.617 0-.782.41-1.641.41-.879 1.191-1.602.782-.742 1.934-1.21 1.152-.47 2.617-.47 1.172 0 2.246.118 1.094.117 2.11.312l-.547 2.676q-.469-.176-1.074-.332-.586-.156-1.211-.273-.606-.118-1.192-.176-.586-.078-1.035-.078-.508 0-.937.058-.43.04-.782.254-.332.196-.488.684-.137.469-.137 1.133 0 .683.352 1.132.351.45.918.801.586.332 1.308.625.743.274 1.504.606.782.312 1.504.742.742.41 1.309 1.035.586.606.937 1.484.352.88.352 2.13zM-126.131 115.133q0 .977-.469 1.973-.469.977-1.348 1.777-.878.782-2.128 1.29-1.23.488-2.774.488-.82 0-1.523-.098t-1.328-.254q-.606-.176-1.172-.41-.567-.254-1.133-.547l.86-2.676q.37.254.976.547.625.293 1.347.547.723.254 1.446.43.742.156 1.347.156.684 0 1.114-.078.449-.098.8-.254.391-.156.626-.781.234-.625.234-1.621 0-.918-.606-1.465-.605-.547-1.523-.938-.898-.41-1.953-.8-1.055-.41-1.973-1.036-.898-.644-1.504-1.64-.605-.996-.605-2.617 0-.782.41-1.641.41-.879 1.191-1.602.782-.742 1.934-1.21 1.152-.47 2.617-.47 1.172 0 2.246.118 1.094.117 2.11.312l-.547 2.676q-.469-.176-1.074-.332-.586-.156-1.211-.273-.606-.118-1.192-.176-.586-.078-1.035-.078-.508 0-.937.058-.43.04-.782.254-.332.196-.488.684-.137.469-.137 1.133 0 .683.352 1.132.351.45.918.801.586.332 1.308.625.743.274 1.504.606.782.312 1.504.742.742.41 1.309 1.035.586.606.937 1.484.352.88.352 2.13z"/></g><g style="line-height:1.25;-inkscape-font-specification:'MoolBoran, Normal';font-variant-ligatures:normal;font-variant-caps:normal;font-variant-numeric:normal;font-feature-settings:normal;text-align:start"><path d="M-114.918 97.364q0 2.793-1.31 4.473-1.288 1.7-3.866 2.578l-.586-1.113q.703-.43 1.152-.957.45-.528.684-1.153.254-.605.351-1.308.098-.684.098-1.465V80.704h3.477zM-98.493 93.438q0 .977-.468 1.973-.47.977-1.348 1.777-.879.782-2.129 1.29-1.23.488-2.773.488-.82 0-1.524-.098-.703-.098-1.328-.254-.605-.176-1.172-.41-.566-.254-1.133-.547l.86-2.676q.37.254.976.547.625.293 1.348.547.723.254 1.445.43.743.156 1.348.156.684 0 1.113-.078.45-.098.801-.254.39-.156.625-.781.234-.625.234-1.621 0-.918-.605-1.465t-1.523-.938q-.899-.41-1.954-.8-1.054-.41-1.972-1.036-.899-.644-1.504-1.64-.606-.996-.606-2.617 0-.782.41-1.641.41-.879 1.192-1.602.781-.742 1.934-1.21 1.152-.47 2.617-.47 1.172 0 2.246.118 1.094.117 2.11.312l-.548 2.676q-.468-.176-1.074-.332-.586-.156-1.21-.273-.606-.117-1.192-.176-.586-.078-1.035-.078-.508 0-.938.058-.43.04-.781.254-.332.196-.488.684-.137.469-.137 1.133 0 .683.351 1.133.352.449.918.8.586.332 1.309.625.742.274 1.504.606.781.312 1.504.742.742.41 1.308 1.035.586.606.938 1.485.351.878.351 2.128z"/></g><g style="line-height:1.25;-inkscape-font-specification:'MoolBoran, Normal';font-variant-ligatures:normal;font-variant-caps:normal;font-variant-numeric:normal;font-feature-settings:normal;text-align:start"><path d="M-169.999 75.487l-12.09-12.636h-.039q.04 1.582.078 2.91.02.566.02 1.133.02.566.02 1.054.019.47.019.84v6.602h-2.031V57.265h1.523l12.09 12.578q-.02-1.445-.04-2.715 0-.547-.019-1.094 0-.566-.02-1.074v-.918-6.64h2.052v18.085zM-145.858 66.327q0 2.13-.547 3.848-.527 1.719-1.62 2.95-1.075 1.21-2.696 1.874-1.621.645-3.77.645-2.207 0-3.789-.664-1.582-.664-2.598-1.875-.996-1.23-1.484-2.95-.469-1.718-.469-3.828 0-2.109.489-3.789.488-1.699 1.504-2.89 1.035-1.192 2.617-1.817 1.582-.644 3.75-.644t3.77.644q1.62.625 2.695 1.817 1.074 1.191 1.601 2.89.547 1.68.547 3.79zm-3.672 0q0-1.64-.293-2.949-.273-1.308-.879-2.207-.605-.918-1.543-1.387-.937-.488-2.226-.488-1.133 0-2.11.254-.976.234-1.543.684-.566.449-.84 1.972-.253 1.524-.253 4.121 0 1.621.234 2.95.234 1.308.781 2.265.547.957 1.446 1.485.918.507 2.265.507 1.387 0 2.285-.254.899-.253 1.524-.683.293-.195.508-.781.214-.586.351-1.426.156-.86.215-1.895.078-1.054.078-2.168zM-136.756 73.593q.176.039.41.078l.488.04.488.038h.391q1.563 0 2.598-.195 1.054-.195 1.816-.762.41-.312.742-.781.352-.488.606-1.25.273-.781.41-1.934.156-1.172.156-2.851 0-2.11-.508-3.457-.488-1.348-1.347-2.11-.84-.78-1.992-1.074-1.133-.312-2.442-.312-.195 0-.45.02-.253 0-.507.019-.254.02-.488.058-.235.02-.371.04zm-3.477-16.055q.547-.058 1.27-.117.742-.078 1.562-.117.82-.059 1.64-.078.84-.04 1.563-.04 2.09 0 3.79.47 1.718.468 2.93 1.503 1.23 1.016 1.894 2.637.683 1.602.683 3.887 0 2.226-.527 4.062-.527 1.817-1.68 3.106-1.152 1.289-2.969 1.992-1.816.703-4.394.703-.723 0-1.524-.02-.78-.019-1.542-.078-.762-.039-1.465-.078-.703-.058-1.23-.117zM-109.022 75.39h-10.293V57.382h9.942l-.176 1.836-6.29.078v5.86l5.919.078-.156 1.66-5.762.136v6.446l6.973.136z"/></g></g></svg><svg width="212" height="299" viewBox="-1 -1 212 299" id="spectra" x="795.7" y="384.12" xmlns="http://www.w3.org/2000/svg"><defs><linearGradient id="nb"><stop offset="0" stop-color="#ffc1c1"/><stop offset="1" stop-color="#ff3704"/></linearGradient><linearGradient id="na"><stop offset="0"/><stop offset="1" stop-color="#fff" stop-opacity="0"/></linearGradient><linearGradient xlink:href="#na" id="nc" x1="-87.312" y1="109.543" x2="-48.419" y2="109.543" gradientUnits="userSpaceOnUse"/><linearGradient xlink:href="#nb" id="nd" x1="-66.929" y1="133.742" x2="-43.384" y2="133.742" gradientUnits="userSpaceOnUse"/><linearGradient xlink:href="#nb" id="ne" gradientUnits="userSpaceOnUse" x1="-66.929" y1="133.742" x2="-43.384" y2="133.742"/></defs><ellipse cx="-94.456" cy="132.297" rx="29.898" ry="21.828" opacity=".808" fill-opacity="0" stroke-width="1.005"/><g transform="matrix(.19616 0 0 .17216 -54.553 90.154)"><path d="M-87.312 87.49h38.893v44.106h-38.893z" opacity=".702" fill="url(#nc)" stroke-width=".75"/><g style="line-height:1.25;-inkscape-font-specification:'DaunPenh, Normal';font-variant-ligatures:normal;font-variant-caps:normal;font-variant-numeric:normal;font-feature-settings:normal;text-align:start"><path d="M-65.318 141.45q.767 1.994 1.61 3.68.883 1.688 2.071 2.954 1.227 1.227 2.838 1.955 1.61.69 3.873.69 1.495 0 2.76-.498 1.266-.499 2.225-1.419.959-.92 1.495-2.147.537-1.266.537-2.761 0-1.88-.69-3.221-.69-1.342-1.84-2.301-1.151-.997-2.608-1.726-1.457-.728-2.991-1.418-1.726-.767-3.49-1.688-1.725-.92-3.106-2.185-1.38-1.266-2.262-2.915-.882-1.649-.882-3.911 0-2.416.959-4.256.997-1.88 2.645-3.145 1.688-1.265 3.873-1.917 2.224-.652 4.717-.652 2.416 0 4.448.383 2.07.346 4.41.96-.115 1.226-.192 2.3-.076 1.035-.115 2.07 0 .998-.038 2.071v2.263l-1.61.153q-.346-4.065-2.493-6.059-2.11-2.032-5.714-2.032-1.38 0-2.53.422-1.151.422-1.995 1.227-.843.805-1.342 1.917-.46 1.112-.46 2.493 0 1.84.575 3.106.614 1.227 1.65 2.147 1.035.92 2.377 1.61 1.38.653 2.876 1.304 1.84.806 3.68 1.764 1.88.96 3.337 2.263 1.495 1.304 2.416 3.03.92 1.725.92 4.064 0 2.607-1.074 4.64-1.073 1.994-2.837 3.413-1.764 1.38-4.065 2.109-2.3.728-4.717.728-2.109 0-4.371-.422-2.262-.421-4.793-1.15-.269-2.53-.652-4.755-.384-2.224-1.036-4.755z" style="-inkscape-font-specification:'DaunPenh, Normal';font-variant-ligatures:normal;font-variant-caps:normal;font-variant-numeric:normal;font-feature-settings:normal;text-align:start" fill="url(#ne)" transform="matrix(1.22943 .09136 -.06011 .80892 7.852 5.337)" font-weight="400" font-size="78.533" font-family="DaunPenh" letter-spacing="4.103" word-spacing="0" stroke-width="1.963"/></g></g></svg><svg id="star" data-name="Layer 1" width="66" height="66" viewBox="-1 -1 66 66" x="989.7" y="813.12" xmlns="http://www.w3.org/2000/svg"><defs id="odefs4"><style id="ostyle2">.ocls-1{fill:#d4953f}</style></defs><title id="otitle6">star</title><path class="ocls-1" d="M32 0l-8 24H0l20 16-8 24 20-16 20 16-8-24 20-16H40z" id="opath8" fill="#d40000"/></svg><svg id="twitter" data-name="Layer 1" width="53.78" height="44.06" viewBox="-1 -1 53.78 44.06" x="1055.7" y="749.12" xmlns="http://www.w3.org/2000/svg"><defs><style>.pcls-1{fill:#fff}</style></defs><title>twitter</title><path class="pcls-1" d="M51.78 5a22.23 22.23 0 0 1-5.32 5.52v1.38a30.15 30.15 0 0 1-1.25 8.53 30.81 30.81 0 0 1-3.76 8.13 32.1 32.1 0 0 1-6.06 6.92 27 27 0 0 1-8.48 4.8 31 31 0 0 1-10.62 1.8A29.47 29.47 0 0 1 0 37.29a22.71 22.71 0 0 0 2.56.13 20.78 20.78 0 0 0 13.17-4.53 10.63 10.63 0 0 1-9.92-7.36 13.45 13.45 0 0 0 2 .16 11 11 0 0 0 2.79-.36 10.44 10.44 0 0 1-6.09-3.67 10.25 10.25 0 0 1-2.41-6.75v-.13a10.52 10.52 0 0 0 4.8 1.34 10.6 10.6 0 0 1-3.45-3.78 10.34 10.34 0 0 1-1.28-5.07 10.4 10.4 0 0 1 1.45-5.33 30.08 30.08 0 0 0 9.71 7.83A29.57 29.57 0 0 0 25.53 13a11.79 11.79 0 0 1-.26-2.43 10.23 10.23 0 0 1 3-7.48 10.64 10.64 0 0 1 15 0l.21.22A20.81 20.81 0 0 0 50.33.8a10.3 10.3 0 0 1-4.67 5.85A21.14 21.14 0 0 0 51.78 5z"/></svg><svg id="wifi" data-name="Layer 1" width="62" height="66" viewBox="-1 -1 62 66" x="927.7" y="813.12" xmlns="http://www.w3.org/2000/svg"><defs><style>.qcls-1{fill:#d4953e}</style></defs><title>wifi</title><path class="qcls-1" d="M29.88 0A55.39 55.39 0 0 0 0 8.72l4.22 6.48a47.32 47.32 0 0 1 25.66-7.28 47.31 47.31 0 0 1 25.9 7.28L60 8.72A55.53 55.53 0 0 0 29.88 0zm0 24a31.08 31.08 0 0 0-17 5l4.22 6.72A23.09 23.09 0 0 1 29.8 32a24.17 24.17 0 0 1 13 3.76L47 29a32.37 32.37 0 0 0-17.2-5h.07zm0 24a8 8 0 1 0 8 8 8 8 0 0 0-8-8z"/></svg><svg viewBox="-1 -1 66 66" width="66" height="66" id="wordpress" x="861.7" y="813.12" xmlns="http://www.w3.org/2000/svg"><path d="M32.306 64.265c17.658-.026 31.952-14.345 31.952-32.007C64.258 14.883 50.03.573 33.032.271 15.18-.047.262 14.393.258 31.904.253 49.92 14.483 64.291 32.306 64.265zM32.254 1.82c16.953-.006 30.46 13.725 30.455 30.957-.006 16.27-13.87 29.879-30.442 29.883-16.883.003-30.46-13.642-30.46-30.613C1.81 15.515 15.598 1.826 32.255 1.82zM19.46 17.877c.278.92-.498 1.241-1.323 1.305l-2.743.209 9.955 29.567c.24-.39.338-.5.381-.628 1.841-5.486 3.693-10.968 5.487-16.47.164-.501.083-1.166-.097-1.681-.95-2.732-2.087-5.405-2.92-8.17-.568-1.893-1.324-3.118-3.568-2.899-.383.038-.85-.782-1.277-1.206.517-.308 1.032-.875 1.554-.883 4.57-.069 9.143-.069 13.713.004.524.01 1.038.591 1.556.907-.453.413-.844 1.032-1.374 1.192-.85.256-1.794.207-2.812.298l9.968 29.56c1.51-5 2.915-9.591 4.281-14.194 1.219-4.11.493-7.946-1.711-11.565-.663-1.089-1.477-2.145-1.852-3.331-.427-1.35-.781-2.888-.555-4.242.384-2.295 2.15-3.435 4.54-3.653-13.08-12.102-33.637-7.77-41.212 5.38 2.916-.134 5.7-.31 8.486-.348.527-.007 1.4.437 1.523.848zm5.212 40.042c-.06.178-.064.375-.112.67 5.638 1.557 11.167 1.445 16.825-.456L32.74 34.53c-2.767 8.017-5.42 15.702-8.069 23.39zm-4.356-1.067L7.291 21.237C1.415 32.678 5.885 50.134 20.315 56.852zM59.69 33.967c.413-5.41-1.46-12.9-3.076-13.93-.18 1.99-.054 4.204-.627 6.221-1.348 4.753-2.997 9.423-4.585 14.107-1.726 5.09-3.52 10.157-5.284 15.235 8.29-4.9 12.846-12.13 13.572-21.633z" clip-rule="evenodd" fill="#e6b800" fill-rule="evenodd" stroke-width=".514"/></svg><svg id="youtube" data-name="Layer 1" width="36.75" height="44" viewBox="-1 -1 36.75 44" x="1137.7" y="445.65" xmlns="http://www.w3.org/2000/svg"><defs><style>.scls-1{fill:#fff}</style></defs><title>youtube</title><path class="scls-1" d="M22.13 29.15v5q0 1.57-.91 1.57a1.5 1.5 0 0 1-1.06-.52v-7.11a1.5 1.5 0 0 1 1.06-.54q.91 0 .91 1.6zm7.92 0v1.08h-2.1v-1.06q0-1.59 1.06-1.59t1 1.59zM7.42 24h2.5v-2.14h-7.3v2.2h2.46V37.4h2.34V24zm6.75 13.4h2.09V25.82h-2.09v8.86a1.86 1.86 0 0 1-1.31 1 .48.48 0 0 1-.49-.47 6.52 6.52 0 0 1 0-.82v-8.57h-2.14V35a5.79 5.79 0 0 0 .19 1.71 1.26 1.26 0 0 0 1.36.87 3.43 3.43 0 0 0 2.39-1.43v1.25zm10.05-3.47v-4.6A8.33 8.33 0 0 0 24 27a1.63 1.63 0 0 0-1.67-1.31A2.82 2.82 0 0 0 20.16 27v-5.1h-2.08v15.5h2.09v-1.13a2.91 2.91 0 0 0 2.18 1.31A1.62 1.62 0 0 0 24 36.27a8.61 8.61 0 0 0 .22-2.35zm7.92-.24v-.3H30a11.6 11.6 0 0 1 0 1.43.9.9 0 0 1-.94.85q-1.08 0-1.08-1.61V32h4.19v-2.41a4.65 4.65 0 0 0-.66-2.72 3.2 3.2 0 0 0-5 0 4.52 4.52 0 0 0-.66 2.72v4.05a4.4 4.4 0 0 0 .66 2.72 3 3 0 0 0 2.49 1.2 2.9 2.9 0 0 0 3-2.51 10.31 10.31 0 0 0 .09-1.36zM17.89 12.3V7.38q0-1.61-1-1.61t-1 1.61v4.92q0 1.64 1 1.64t1-1.64zm16.85 17.6a40.6 40.6 0 0 1-.61 8.2 4.45 4.45 0 0 1-1.36 2.32 4.1 4.1 0 0 1-2.39 1.08 125.31 125.31 0 0 1-13 .49 125.31 125.31 0 0 1-13-.49A4.15 4.15 0 0 1 2 40.42 4.28 4.28 0 0 1 .63 38.1 39.76 39.76 0 0 1 0 29.9a40.6 40.6 0 0 1 .61-8.2A4.45 4.45 0 0 1 2 19.37a4.25 4.25 0 0 1 2.41-1.1q4.29-.47 13-.47t13 .47a4.4 4.4 0 0 1 3.75 3.42 39.76 39.76 0 0 1 .58 8.21zM11.35 0h2.39l-2.83 9.35v6.35H8.57V9.35a39.68 39.68 0 0 0-1.43-5Q6.27 2 5.61 0H8.1l1.67 6.16zM20 7.8v4.1a4.59 4.59 0 0 1-.66 2.76 2.88 2.88 0 0 1-2.49 1.19 2.9 2.9 0 0 1-2.46-1.19 4.68 4.68 0 0 1-.66-2.76V7.8a4.59 4.59 0 0 1 .66-2.74 2.9 2.9 0 0 1 2.46-1.19 2.88 2.88 0 0 1 2.49 1.19A4.59 4.59 0 0 1 20 7.8zM27.87 4v11.7h-2.13v-1.27a3.37 3.37 0 0 1-2.41 1.45A1.31 1.31 0 0 1 22 15a6 6 0 0 1-.19-1.76V4h2.13v8.6a6.14 6.14 0 0 0 0 .82.49.49 0 0 0 .47.52 1.87 1.87 0 0 0 1.31-1V4h2.16z"/></svg></svg>