<?xml version="1.0" encoding="UTF-8" standalone="no"?>
<svg
   xmlns:dc="http://purl.org/dc/elements/1.1/"
   xmlns:cc="http://creativecommons.org/ns#"
   xmlns:rdf="http://www.w3.org/1999/02/22-rdf-syntax-ns#"
   xmlns:svg="http://www.w3.org/2000/svg"
   xmlns="http://www.w3.org/2000/svg"
   xmlns:sodipodi="http://sodipodi.sourceforge.net/DTD/sodipodi-0.dtd"
   xmlns:inkscape="http://www.inkscape.org/namespaces/inkscape"
   id="Layer_1"
   data-name="Layer 1"
   width="142.4"
   height="59.53"
   viewBox="0 0 142.4 59.53"
   version="1.1"
   sodipodi:docname="clear-view-escapes.svg"
   inkscape:version="0.92.2 (5c3e80d, 2017-08-06)">
  <metadata
     id="metadata43">
    <rdf:RDF>
      <cc:Work
         rdf:about="">
        <dc:format>image/svg+xml</dc:format>
        <dc:type
           rdf:resource="http://purl.org/dc/dcmitype/StillImage" />
      </cc:Work>
    </rdf:RDF>
  </metadata>
  <sodipodi:namedview
     pagecolor="#ffffff"
     bordercolor="#666666"
     borderopacity="1"
     objecttolerance="10"
     gridtolerance="10"
     guidetolerance="10"
     inkscape:pageopacity="0"
     inkscape:pageshadow="2"
     inkscape:window-width="1920"
     inkscape:window-height="1005"
     id="namedview41"
     showgrid="false"
     inkscape:zoom="2.8019664"
     inkscape:cx="-22.127326"
     inkscape:cy="46.840218"
     inkscape:window-x="-9"
     inkscape:window-y="-9"
     inkscape:window-maximized="1"
     inkscape:current-layer="Layer_1" />
  <defs
     id="defs4">
    <style
       id="style2">.cls-1{fill:#fff;}</style>
  </defs>
  <title
     id="title6">clear-view-escapes</title>
  <g
     id="g977"
     transform="matrix(0.97298832,0,0,1,261.15274,34.975438)">
    <path
       style="opacity:0.59299999;fill:#ffffff;fill-opacity:1;stroke:none;stroke-width:4.24669218;stroke-miterlimit:4;stroke-dasharray:none;stroke-opacity:1"
       d="M -267.66919,-35.760223 H -124.5554 V 24.911453 H -267.66919 Z"
       id="rect860"
       inkscape:connector-curvature="0" />
    <path
       style="opacity:1;fill:#241c1c;fill-opacity:1;stroke:none;stroke-width:2.14094019;stroke-miterlimit:4;stroke-dasharray:none;stroke-opacity:1"
       inkscape:transform-center-x="0.19178839"
       inkscape:transform-center-y="-0.35669154"
       d="m -234.58357,-17.282067 -3.6032,-2.226557 -3.03343,2.956164 1.00413,-4.114891 -3.74886,-1.97146 4.22379,-0.316586 0.71651,-4.174592 1.60631,3.91923 4.19169,-0.60858 -3.23103,2.738803 z"
       id="path870"
       inkscape:connector-curvature="0" />
    <path
       transform="matrix(0.65142817,0,0,0.65142667,-99.659601,20.114801)"
       style="opacity:1;fill:#ffcc00;fill-opacity:1;stroke:none;stroke-width:4;stroke-miterlimit:4;stroke-dasharray:none;stroke-opacity:1"
       inkscape:transform-center-x="9.5330173"
       inkscape:transform-center-y="-0.43412299"
       d="m -227.39512,-15.075549 -6.73199,-4.159959 -5.66747,5.52311 1.87605,-7.688004 -7.00413,-3.683352 7.89146,-0.591488 1.33868,-7.799547 3.00113,7.322444 7.83148,-1.137033 -6.03665,5.117008 z"
       id="path874"
       inkscape:connector-curvature="0" />
    <path
       style="opacity:1;fill:#00ff00;fill-opacity:1;stroke:none;stroke-width:3.27763391;stroke-miterlimit:4;stroke-dasharray:none;stroke-opacity:1"
       inkscape:transform-center-x="11.99124"
       inkscape:transform-center-y="-0.54607138"
       d="m -191.44474,-9.0812078 -5.51625,-3.4087072 -4.64398,4.5256848 1.53726,-6.2996178 -5.73925,-3.018171 6.46633,-0.484671 1.09692,-6.391017 2.45916,6.000075 6.41719,-0.931695 -4.94649,4.192921 z"
       id="path876"
       inkscape:connector-curvature="0" />
    <path
       transform="matrix(0.96442243,0,0,0.91862509,39.367379,6.5448783)"
       style="opacity:1;fill:#aa00d4;fill-opacity:1;stroke:none;stroke-width:4;stroke-miterlimit:4;stroke-dasharray:none;stroke-opacity:1"
       inkscape:transform-center-x="14.113371"
       inkscape:transform-center-y="-0.61219071"
       d="m -174.1634,2.7841364 -6.73199,-4.1599612 -5.66748,5.5231124 1.87606,-7.6880073 -7.00414,-3.6833537 7.89147,-0.5914886 1.33868,-7.79955 3.00113,7.322447 7.83149,-1.1370334 -6.03666,5.1170099 z"
       id="path880"
       inkscape:connector-curvature="0" />
    <path
       style="opacity:1;fill:#ffcc00;fill-opacity:1;stroke:none;stroke-width:2.45078349;stroke-miterlimit:4;stroke-dasharray:none;stroke-opacity:1"
       inkscape:transform-center-x="8.9661913"
       inkscape:transform-center-y="-0.40831302"
       d="m -132.40573,-19.999629 -4.12466,-2.548791 -3.47244,3.383988 1.14945,-4.71041 -4.2914,-2.256776 4.83506,-0.362403 0.82021,-4.778752 1.83878,4.486433 4.79832,-0.696655 -3.69864,3.135171 z"
       id="path882"
       inkscape:connector-curvature="0" />
    <path
       transform="matrix(0.46979166,0,0,0.5890911,-97.170095,6.1100618)"
       style="opacity:1;fill:#00ff00;fill-opacity:1;stroke:none;stroke-width:4;stroke-miterlimit:4;stroke-dasharray:none;stroke-opacity:1"
       inkscape:transform-center-x="6.8749333"
       inkscape:transform-center-y="-0.39258242"
       d="m -131.69321,12.777118 -6.732,-4.1599614 -5.66747,5.5231124 1.87606,-7.6880073 -7.00414,-3.6833537 7.89146,-0.5914886 1.33868,-7.7995502 3.00113,7.3224472 7.83149,-1.13703336 -6.03666,5.11700986 z"
       id="path884"
       inkscape:connector-curvature="0" />
    <path
       transform="matrix(0.44647602,0,0,0.43994071,-65.628065,4.5406614)"
       style="opacity:1;fill:#241c1c;fill-opacity:1;stroke:none;stroke-width:4;stroke-miterlimit:4;stroke-dasharray:none;stroke-opacity:1"
       inkscape:transform-center-x="6.5337364"
       inkscape:transform-center-y="-0.29318584"
       d="m -140.08237,-14.123128 -6.732,-4.159961 -5.66747,5.523112 1.87605,-7.688007 -7.00413,-3.683354 7.89146,-0.591488 1.33868,-7.79955 3.00113,7.322447 7.83149,-1.137034 -6.03666,5.11701 z"
       id="path872"
       inkscape:connector-curvature="0" />
    <path
       transform="matrix(0.78653458,0,0,0.83746766,-73.125986,-18.348695)"
       style="opacity:1;fill:#0066ff;fill-opacity:1;stroke:none;stroke-width:4;stroke-miterlimit:4;stroke-dasharray:none;stroke-opacity:1"
       inkscape:transform-center-x="11.510157"
       inkscape:transform-center-y="-0.55810565"
       d="m -174.1634,2.7841364 -6.73199,-4.1599612 -5.66748,5.5231124 1.87606,-7.6880073 -7.00414,-3.6833537 7.89147,-0.5914886 1.33868,-7.79955 3.00113,7.322447 7.83149,-1.1370334 -6.03666,5.1170099 z"
       id="path886"
       inkscape:connector-curvature="0" />
    <path
       transform="matrix(0.47897678,0,0,0.62533262,-134.24674,-8.1006236)"
       style="opacity:1;fill:#00ff00;fill-opacity:1;stroke:none;stroke-width:3.27763391;stroke-miterlimit:4;stroke-dasharray:none;stroke-opacity:1"
       inkscape:transform-center-x="5.7435308"
       inkscape:transform-center-y="-0.34147631"
       d="m -243.29757,-6.5443406 -5.51625,-3.4087072 -4.64398,4.5256848 1.53726,-6.299618 -5.73925,-3.018171 6.46633,-0.484671 1.09692,-6.391017 2.45916,6.000075 6.41719,-0.931695 -4.94649,4.192921 z"
       id="path932"
       inkscape:connector-curvature="0" />
    <path
       transform="matrix(0.65142817,0,0,0.65142667,-74.255862,13.183734)"
       style="opacity:1;fill:#ffcc00;fill-opacity:1;stroke:none;stroke-width:4;stroke-miterlimit:4;stroke-dasharray:none;stroke-opacity:1"
       inkscape:transform-center-x="9.5330173"
       inkscape:transform-center-y="-0.43412299"
       d="m -227.39512,-15.075549 -6.73199,-4.159959 -5.66747,5.52311 1.87605,-7.688004 -7.00413,-3.683352 7.89146,-0.591488 1.33868,-7.799547 3.00113,7.322444 7.83148,-1.137033 -6.03665,5.117008 z"
       id="path943"
       inkscape:connector-curvature="0" />
    <path
       style="opacity:1;fill:#241c1c;fill-opacity:1;stroke:none;stroke-width:2.14094019;stroke-miterlimit:4;stroke-dasharray:none;stroke-opacity:1"
       inkscape:transform-center-x="0.19178839"
       inkscape:transform-center-y="-0.35669154"
       d="m -230.31706,18.282618 -3.6032,-2.226557 -3.03343,2.956164 1.00413,-4.114891 -3.74886,-1.97146 4.22379,-0.316586 0.71651,-4.1745926 1.60631,3.9192306 4.19169,-0.60858 -3.23103,2.738803 z"
       id="path945"
       inkscape:connector-curvature="0" />
    <path
       transform="matrix(1.1067327,0,0,1.0541775,-10.236808,10.978575)"
       style="opacity:1;fill:#0066ff;fill-opacity:1;stroke:none;stroke-width:4;stroke-miterlimit:4;stroke-dasharray:none;stroke-opacity:1"
       inkscape:transform-center-x="16.19594"
       inkscape:transform-center-y="-0.70252556"
       d="m -174.1634,2.7841364 -6.73199,-4.1599612 -5.66748,5.5231124 1.87606,-7.6880073 -7.00414,-3.6833537 7.89147,-0.5914886 1.33868,-7.79955 3.00113,7.322447 7.83149,-1.1370334 -6.03666,5.1170099 z"
       id="path947"
       inkscape:connector-curvature="0" />
    <path
       style="opacity:1;fill:#ffcc00;fill-opacity:1;stroke:none;stroke-width:2.45078349;stroke-miterlimit:4;stroke-dasharray:none;stroke-opacity:1"
       inkscape:transform-center-x="8.9661913"
       inkscape:transform-center-y="-0.40831302"
       d="m -164.30644,-3.0195506 -4.12466,-2.5487912 -3.47244,3.3839883 1.14945,-4.7104106 -4.29141,-2.2567756 4.83507,-0.3624027 0.82021,-4.7787526 1.83878,4.4864336 4.79832,-0.6966556 -3.69864,3.1351708 z"
       id="path949"
       inkscape:connector-curvature="0" />
    <path
       transform="matrix(0.73662343,0,0,0.66132771,-51.286928,-15.913296)"
       style="opacity:1;fill:#00ff00;fill-opacity:1;stroke:none;stroke-width:4;stroke-miterlimit:4;stroke-dasharray:none;stroke-opacity:1"
       inkscape:transform-center-x="10.779751"
       inkscape:transform-center-y="-0.4407224"
       d="m -131.69321,12.777118 -6.732,-4.1599614 -5.66747,5.5231124 1.87606,-7.6880073 -7.00414,-3.6833537 7.89146,-0.5914886 1.33868,-7.7995502 3.00113,7.3224472 7.83149,-1.13703336 -6.03666,5.11700986 z"
       id="path951"
       inkscape:connector-curvature="0" />
    <path
       transform="matrix(0.44647602,0,0,0.43994071,-98.819041,-19.014225)"
       style="opacity:1;fill:#241c1c;fill-opacity:1;stroke:none;stroke-width:4;stroke-miterlimit:4;stroke-dasharray:none;stroke-opacity:1"
       inkscape:transform-center-x="6.5337364"
       inkscape:transform-center-y="-0.29318584"
       d="m -140.08237,-14.123128 -6.732,-4.159961 -5.66747,5.523112 1.87605,-7.688007 -7.00413,-3.683354 7.89146,-0.591488 1.33868,-7.79955 3.00113,7.322447 7.83149,-1.137034 -6.03666,5.11701 z"
       id="path953"
       inkscape:connector-curvature="0" />
    <path
       transform="matrix(0.96442243,0,0,0.91862509,-7.6861234,13.351025)"
       style="opacity:1;fill:#aa00d4;fill-opacity:1;stroke:none;stroke-width:4;stroke-miterlimit:4;stroke-dasharray:none;stroke-opacity:1"
       inkscape:transform-center-x="14.113371"
       inkscape:transform-center-y="-0.61219071"
       d="m -174.1634,2.7841364 -6.73199,-4.1599612 -5.66748,5.5231124 1.87606,-7.6880073 -7.00414,-3.6833537 7.89147,-0.5914886 1.33868,-7.79955 3.00113,7.322447 7.83149,-1.1370334 -6.03666,5.1170099 z"
       id="path955"
       inkscape:connector-curvature="0" />
    <g
       aria-label="SPECTRA"
       transform="scale(0.83631843,1.1957168)"
       style="font-style:normal;font-variant:normal;font-weight:normal;font-stretch:normal;font-size:64.87757874px;line-height:1.25;font-family:MoolBoran;-inkscape-font-specification:'MoolBoran, Normal';font-variant-ligatures:normal;font-variant-caps:normal;font-variant-numeric:normal;font-feature-settings:normal;text-align:start;letter-spacing:-1.52056789px;word-spacing:0px;writing-mode:lr-tb;text-anchor:start;fill:#ffffff;fill-opacity:1;stroke:#ff0000;stroke-width:1.51544321;stroke-miterlimit:4;stroke-dasharray:none;stroke-opacity:1"
       id="text905">
      <path
         d="m -286.14883,0.86586238 q 0,1.58392522 -0.76029,3.19952902 -0.76028,1.5839253 -2.18581,2.882744 -1.42554,1.2671402 -3.45296,2.0907813 -1.99575,0.7919627 -4.49835,0.7919627 -1.3305,0 -2.47092,-0.1583926 -1.14043,-0.1583925 -2.15414,-0.4118205 -0.98203,-0.2851066 -1.90071,-0.6652486 -0.91868,-0.4118206 -1.83735,-0.8869982 l 1.39385,-4.3399552 q 0.60189,0.4118206 1.58393,0.8869981 1.01371,0.4751776 2.18581,0.8869982 1.17211,0.4118206 2.34421,0.6969271 1.20378,0.253428 2.18582,0.253428 1.10875,0 1.80567,-0.126714 0.72861,-0.1583925 1.29882,-0.4118205 0.63357,-0.2534281 1.01371,-1.2671402 0.38015,-1.0137122 0.38015,-2.629316 0,-1.48888973 -0.98204,-2.37588788 -0.98203,-0.88699812 -2.47092,-1.52056822 -1.45721,-0.6652486 -3.16785,-1.2988187 -1.71064,-0.6652487 -3.19953,-1.6789608 -1.45721,-1.0453907 -2.43925,-2.6609945 -0.98203,-1.6156037 -0.98203,-4.2449199 0,-1.26714 0.66525,-2.660994 0.66525,-1.425533 1.93239,-2.597638 1.26714,-1.203783 3.13617,-1.964067 1.86903,-0.760284 4.24492,-0.760284 1.90071,0 3.64303,0.190071 1.77399,0.190071 3.42128,0.506856 l -0.887,4.339955 q -0.76029,-0.285106 -1.74232,-0.538534 -0.95035,-0.253428 -1.96407,-0.443499 -0.98203,-0.190071 -1.93239,-0.285107 -0.95035,-0.126714 -1.67896,-0.126714 -0.82364,0 -1.52056,0.09504 -0.69693,0.06336 -1.26714,0.41182 -0.53854,0.316785 -0.79197,1.108748 -0.22175,0.760284 -0.22175,1.837353 0,1.108748 0.57022,1.837353 0.57021,0.728606 1.48889,1.2988191 0.95035,0.5385346 2.12246,1.0137122 1.20378,0.443499 2.43924,0.9820336 1.26714,0.5068561 2.43925,1.2037832 1.20378,0.6652486 2.12246,1.6789608 0.95035,0.9820337 1.52056,2.4075664 0.57022,1.4255327 0.57022,3.45295708 z"
         style="fill:#ffffff;fill-opacity:1;stroke:#ff0000;stroke-width:1.51544321;stroke-miterlimit:4;stroke-dasharray:none;stroke-opacity:1"
         id="path996"
         inkscape:connector-curvature="0" />
      <path
         d="m -276.48689,-4.1076629 0.76029,-0.1583926 q 1.10874,-0.253428 2.09078,-0.6335701 0.98203,-0.4118205 1.67896,-1.1721047 0.7286,-0.7919626 1.14042,-2.0591028 0.41182,-1.2671402 0.41182,-3.2312079 0,-2.946101 -1.33049,-4.276598 -1.3305,-1.362176 -3.48464,-1.362176 -0.53853,0 -1.10875,0.03168 -0.53853,0.03168 -1.14042,0.126714 V 9.4190588 h -5.63878 V -19.630131 q 0.887,-0.06336 1.93239,-0.126714 1.04539,-0.06336 2.15414,-0.09504 1.14043,-0.06336 2.24917,-0.06336 1.14043,-0.03168 2.18582,-0.03168 2.56596,0 4.43499,0.601892 1.90071,0.570213 3.13617,1.647282 1.23547,1.077069 1.83736,2.629316 0.60189,1.520568 0.60189,3.452957 0,2.0274247 -0.66525,3.8014209 -0.66525,1.7739963 -2.0591,3.1044936 -1.36218,1.3304972 -3.51632,2.0907813 -2.12246,0.7602841 -5.06856,0.7602841 h -0.25343 z"
         style="fill:#ffffff;fill-opacity:1;stroke:#ff0000;stroke-width:1.51544321;stroke-miterlimit:4;stroke-dasharray:none;stroke-opacity:1"
         id="path998"
         inkscape:connector-curvature="0" />
      <path
         d="M -244.74503,9.4190588 H -261.4396 V -19.788523 h 16.12436 l -0.28511,2.977779 -10.20047,0.126714 v 9.5035521 l 9.59858,0.126714 -0.25343,2.6926729 -9.34515,0.2217496 V 6.3145653 l 11.30922,0.2217495 z"
         style="fill:#ffffff;fill-opacity:1;stroke:#ff0000;stroke-width:1.51544321;stroke-miterlimit:4;stroke-dasharray:none;stroke-opacity:1"
         id="path1000"
         inkscape:connector-curvature="0" />
      <path
         d="m -230.29963,9.8308794 q -3.26288,0 -5.54373,-1.1087477 -2.28086,-1.1087477 -3.70639,-3.1044935 -1.42553,-1.9957459 -2.09078,-4.78345432 -0.63357,-2.81938698 -0.63357,-6.24066558 0,-2.7560299 0.63357,-4.9101683 0.63357,-2.185817 1.71064,-3.801421 1.10875,-1.647282 2.53428,-2.787708 1.45721,-1.140426 3.04114,-1.837353 1.6156,-0.728606 3.29456,-1.045391 1.67896,-0.316785 3.26289,-0.316785 0.98203,0 2.0591,0.06336 1.10875,0.06336 2.12246,0.190071 1.04539,0.09504 1.93239,0.253428 0.887,0.126714 1.45721,0.253428 l -1.04539,4.149884 q -0.57022,-0.190071 -1.61561,-0.380142 -1.04539,-0.221749 -2.24917,-0.41182 -1.1721,-0.190071 -2.34421,-0.316785 -1.14043,-0.126714 -1.90071,-0.126714 -0.85532,0 -1.52057,0.06336 -0.66525,0.03168 -1.23546,0.190071 -0.53853,0.126714 -1.04539,0.380142 -0.47518,0.253428 -0.98203,0.63357 -1.29882,0.918676 -1.774,3.484635 -0.4435,2.5659592 -0.4435,6.3990584 0,5.89220194 1.74232,8.9333384 1.74232,3.009458 5.60709,3.009458 2.18582,0 4.56171,-0.3484635 2.37589,-0.3801421 4.30828,-1.0453907 v 2.4392449 q -1.07707,0.5068561 -2.34421,0.9186767 -1.23547,0.380142 -2.56596,0.6652486 -1.29882,0.253428 -2.661,0.380142 -1.33049,0.1583926 -2.56596,0.1583926 z"
         style="fill:#ffffff;fill-opacity:1;stroke:#ff0000;stroke-width:1.51544321;stroke-miterlimit:4;stroke-dasharray:none;stroke-opacity:1"
         id="path1002"
         inkscape:connector-curvature="0" />
      <path
         d="M -211.0391,9.4190588 V -16.68403 l -8.52151,-0.126714 0.2851,-2.977779 h 22.46006 l -0.2851,2.882744 -8.26809,0.221749 V 9.4190588 Z"
         style="fill:#ffffff;fill-opacity:1;stroke:#ff0000;stroke-width:1.51544321;stroke-miterlimit:4;stroke-dasharray:none;stroke-opacity:1"
         id="path1004"
         inkscape:connector-curvature="0" />
      <path
         d="m -187.12182,-2.6187732 h -1.90071 v 12.037832 h -5.63878 V -19.725166 q 1.71064,-0.126714 3.86478,-0.22175 2.15414,-0.09503 4.11821,-0.09503 5.03688,0 7.63451,1.932389 2.62932,1.932389 2.62932,6.050594 0,1.837354 -0.4435,3.1995293 -0.4435,1.3621757 -1.1721,2.3758879 -0.72861,1.0137121 -1.67896,1.7106393 -0.95036,0.6969271 -1.99575,1.1721046 1.23546,2.2491739 2.34421,4.24491975 1.14043,1.99574585 2.24917,3.48463555 1.14043,1.4888898 2.28086,2.3758879 1.1721,0.8553197 2.5026,0.8553197 h 0.19007 v 1.8690318 q -0.66525,0.2217495 -1.55225,0.3484635 -0.85532,0.1583926 -1.93239,0.1583926 -1.55224,0 -2.72435,-0.2851066 -1.14042,-0.2851065 -2.24917,-1.2354617 -1.07707,-0.9503552 -2.24918,-2.7877085 -1.1721,-1.8373533 -2.72435,-4.97352528 z m -0.887,-2.882744 q 1.1721,0 2.24917,-0.2851065 1.10875,-0.3167851 1.74232,-0.7602841 0.31678,-0.2217496 0.63357,-0.5702131 0.31678,-0.3484636 0.57021,-0.9186767 0.25343,-0.5702131 0.41182,-1.4572112 0.1584,-0.8869982 0.1584,-2.2174952 0,-1.48889 -0.34847,-2.502602 -0.31678,-1.013712 -0.98203,-1.615604 -0.66525,-0.63357 -1.64728,-0.886998 -0.98204,-0.285107 -2.24918,-0.285107 -0.34846,0 -0.79196,0.03168 -0.41182,0 -0.76028,0.06336 v 11.4042618 z"
         style="fill:#ffffff;fill-opacity:1;stroke:#ff0000;stroke-width:1.51544321;stroke-miterlimit:4;stroke-dasharray:none;stroke-opacity:1"
         id="path1006"
         inkscape:connector-curvature="0" />
      <path
         d="m -153.38422,9.4190588 -3.26288,-9.85201513 -10.45391,0.15839253 -3.35792,9.6936226 h -3.57967 l 10.99244,-28.9541538 5.48038,-0.982034 10.23216,29.9361878 z m -4.14988,-12.6080451 -4.21324,-12.6080447 -4.33996,12.6080447 z"
         style="fill:#ffffff;fill-opacity:1;stroke:#ff0000;stroke-width:1.51544321;stroke-miterlimit:4;stroke-dasharray:none;stroke-opacity:1"
         id="path1008"
         inkscape:connector-curvature="0" />
    </g>
    <path
       transform="matrix(2.3160665,0.341149,-0.34250966,2.325304,257.26777,84.256308)"
       style="opacity:0.68199978;fill:#ff0000;fill-opacity:1;stroke:#ff0000;stroke-width:0.85261643;stroke-miterlimit:4;stroke-dasharray:none;stroke-opacity:1"
       inkscape:transform-center-x="32.776963"
       inkscape:transform-center-y="-6.9848922"
       d="m -192.68195,-1.4833411 -6.732,-4.1599612 -5.66747,5.52311237 1.87606,-7.68800727 -7.00414,-3.6833538 7.89146,-0.591489 1.33868,-7.79955 3.00114,7.322447 7.83148,-1.137033 -6.03666,5.11701 z"
       id="path878"
       inkscape:connector-curvature="0" />
  </g>
</svg>
