<?xml version="1.0" encoding="UTF-8" standalone="no"?>
<svg
   xmlns:dc="http://purl.org/dc/elements/1.1/"
   xmlns:cc="http://creativecommons.org/ns#"
   xmlns:rdf="http://www.w3.org/1999/02/22-rdf-syntax-ns#"
   xmlns:svg="http://www.w3.org/2000/svg"
   xmlns="http://www.w3.org/2000/svg"
   xmlns:xlink="http://www.w3.org/1999/xlink"
   xmlns:sodipodi="http://sodipodi.sourceforge.net/DTD/sodipodi-0.dtd"
   xmlns:inkscape="http://www.inkscape.org/namespaces/inkscape"
   id="Layer_1"
   data-name="Layer 1"
   width="142.4"
   height="59.53"
   viewBox="0 0 142.4 59.53"
   version="1.1"
   sodipodi:docname="clear-view-escapes.svg"
   inkscape:version="0.92.2 (5c3e80d, 2017-08-06)">
  <metadata
     id="metadata43">
    <rdf:RDF>
      <cc:Work
         rdf:about="">
        <dc:format>image/svg+xml</dc:format>
        <dc:type
           rdf:resource="http://purl.org/dc/dcmitype/StillImage" />
      </cc:Work>
    </rdf:RDF>
  </metadata>
  <sodipodi:namedview
     pagecolor="#ffffff"
     bordercolor="#666666"
     borderopacity="1"
     objecttolerance="10"
     gridtolerance="10"
     guidetolerance="10"
     inkscape:pageopacity="0"
     inkscape:pageshadow="2"
     inkscape:window-width="1920"
     inkscape:window-height="1005"
     id="namedview41"
     showgrid="false"
     inkscape:zoom="2.8019664"
     inkscape:cx="11.063658"
     inkscape:cy="29.764999"
     inkscape:window-x="-9"
     inkscape:window-y="-9"
     inkscape:window-maximized="1"
     inkscape:current-layer="Layer_1" />
  <defs
     id="defs4">
    <linearGradient
       inkscape:collect="always"
       id="linearGradient911">
      <stop
         style="stop-color:#f80000;stop-opacity:1"
         offset="0"
         id="stop907" />
      <stop
         id="stop915"
         offset="0.1408574"
         style="stop-color:#333333;stop-opacity:1" />
      <stop
         style="stop-color:#008000;stop-opacity:1"
         offset="0.30924103"
         id="stop917" />
      <stop
         id="stop919"
         offset="0.47762462"
         style="stop-color:#ffcc00;stop-opacity:1" />
      <stop
         style="stop-color:#0000ff;stop-opacity:1"
         offset="0.62916988"
         id="stop921" />
      <stop
         id="stop923"
         offset="0.808779"
         style="stop-color:#55ddff;stop-opacity:1" />
      <stop
         style="stop-color:#dd55ff;stop-opacity:1"
         offset="1"
         id="stop909" />
    </linearGradient>
    <style
       id="style2">.cls-1{fill:#fff;}</style>
    <linearGradient
       inkscape:collect="always"
       xlink:href="#linearGradient911"
       id="linearGradient925"
       gradientUnits="userSpaceOnUse"
       x1="3.5175839"
       y1="17.231307"
       x2="109.66392"
       y2="17.231307" />
  </defs>
  <title
     id="title6">clear-view-escapes</title>
  <g
     aria-label="International Student Experts in Canada"
     transform="matrix(1.186923,0,0,1.181997,191.01299,-77.165235)"
     style="font-style:normal;font-variant:normal;font-weight:normal;font-stretch:normal;font-size:11.34379005px;line-height:1;font-family:MoolBoran;-inkscape-font-specification:'MoolBoran, Normal';font-variant-ligatures:normal;font-variant-caps:normal;font-variant-numeric:normal;font-feature-settings:normal;text-align:start;letter-spacing:-0.40216666px;word-spacing:0.08853479px;writing-mode:lr-tb;text-anchor:start;fill:#0000ff;fill-opacity:1;stroke:none;stroke-width:0;stroke-miterlimit:4;stroke-dasharray:none;stroke-opacity:1"
     id="text823">
    <path
       d="m -102.23548,88.900459 h -0.98594 v -5.106921 h 0.98594 z"
       style="line-height:1;letter-spacing:-0.40216666px;word-spacing:0.08853479px;writing-mode:lr-tb;fill:#0000ff;stroke:none;stroke-width:0;stroke-miterlimit:4;stroke-dasharray:none;stroke-opacity:1"
       id="path885"
       inkscape:connector-curvature="0" />
    <path
       d="m -99.347508,88.900459 v -2.28759 q 0,-0.304643 -0.0997,-0.448656 -0.09416,-0.144013 -0.326799,-0.144013 -0.08308,0 -0.188324,0.02216 -0.0997,0.02216 -0.204939,0.06647 -0.0997,0.03877 -0.19941,0.09416 -0.0997,0.04985 -0.18278,0.110779 v 2.586694 h -0.96932 V 85.48846 h 0.86408 l 0.0886,0.398805 h 0.0111 q 0.0997,-0.06647 0.23817,-0.144013 0.14402,-0.08308 0.31019,-0.155091 0.166166,-0.07201 0.343413,-0.121857 0.177246,-0.04985 0.348954,-0.04985 0.193864,0 0.360033,0.06647 0.171707,0.06093 0.299103,0.188325 0.127396,0.121857 0.199403,0.310181 0.07755,0.188325 0.07755,0.443117 v 2.475915 z"
       style="line-height:1;letter-spacing:-0.40216666px;word-spacing:0.08853479px;writing-mode:lr-tb;fill:#0000ff;stroke:none;stroke-width:0;stroke-miterlimit:4;stroke-dasharray:none;stroke-opacity:1"
       id="path887"
       inkscape:connector-curvature="0" />
    <path
       d="m -97.678103,85.959272 -0.365572,-0.121858 v -0.204941 l 1.046864,-0.742221 h 0.26587 l 0.01108,0.598208 h 1.035785 l -0.04431,0.376649 q -0.116319,0.02216 -0.288026,0.03877 -0.166169,0.01662 -0.32126,0.0277 -0.182786,0.01662 -0.376649,0.03323 v 1.916481 q 0,0.182785 0.06647,0.310181 0.06647,0.121858 0.276948,0.121858 0.05539,0 0.149552,-0.0055 0.09416,-0.0055 0.193864,-0.01662 0.10524,-0.01108 0.199402,-0.02216 0.0997,-0.01662 0.166169,-0.0277 v 0.282487 q -0.121857,0.07755 -0.282487,0.16063 -0.16063,0.07755 -0.343415,0.144013 -0.177247,0.06093 -0.360033,0.0997 -0.182785,0.03877 -0.348954,0.03877 -0.127396,0 -0.249253,-0.02769 -0.121858,-0.02216 -0.221559,-0.09416 -0.09416,-0.07201 -0.155091,-0.199403 -0.05539,-0.132935 -0.05539,-0.343415 z"
       style="line-height:1;letter-spacing:-0.40216666px;word-spacing:0.08853479px;writing-mode:lr-tb;fill:#0000ff;stroke:none;stroke-width:0;stroke-miterlimit:4;stroke-dasharray:none;stroke-opacity:1"
       id="path889"
       inkscape:connector-curvature="0" />
    <path
       d="m -93.948206,85.416453 q 0.243714,0 0.470812,0.07201 0.232636,0.06647 0.426499,0.232636 0.193864,0.16063 0.332338,0.437578 0.144013,0.271409 0.216019,0.681292 v 0.04431 q -0.04431,0.06093 -0.121857,0.110779 -0.07201,0.04985 -0.193863,0.08862 -0.121857,0.03323 -0.299104,0.06647 -0.177247,0.02769 -0.4265,0.04431 l -1.074558,0.08308 v 0.144013 q 0,0.398805 0.21048,0.659136 0.210481,0.260331 0.631442,0.260331 0.171707,0 0.360032,-0.03323 0.188325,-0.03877 0.354494,-0.08862 0.171707,-0.04985 0.310181,-0.0997 0.144013,-0.05539 0.21602,-0.09416 l 0.08308,0.249253 q -0.155091,0.116318 -0.348954,0.243714 -0.193864,0.121857 -0.415422,0.221558 -0.221559,0.0997 -0.470812,0.16063 -0.243714,0.06647 -0.504045,0.06647 -0.304643,0 -0.570513,-0.08862 -0.260331,-0.09416 -0.454195,-0.293564 -0.188325,-0.199403 -0.299104,-0.520663 -0.110779,-0.321259 -0.110779,-0.780993 0,-0.515123 0.127396,-0.869617 0.127396,-0.360032 0.354494,-0.576052 0.227097,-0.221558 0.53174,-0.321259 0.310181,-0.0997 0.664675,-0.0997 z m -0.459734,0.576052 q -0.03877,0.03323 -0.07755,0.127396 -0.03323,0.08862 -0.06093,0.21602 -0.0277,0.121857 -0.04431,0.260331 -0.01662,0.132935 -0.01662,0.260331 l 1.069019,-0.04985 q -0.01662,-0.149552 -0.04985,-0.310181 -0.03323,-0.16063 -0.0997,-0.293565 -0.06093,-0.132935 -0.155091,-0.221559 -0.09416,-0.08862 -0.227097,-0.08862 -0.09416,0 -0.177247,0.02216 -0.08308,0.02216 -0.16063,0.07755 z"
       style="line-height:1;letter-spacing:-0.40216666px;word-spacing:0.08853479px;writing-mode:lr-tb;fill:#0000ff;stroke:none;stroke-width:0;stroke-miterlimit:4;stroke-dasharray:none;stroke-opacity:1"
       id="path891"
       inkscape:connector-curvature="0" />
    <path
       d="m -90.074296,86.258375 q -0.110779,-0.03877 -0.238175,-0.06093 -0.127396,-0.02769 -0.243714,-0.02769 -0.08308,0 -0.149552,0.01662 -0.06647,0.01108 -0.127396,0.04431 -0.05539,0.03323 -0.116318,0.08862 -0.05539,0.05539 -0.127396,0.132935 v 2.44822 h -0.969318 v -3.412 h 0.869616 l 0.08308,0.542818 h 0.0055 q 0.03877,-0.06093 0.09416,-0.138474 0.05539,-0.08308 0.116318,-0.16063 0.06647,-0.08308 0.132935,-0.149552 0.07201,-0.06647 0.144013,-0.09416 0.127396,-0.04431 0.288026,-0.05539 0.16063,-0.01662 0.348955,-0.01662 z"
       style="line-height:1;letter-spacing:-0.40216666px;word-spacing:0.08853479px;writing-mode:lr-tb;fill:#0000ff;stroke:none;stroke-width:0;stroke-miterlimit:4;stroke-dasharray:none;stroke-opacity:1"
       id="path893"
       inkscape:connector-curvature="0" />
    <path
       d="m -87.574047,88.900459 v -2.28759 q 0,-0.304643 -0.0997,-0.448656 -0.09416,-0.144013 -0.326799,-0.144013 -0.08308,0 -0.188325,0.02216 -0.0997,0.02216 -0.204941,0.06647 -0.0997,0.03877 -0.199403,0.09416 -0.0997,0.04985 -0.182785,0.110779 v 2.586694 h -0.969318 V 85.48846 h 0.864077 l 0.08862,0.398805 h 0.01108 q 0.0997,-0.06647 0.238175,-0.144013 0.144013,-0.08308 0.310182,-0.155091 0.166169,-0.07201 0.343415,-0.121857 0.177247,-0.04985 0.348955,-0.04985 0.193863,0 0.360032,0.06647 0.171708,0.06093 0.299104,0.188325 0.127396,0.121857 0.199403,0.310181 0.07755,0.188325 0.07755,0.443117 v 2.475915 z"
       style="line-height:1;letter-spacing:-0.40216666px;word-spacing:0.08853479px;writing-mode:lr-tb;fill:#0000ff;stroke:none;stroke-width:0;stroke-miterlimit:4;stroke-dasharray:none;stroke-opacity:1"
       id="path895"
       inkscape:connector-curvature="0" />
    <path
       d="m -83.107469,88.396414 q 0.121857,0 0.337876,-0.06093 v 0.232637 q -0.07755,0.07201 -0.182785,0.144013 -0.10524,0.06647 -0.227098,0.121857 -0.116318,0.04985 -0.243714,0.07755 -0.127396,0.03323 -0.249253,0.03323 -0.132935,0 -0.227097,-0.03877 -0.09416,-0.03877 -0.166169,-0.09416 -0.06647,-0.06093 -0.116318,-0.138474 -0.04431,-0.07755 -0.07755,-0.149552 -0.121857,0.08308 -0.243714,0.166169 -0.116318,0.07755 -0.249253,0.138474 -0.127396,0.06093 -0.271409,0.0997 -0.144013,0.03877 -0.32126,0.03877 -0.398805,0 -0.631441,-0.249253 -0.227098,-0.249254 -0.227098,-0.753299 0,-0.26587 0.06647,-0.465273 0.07201,-0.199402 0.221558,-0.326798 0.155091,-0.132935 0.393266,-0.199403 0.243715,-0.07201 0.592669,-0.08308 l 0.58713,-0.01662 v -0.492968 q 0,-0.199402 -0.110779,-0.293564 -0.105241,-0.09416 -0.365572,-0.09416 -0.182785,0 -0.4265,0.04431 -0.238175,0.04431 -0.504045,0.149552 l -0.132935,-0.354494 q 0.177247,-0.07755 0.365571,-0.149551 0.193864,-0.07755 0.387728,-0.132936 0.199402,-0.06093 0.398805,-0.09416 0.204941,-0.03877 0.404344,-0.03877 0.227097,0 0.404344,0.04431 0.177247,0.03877 0.293565,0.138474 0.121857,0.0997 0.182785,0.26587 0.06647,0.166169 0.06647,0.409883 v 1.573065 q 0,0.548357 0.271409,0.548357 z m -1.196415,-0.16063 q -0.0055,-0.02216 -0.01108,-0.110779 -0.0055,-0.09416 -0.01108,-0.232636 -0.0055,-0.144013 -0.01108,-0.32126 0,-0.182786 0,-0.382188 -0.360033,0 -0.542818,0.04431 -0.182786,0.03877 -0.227098,0.0997 -0.02215,0.02216 -0.03877,0.08308 -0.01108,0.06093 -0.02216,0.138474 -0.0055,0.07201 -0.01108,0.155091 0,0.07755 0,0.144013 0,0.232636 0.06093,0.376649 0.06647,0.144013 0.21602,0.144013 0.16063,0 0.304643,-0.03877 0.149552,-0.03877 0.293565,-0.0997 z"
       style="line-height:1;letter-spacing:-0.40216666px;word-spacing:0.08853479px;writing-mode:lr-tb;fill:#0000ff;stroke:none;stroke-width:0;stroke-miterlimit:4;stroke-dasharray:none;stroke-opacity:1"
       id="path897"
       inkscape:connector-curvature="0" />
    <path
       d="M -82.584629,85.959272 -82.9502,85.837414 v -0.204941 l 1.046863,-0.742221 h 0.26587 l 0.01108,0.598208 h 1.035786 l -0.04431,0.376649 q -0.116318,0.02216 -0.288026,0.03877 -0.166169,0.01662 -0.32126,0.0277 -0.182785,0.01662 -0.376649,0.03323 v 1.916481 q 0,0.182785 0.06647,0.310181 0.06647,0.121858 0.276948,0.121858 0.05539,0 0.149552,-0.0055 0.09416,-0.0055 0.193863,-0.01662 0.10524,-0.01108 0.199403,-0.02216 0.0997,-0.01662 0.166169,-0.0277 v 0.282487 q -0.121858,0.07755 -0.282487,0.16063 -0.16063,0.07755 -0.343416,0.144013 -0.177247,0.06093 -0.360032,0.0997 -0.182786,0.03877 -0.348955,0.03877 -0.127396,0 -0.249253,-0.02769 -0.121857,-0.02216 -0.221558,-0.09416 -0.09416,-0.07201 -0.155091,-0.199403 -0.05539,-0.132935 -0.05539,-0.343415 z"
       style="line-height:1;letter-spacing:-0.40216666px;word-spacing:0.08853479px;writing-mode:lr-tb;fill:#0000ff;stroke:none;stroke-width:0;stroke-miterlimit:4;stroke-dasharray:none;stroke-opacity:1"
       id="path899"
       inkscape:connector-curvature="0" />
    <path
       d="m -79.325543,88.900459 h -0.969318 V 85.48846 h 0.969318 z m -0.504045,-5.345096 0.614824,0.63698 -0.614824,0.64252 -0.609286,-0.64252 z"
       style="line-height:1;letter-spacing:-0.40216666px;word-spacing:0.08853479px;writing-mode:lr-tb;fill:#0000ff;stroke:none;stroke-width:0;stroke-miterlimit:4;stroke-dasharray:none;stroke-opacity:1"
       id="path901"
       inkscape:connector-curvature="0" />
    <path
       d="m -77.16317,88.966927 q -0.830844,0 -1.273961,-0.448656 -0.437578,-0.454195 -0.437578,-1.323811 0,-0.409883 0.10524,-0.736682 0.110779,-0.332338 0.326799,-0.559435 0.216019,-0.232636 0.537279,-0.354493 0.32126,-0.127397 0.742221,-0.127397 0.847461,0 1.279499,0.459734 0.432039,0.459734 0.432039,1.307195 0,0.415422 -0.110779,0.747759 -0.10524,0.326799 -0.32126,0.559435 -0.216019,0.227098 -0.537279,0.354494 -0.321259,0.121857 -0.74222,0.121857 z m -0.703448,-1.778006 q 0,0.670214 0.16063,0.985935 0.160629,0.31572 0.537279,0.31572 0.144013,0 0.271409,-0.02216 0.127396,-0.02769 0.21048,-0.07755 0.05539,-0.02769 0.09416,-0.132935 0.04431,-0.110779 0.07201,-0.271409 0.03323,-0.16063 0.04431,-0.365571 0.01662,-0.204942 0.01662,-0.4265 0,-0.653598 -0.166169,-0.974857 -0.16063,-0.326799 -0.526201,-0.326799 -0.138474,0 -0.271409,0.0277 -0.132936,0.02769 -0.232637,0.08862 -0.05539,0.03323 -0.0997,0.138474 -0.03877,0.10524 -0.06647,0.26587 -0.02215,0.16063 -0.03323,0.360033 -0.01108,0.199402 -0.01108,0.415422 z"
       style="line-height:1;letter-spacing:-0.40216666px;word-spacing:0.08853479px;writing-mode:lr-tb;fill:#0000ff;stroke:none;stroke-width:0;stroke-miterlimit:4;stroke-dasharray:none;stroke-opacity:1"
       id="path903"
       inkscape:connector-curvature="0" />
    <path
       d="m -72.81291,88.900459 v -2.28759 q 0,-0.304643 -0.0997,-0.448656 -0.09416,-0.144013 -0.326799,-0.144013 -0.08308,0 -0.188325,0.02216 -0.0997,0.02216 -0.204941,0.06647 -0.0997,0.03877 -0.199403,0.09416 -0.0997,0.04985 -0.182785,0.110779 v 2.586694 h -0.969318 V 85.48846 h 0.864077 l 0.08862,0.398805 h 0.01108 q 0.0997,-0.06647 0.238175,-0.144013 0.144013,-0.08308 0.310182,-0.155091 0.166169,-0.07201 0.343415,-0.121857 0.177247,-0.04985 0.348955,-0.04985 0.193863,0 0.360032,0.06647 0.171708,0.06093 0.299104,0.188325 0.127396,0.121857 0.199403,0.310181 0.07755,0.188325 0.07755,0.443117 v 2.475915 z"
       style="line-height:1;letter-spacing:-0.40216666px;word-spacing:0.08853479px;writing-mode:lr-tb;fill:#0000ff;stroke:none;stroke-width:0;stroke-miterlimit:4;stroke-dasharray:none;stroke-opacity:1"
       id="path905"
       inkscape:connector-curvature="0" />
    <path
       d="m -68.346332,88.396414 q 0.121857,0 0.337876,-0.06093 v 0.232637 q -0.07755,0.07201 -0.182785,0.144013 -0.10524,0.06647 -0.227098,0.121857 -0.116318,0.04985 -0.243714,0.07755 -0.127396,0.03323 -0.249253,0.03323 -0.132935,0 -0.227097,-0.03877 -0.09416,-0.03877 -0.166169,-0.09416 -0.06647,-0.06093 -0.116318,-0.138474 -0.04431,-0.07755 -0.07755,-0.149552 -0.121857,0.08308 -0.243714,0.166169 -0.116318,0.07755 -0.249253,0.138474 -0.127396,0.06093 -0.271409,0.0997 -0.144013,0.03877 -0.32126,0.03877 -0.398805,0 -0.631441,-0.249253 -0.227098,-0.249254 -0.227098,-0.753299 0,-0.26587 0.06647,-0.465273 0.07201,-0.199402 0.221558,-0.326798 0.155091,-0.132935 0.393266,-0.199403 0.243715,-0.07201 0.592669,-0.08308 l 0.58713,-0.01662 v -0.492968 q 0,-0.199402 -0.110779,-0.293564 -0.105241,-0.09416 -0.365572,-0.09416 -0.182785,0 -0.4265,0.04431 -0.238175,0.04431 -0.504045,0.149552 l -0.132935,-0.354494 q 0.177247,-0.07755 0.365571,-0.149551 0.193864,-0.07755 0.387728,-0.132936 0.199402,-0.06093 0.398805,-0.09416 0.204941,-0.03877 0.404344,-0.03877 0.227097,0 0.404344,0.04431 0.177247,0.03877 0.293565,0.138474 0.121857,0.0997 0.182785,0.26587 0.06647,0.166169 0.06647,0.409883 v 1.573065 q 0,0.548357 0.271409,0.548357 z m -1.196415,-0.16063 q -0.0055,-0.02216 -0.01108,-0.110779 -0.0055,-0.09416 -0.01108,-0.232636 -0.0055,-0.144013 -0.01108,-0.32126 0,-0.182786 0,-0.382188 -0.360033,0 -0.542818,0.04431 -0.182786,0.03877 -0.227098,0.0997 -0.02216,0.02216 -0.03877,0.08308 -0.01108,0.06093 -0.02216,0.138474 -0.0055,0.07201 -0.01108,0.155091 0,0.07755 0,0.144013 0,0.232636 0.06093,0.376649 0.06647,0.144013 0.21602,0.144013 0.16063,0 0.304643,-0.03877 0.149552,-0.03877 0.293565,-0.0997 z"
       style="line-height:1;letter-spacing:-0.40216666px;word-spacing:0.08853479px;writing-mode:lr-tb;fill:#0000ff;stroke:none;stroke-width:0;stroke-miterlimit:4;stroke-dasharray:none;stroke-opacity:1"
       id="path907"
       inkscape:connector-curvature="0" />
    <path
       d="m -66.887408,88.900459 h -0.969318 V 83.30611 l 0.969318,-0.199403 z"
       style="line-height:1;letter-spacing:-0.40216666px;word-spacing:0.08853479px;writing-mode:lr-tb;fill:#0000ff;stroke:none;stroke-width:0;stroke-miterlimit:4;stroke-dasharray:none;stroke-opacity:1"
       id="path909"
       inkscape:connector-curvature="0" />
    <path
       d="m -62.103019,87.40494 q 0,0.276948 -0.132935,0.559435 -0.132935,0.276948 -0.382188,0.504045 -0.249253,0.221559 -0.603747,0.365572 -0.348954,0.138474 -0.786532,0.138474 -0.232636,0 -0.432039,-0.02769 -0.199402,-0.0277 -0.376649,-0.07201 -0.171708,-0.04985 -0.332338,-0.116318 -0.16063,-0.07201 -0.321259,-0.155091 l 0.243714,-0.758837 q 0.10524,0.07201 0.276948,0.155091 0.177246,0.08308 0.382188,0.155091 0.204942,0.07201 0.409883,0.121857 0.210481,0.04431 0.382188,0.04431 0.193864,0 0.315721,-0.02215 0.127396,-0.02769 0.227097,-0.07201 0.11078,-0.04431 0.177247,-0.221558 0.06647,-0.177247 0.06647,-0.459734 0,-0.260331 -0.171708,-0.415422 -0.171708,-0.155091 -0.432039,-0.26587 -0.254792,-0.116318 -0.553896,-0.227097 -0.299104,-0.116319 -0.559435,-0.293565 -0.254792,-0.182786 -0.4265,-0.465273 -0.171708,-0.282487 -0.171708,-0.742221 0,-0.221558 0.116318,-0.465272 0.116319,-0.249253 0.337877,-0.454195 0.221558,-0.21048 0.548357,-0.343415 0.326799,-0.132935 0.742221,-0.132935 0.332337,0 0.63698,0.03323 0.310182,0.03323 0.598208,0.08862 l -0.155091,0.758837 q -0.132935,-0.04985 -0.304643,-0.09416 -0.166169,-0.04431 -0.343415,-0.07755 -0.171708,-0.03323 -0.337877,-0.04985 -0.166169,-0.02216 -0.293565,-0.02216 -0.144013,0 -0.26587,0.01662 -0.121857,0.01108 -0.221558,0.07201 -0.09416,0.05539 -0.138474,0.193864 -0.03877,0.132935 -0.03877,0.32126 0,0.193863 0.0997,0.321259 0.0997,0.127396 0.260331,0.227098 0.166169,0.09416 0.371111,0.177246 0.21048,0.07755 0.4265,0.171708 0.221558,0.08862 0.4265,0.210481 0.21048,0.116318 0.37111,0.293564 0.166169,0.171708 0.26587,0.420961 0.0997,0.249254 0.0997,0.603747 z"
       style="line-height:1;letter-spacing:-0.40216666px;word-spacing:0.08853479px;writing-mode:lr-tb;fill:#0000ff;stroke:none;stroke-width:0;stroke-miterlimit:4;stroke-dasharray:none;stroke-opacity:1"
       id="path911"
       inkscape:connector-curvature="0" />
    <path
       d="m -61.696497,85.959272 -0.365571,-0.121858 v -0.204941 l 1.046863,-0.742221 h 0.26587 l 0.01108,0.598208 h 1.035786 l -0.04431,0.376649 q -0.116318,0.02216 -0.288026,0.03877 -0.166169,0.01662 -0.32126,0.0277 -0.182785,0.01662 -0.376649,0.03323 v 1.916481 q 0,0.182785 0.06647,0.310181 0.06647,0.121858 0.276948,0.121858 0.05539,0 0.149552,-0.0055 0.09416,-0.0055 0.193863,-0.01662 0.10524,-0.01108 0.199403,-0.02216 0.0997,-0.01662 0.166169,-0.0277 v 0.282487 q -0.121858,0.07755 -0.282487,0.16063 -0.16063,0.07755 -0.343416,0.144013 -0.177247,0.06093 -0.360032,0.0997 -0.182786,0.03877 -0.348955,0.03877 -0.127396,0 -0.249253,-0.02769 -0.121857,-0.02216 -0.221558,-0.09416 -0.09416,-0.07201 -0.155091,-0.199403 -0.05539,-0.132935 -0.05539,-0.343415 z"
       style="line-height:1;letter-spacing:-0.40216666px;word-spacing:0.08853479px;writing-mode:lr-tb;fill:#0000ff;stroke:none;stroke-width:0;stroke-miterlimit:4;stroke-dasharray:none;stroke-opacity:1"
       id="path913"
       inkscape:connector-curvature="0" />
    <path
       d="m -58.459567,85.48846 v 2.28759 q 0,0.304643 0.09416,0.454195 0.0997,0.144013 0.332337,0.144013 0.08309,0 0.182786,-0.02216 0.0997,-0.0277 0.204942,-0.06647 0.10524,-0.04431 0.199402,-0.09416 0.0997,-0.05539 0.182786,-0.116318 v -2.58669 h 0.974857 v 3.411999 h -0.869617 l -0.08862,-0.398805 h -0.01108 q -0.0997,0.06647 -0.243714,0.149552 -0.138474,0.07755 -0.304643,0.155091 -0.16063,0.07201 -0.343416,0.121857 -0.177247,0.04985 -0.348954,0.04985 -0.193864,0 -0.365572,-0.06647 -0.166168,-0.06093 -0.293565,-0.182785 -0.127396,-0.127397 -0.204941,-0.315721 -0.07201,-0.193864 -0.07201,-0.443117 V 85.48846 Z"
       style="line-height:1;letter-spacing:-0.40216666px;word-spacing:0.08853479px;writing-mode:lr-tb;fill:#0000ff;stroke:none;stroke-width:0;stroke-miterlimit:4;stroke-dasharray:none;stroke-opacity:1"
       id="path915"
       inkscape:connector-curvature="0" />
    <path
       d="m -53.527716,85.482921 q 0,-0.07755 -0.0055,-0.149552 -0.0055,-0.06093 -0.0055,-0.121857 0,-0.06647 0,-0.110779 V 83.30611 l 0.969318,-0.199403 v 5.793752 h -0.659136 L -53.500021,88.5792 h -0.01662 q -0.199403,0.144013 -0.432039,0.26587 -0.227097,0.121857 -0.526201,0.121857 -0.26587,0 -0.515123,-0.08862 -0.243715,-0.09416 -0.432039,-0.293564 -0.188325,-0.199403 -0.304643,-0.520663 -0.110779,-0.321259 -0.110779,-0.780993 0,-0.437578 0.110779,-0.780993 0.110779,-0.348955 0.32126,-0.58713 0.21048,-0.238175 0.509584,-0.365572 0.299104,-0.127396 0.675753,-0.127396 0.155091,0 0.332338,0.01662 0.182785,0.01662 0.360032,0.04431 z m -1.307195,1.744772 q 0,0.58713 0.193864,0.864078 0.193864,0.271409 0.515123,0.271409 0.16063,0 0.310182,-0.04431 0.155091,-0.04431 0.271409,-0.10524 v -2.226662 q -0.221558,-0.04985 -0.443117,-0.04985 -0.204941,0 -0.360032,0.03323 -0.155091,0.03323 -0.243714,0.11078 -0.08309,0.08308 -0.166169,0.37111 -0.07755,0.288026 -0.07755,0.775454 z"
       style="line-height:1;letter-spacing:-0.40216666px;word-spacing:0.08853479px;writing-mode:lr-tb;fill:#0000ff;stroke:none;stroke-width:0;stroke-miterlimit:4;stroke-dasharray:none;stroke-opacity:1"
       id="path917"
       inkscape:connector-curvature="0" />
    <path
       d="m -50.440335,85.416453 q 0.243714,0 0.470812,0.07201 0.232636,0.06647 0.4265,0.232636 0.193863,0.16063 0.332337,0.437578 0.144013,0.271409 0.21602,0.681292 v 0.04431 q -0.04431,0.06093 -0.121857,0.110779 -0.07201,0.04985 -0.193864,0.08862 -0.121857,0.03323 -0.299104,0.06647 -0.177247,0.02769 -0.4265,0.04431 l -1.074558,0.08308 v 0.144013 q 0,0.398805 0.21048,0.659136 0.210481,0.260331 0.631442,0.260331 0.171708,0 0.360032,-0.03323 0.188325,-0.03877 0.354494,-0.08862 0.171707,-0.04985 0.310181,-0.0997 0.144013,-0.05539 0.21602,-0.09416 l 0.08308,0.249253 q -0.155091,0.116318 -0.348954,0.243714 -0.193864,0.121857 -0.415422,0.221558 -0.221559,0.0997 -0.470812,0.16063 -0.243714,0.06647 -0.504045,0.06647 -0.304643,0 -0.570513,-0.08862 -0.260331,-0.09416 -0.454195,-0.293564 -0.188324,-0.199403 -0.299104,-0.520663 -0.110779,-0.321259 -0.110779,-0.780993 0,-0.515123 0.127396,-0.869617 0.127396,-0.360032 0.354494,-0.576052 0.227097,-0.221558 0.53174,-0.321259 0.310182,-0.0997 0.664675,-0.0997 z m -0.459734,0.576052 q -0.03877,0.03323 -0.07755,0.127396 -0.03323,0.08862 -0.06093,0.21602 -0.02769,0.121857 -0.04431,0.260331 -0.01662,0.132935 -0.01662,0.260331 l 1.069019,-0.04985 q -0.01662,-0.149552 -0.04985,-0.310181 -0.03323,-0.16063 -0.0997,-0.293565 -0.06093,-0.132935 -0.155091,-0.221559 -0.09416,-0.08862 -0.227097,-0.08862 -0.09416,0 -0.177247,0.02216 -0.08308,0.02216 -0.16063,0.07755 z"
       style="line-height:1;letter-spacing:-0.40216666px;word-spacing:0.08853479px;writing-mode:lr-tb;fill:#0000ff;stroke:none;stroke-width:0;stroke-miterlimit:4;stroke-dasharray:none;stroke-opacity:1"
       id="path919"
       inkscape:connector-curvature="0" />
    <path
       d="m -46.367025,88.900459 v -2.28759 q 0,-0.304643 -0.0997,-0.448656 -0.09416,-0.144013 -0.326798,-0.144013 -0.08308,0 -0.188325,0.02216 -0.0997,0.02216 -0.204941,0.06647 -0.0997,0.03877 -0.199403,0.09416 -0.0997,0.04985 -0.182786,0.110779 v 2.586694 h -0.969318 V 85.48846 h 0.864078 l 0.08862,0.398805 h 0.01108 q 0.0997,-0.06647 0.238176,-0.144013 0.144013,-0.08308 0.310181,-0.155091 0.166169,-0.07201 0.343416,-0.121857 0.177247,-0.04985 0.348954,-0.04985 0.193864,0 0.360033,0.06647 0.171708,0.06093 0.299104,0.188325 0.127396,0.121857 0.199402,0.310181 0.07755,0.188325 0.07755,0.443117 v 2.475915 z"
       style="line-height:1;letter-spacing:-0.40216666px;word-spacing:0.08853479px;writing-mode:lr-tb;fill:#0000ff;stroke:none;stroke-width:0;stroke-miterlimit:4;stroke-dasharray:none;stroke-opacity:1"
       id="path921"
       inkscape:connector-curvature="0" />
    <path
       d="m -44.697618,85.959272 -0.365572,-0.121858 v -0.204941 l 1.046864,-0.742221 h 0.26587 l 0.01108,0.598208 h 1.035785 l -0.04431,0.376649 q -0.116319,0.02216 -0.288026,0.03877 -0.166169,0.01662 -0.32126,0.0277 -0.182786,0.01662 -0.376649,0.03323 v 1.916481 q 0,0.182785 0.06647,0.310181 0.06647,0.121858 0.276948,0.121858 0.05539,0 0.149552,-0.0055 0.09416,-0.0055 0.193864,-0.01662 0.10524,-0.01108 0.199402,-0.02216 0.0997,-0.01662 0.166169,-0.0277 v 0.282487 q -0.121857,0.07755 -0.282487,0.16063 -0.16063,0.07755 -0.343415,0.144013 -0.177247,0.06093 -0.360033,0.0997 -0.182785,0.03877 -0.348954,0.03877 -0.127396,0 -0.249253,-0.02769 -0.121858,-0.02216 -0.221559,-0.09416 -0.09416,-0.07201 -0.155091,-0.199403 -0.05539,-0.132935 -0.05539,-0.343415 z"
       style="line-height:1;letter-spacing:-0.40216666px;word-spacing:0.08853479px;writing-mode:lr-tb;fill:#0000ff;stroke:none;stroke-width:0;stroke-miterlimit:4;stroke-dasharray:none;stroke-opacity:1"
       id="path923"
       inkscape:connector-curvature="0" />
    <path
       d="m -100.30239,100.24425 h -2.91903 v -5.106922 h 2.81933 l -0.0498,0.520662 -1.78354,0.02216 v 1.661688 l 1.6783,0.02216 -0.0443,0.470812 -1.63399,0.03877 v 1.827857 l 1.97741,0.03877 z"
       style="line-height:1;letter-spacing:-0.40216666px;word-spacing:0.08853479px;writing-mode:lr-tb;fill:#0000ff;stroke:none;stroke-width:0;stroke-miterlimit:4;stroke-dasharray:none;stroke-opacity:1"
       id="path925"
       inkscape:connector-curvature="0" />
    <path
       d="m -98.134475,98.233607 q 0.182785,0.343415 0.354493,0.642519 0.171708,0.293565 0.326799,0.515124 0.160629,0.221558 0.299103,0.348954 0.144013,0.121857 0.265871,0.121857 0.05539,0 0.07755,0 0.0277,-0.0055 0.06647,-0.01662 v 0.348959 q -0.04431,0.0166 -0.121857,0.0332 -0.07755,0.0111 -0.166168,0.0222 -0.08862,0.0111 -0.182786,0.0166 -0.09416,0.006 -0.166169,0.006 -0.204941,0 -0.37111,-0.0665 -0.16063,-0.072 -0.315721,-0.221565 -0.149552,-0.155091 -0.304643,-0.398805 -0.155091,-0.243714 -0.343415,-0.592669 -0.16063,0.260332 -0.299104,0.498507 -0.132935,0.232636 -0.276948,0.409883 -0.138474,0.171709 -0.304643,0.276949 -0.16063,0.0997 -0.37111,0.0997 -0.08862,0 -0.227097,-0.0166 -0.13293,-0.0166 -0.20494,-0.0498 v -0.354501 h 0.0443 q 0.18833,0 0.34342,-0.06093 0.155086,-0.06647 0.310177,-0.21602 0.16063,-0.149552 0.337876,-0.398805 0.177247,-0.249253 0.404344,-0.620363 -0.182785,-0.348955 -0.326798,-0.603747 -0.144013,-0.254792 -0.26587,-0.420961 -0.116318,-0.166169 -0.227098,-0.243714 -0.110779,-0.08308 -0.232631,-0.08308 h -0.0886 v -0.348954 q 0.0554,-0.01108 0.144015,-0.02216 0.08862,-0.01662 0.182785,-0.02216 0.09416,-0.01108 0.171708,-0.01662 0.08308,-0.0055 0.127396,-0.0055 0.182786,0 0.315721,0.04985 0.138474,0.04431 0.254792,0.16063 0.121857,0.116318 0.243714,0.310182 0.121857,0.193863 0.282487,0.487428 0.155091,-0.260331 0.282487,-0.448656 0.127396,-0.193863 0.238176,-0.31572 0.110779,-0.127397 0.221558,-0.182786 0.110779,-0.06093 0.243714,-0.06093 0.08862,0 0.21602,0.02216 0.127396,0.01662 0.21048,0.04985 v 0.360032 h -0.121857 q -0.127396,0 -0.243714,0.05539 -0.116318,0.04985 -0.243715,0.171708 -0.121857,0.121857 -0.260331,0.31572 -0.132935,0.188325 -0.299103,0.465273 z"
       style="line-height:1;letter-spacing:-0.40216666px;word-spacing:0.08853479px;writing-mode:lr-tb;fill:#0000ff;stroke:none;stroke-width:0;stroke-miterlimit:4;stroke-dasharray:none;stroke-opacity:1"
       id="path927"
       inkscape:connector-curvature="0" />
    <path
       d="m -95.51237,97.125815 q 0.204941,-0.149552 0.420961,-0.254792 0.221558,-0.110779 0.520662,-0.110779 0.26587,0 0.509584,0.09416 0.249254,0.08862 0.437578,0.288026 0.193864,0.199402 0.304643,0.520662 0.116318,0.315721 0.116318,0.775454 0,0.443117 -0.127396,0.792072 -0.121857,0.343415 -0.354493,0.587129 -0.227098,0.238173 -0.559435,0.365573 -0.326799,0.1274 -0.742221,0.1274 -0.138474,0 -0.282487,-0.0222 -0.144013,-0.0166 -0.243714,-0.0443 0,0.0499 0.0055,0.17171 0.0055,0.12185 0.0055,0.24925 v 1.75585 l -0.969318,0.16063 v -5.649741 l 0.858539,-0.149552 z m 1.296117,1.351506 q 0,-0.570513 -0.188325,-0.841922 -0.182786,-0.271409 -0.498506,-0.271409 -0.16063,0 -0.310182,0.03323 -0.144013,0.03323 -0.288026,0.09416 v 2.243279 q 0.110779,0.02769 0.216019,0.03877 0.11078,0.01108 0.232637,0.01108 0.182785,0 0.343415,-0.03323 0.16063,-0.03323 0.238175,-0.110779 0.08862,-0.08862 0.171708,-0.387727 0.08309,-0.304643 0.08309,-0.775455 z"
       style="line-height:1;letter-spacing:-0.40216666px;word-spacing:0.08853479px;writing-mode:lr-tb;fill:#0000ff;stroke:none;stroke-width:0;stroke-miterlimit:4;stroke-dasharray:none;stroke-opacity:1"
       id="path929"
       inkscape:connector-curvature="0" />
    <path
       d="m -91.31166,96.760244 q 0.243714,0 0.470811,0.07201 0.232636,0.06647 0.4265,0.232636 0.193864,0.16063 0.332338,0.437578 0.144013,0.271409 0.216019,0.681292 v 0.04431 q -0.04431,0.06093 -0.121857,0.110779 -0.07201,0.04985 -0.193864,0.08862 -0.121857,0.03323 -0.299103,0.06647 -0.177247,0.02769 -0.4265,0.04431 l -1.074559,0.08308 v 0.144013 q 0,0.398805 0.210481,0.659136 0.21048,0.260331 0.631441,0.260331 0.171708,0 0.360033,-0.03323 0.188324,-0.03877 0.354493,-0.08862 0.171708,-0.04985 0.310182,-0.0997 0.144013,-0.05539 0.216019,-0.09416 l 0.08308,0.249253 q -0.155091,0.116318 -0.348955,0.243714 -0.193863,0.121857 -0.415422,0.221554 -0.221558,0.0997 -0.470811,0.16063 -0.243715,0.0665 -0.504046,0.0665 -0.304642,0 -0.570513,-0.0886 -0.260331,-0.0942 -0.454194,-0.293556 -0.188325,-0.199403 -0.299104,-0.520663 -0.110779,-0.321259 -0.110779,-0.780993 0,-0.515123 0.127396,-0.869617 0.127396,-0.360032 0.354493,-0.576052 0.227098,-0.221558 0.53174,-0.321259 0.310182,-0.0997 0.664676,-0.0997 z m -0.459734,0.576051 q -0.03877,0.03323 -0.07755,0.127396 -0.03323,0.08862 -0.06093,0.21602 -0.02769,0.121857 -0.04431,0.260331 -0.01662,0.132935 -0.01662,0.260331 l 1.06902,-0.04985 q -0.01662,-0.149551 -0.04985,-0.310181 -0.03323,-0.16063 -0.0997,-0.293565 -0.06093,-0.132935 -0.155091,-0.221559 -0.09416,-0.08862 -0.227098,-0.08862 -0.09416,0 -0.177246,0.02216 -0.08308,0.02216 -0.16063,0.07755 z"
       style="line-height:1;letter-spacing:-0.40216666px;word-spacing:0.08853479px;writing-mode:lr-tb;fill:#0000ff;stroke:none;stroke-width:0;stroke-miterlimit:4;stroke-dasharray:none;stroke-opacity:1"
       id="path931"
       inkscape:connector-curvature="0" />
    <path
       d="m -87.437751,97.602165 q -0.110779,-0.03877 -0.238175,-0.06093 -0.127396,-0.02769 -0.243714,-0.02769 -0.08308,0 -0.149552,0.01662 -0.06647,0.01108 -0.127396,0.04431 -0.05539,0.03323 -0.116318,0.08862 -0.05539,0.05539 -0.127396,0.132935 v 2.44822 h -0.969318 v -3.411999 h 0.869616 l 0.08308,0.542818 h 0.0055 q 0.03877,-0.06093 0.09416,-0.138474 0.05539,-0.08308 0.116318,-0.16063 0.06647,-0.08308 0.132935,-0.149552 0.07201,-0.06647 0.144013,-0.09416 0.127396,-0.04431 0.288026,-0.05539 0.16063,-0.01662 0.348955,-0.01662 z"
       style="line-height:1;letter-spacing:-0.40216666px;word-spacing:0.08853479px;writing-mode:lr-tb;fill:#0000ff;stroke:none;stroke-width:0;stroke-miterlimit:4;stroke-dasharray:none;stroke-opacity:1"
       id="path933"
       inkscape:connector-curvature="0" />
    <path
       d="m -87.07554,97.303062 -0.365572,-0.121858 v -0.204941 l 1.046864,-0.742221 h 0.26587 l 0.01108,0.598208 h 1.035785 l -0.04431,0.376649 q -0.116319,0.02216 -0.288026,0.03877 -0.166169,0.01662 -0.32126,0.0277 -0.182786,0.01662 -0.376649,0.03323 v 1.91648 q 0,0.182785 0.06647,0.310181 0.06647,0.121858 0.276948,0.121858 0.05539,0 0.149552,-0.0055 0.09416,-0.0055 0.193864,-0.01662 0.10524,-0.01108 0.199402,-0.02216 0.0997,-0.01662 0.166169,-0.02769 V 99.8676 q -0.121857,0.07755 -0.282487,0.16063 -0.16063,0.0776 -0.343415,0.14401 -0.177247,0.0609 -0.360033,0.0997 -0.182786,0.0388 -0.348954,0.0388 -0.127396,0 -0.249254,-0.0277 -0.121857,-0.0221 -0.221558,-0.0942 -0.09416,-0.072 -0.155091,-0.199403 -0.05539,-0.132935 -0.05539,-0.343415 z"
       style="line-height:1;letter-spacing:-0.40216666px;word-spacing:0.08853479px;writing-mode:lr-tb;fill:#0000ff;stroke:none;stroke-width:0;stroke-miterlimit:4;stroke-dasharray:none;stroke-opacity:1"
       id="path935"
       inkscape:connector-curvature="0" />
    <path
       d="m -82.481565,99.11984 q 0,0.288026 -0.121857,0.476351 -0.116318,0.182786 -0.276948,0.32126 -0.08308,0.07201 -0.177247,0.144009 -0.09416,0.072 -0.21048,0.1274 -0.116318,0.0554 -0.26587,0.0886 -0.149552,0.0332 -0.348955,0.0332 -0.360032,0 -0.659136,-0.072 -0.293565,-0.0776 -0.553896,-0.243714 l 0.238175,-0.63698 q 0.110779,0.06647 0.232637,0.149552 0.127396,0.08308 0.26587,0.155091 0.144013,0.06647 0.299103,0.116318 0.155091,0.04431 0.315721,0.04431 0.110779,0 0.199403,-0.01662 0.09416,-0.01662 0.155091,-0.06093 0.04985,-0.03877 0.07201,-0.138474 0.02769,-0.10524 0.02769,-0.249253 0,-0.166169 -0.127396,-0.260331 -0.121857,-0.0997 -0.310182,-0.171708 -0.188325,-0.07201 -0.404344,-0.144013 -0.216019,-0.07201 -0.404344,-0.188325 -0.188325,-0.121857 -0.315721,-0.304643 -0.121857,-0.188324 -0.121857,-0.492967 0,-0.199403 0.121857,-0.393266 0.121857,-0.199403 0.26587,-0.326799 0.177247,-0.16063 0.393266,-0.238175 0.21602,-0.07755 0.498507,-0.07755 0.238175,0 0.504045,0.02769 0.26587,0.0277 0.498507,0.06093 l -0.105241,0.675753 q -0.116318,-0.03877 -0.254792,-0.07755 -0.132935,-0.03877 -0.26587,-0.07201 -0.132935,-0.03323 -0.260331,-0.04985 -0.121857,-0.02215 -0.221558,-0.02215 -0.127396,0 -0.193864,0.01662 -0.06647,0.01108 -0.10524,0.03323 -0.03323,0.02216 -0.05539,0.09416 -0.01662,0.07201 -0.01662,0.149551 0,0.155091 0.121857,0.243715 0.127396,0.08862 0.315721,0.16063 0.188325,0.06647 0.404344,0.144013 0.221559,0.07201 0.409883,0.188324 0.188325,0.116318 0.310182,0.304643 0.127396,0.182786 0.127396,0.481889 z"
       style="line-height:1;letter-spacing:-0.40216666px;word-spacing:0.08853479px;writing-mode:lr-tb;fill:#0000ff;stroke:none;stroke-width:0;stroke-miterlimit:4;stroke-dasharray:none;stroke-opacity:1"
       id="path937"
       inkscape:connector-curvature="0" />
    <path
       d="m -79.96815,100.24425 h -0.969318 v -3.412 h 0.969318 z m -0.504045,-5.345097 0.614825,0.63698 -0.614825,0.64252 -0.609286,-0.64252 z"
       style="line-height:1;letter-spacing:-0.40216666px;word-spacing:0.08853479px;writing-mode:lr-tb;fill:#0000ff;stroke:none;stroke-width:0;stroke-miterlimit:4;stroke-dasharray:none;stroke-opacity:1"
       id="path939"
       inkscape:connector-curvature="0" />
    <path
       d="m -77.10787,100.24425 v -2.287591 q 0,-0.304643 -0.0997,-0.448656 -0.09416,-0.144013 -0.326799,-0.144013 -0.08308,0 -0.188325,0.02216 -0.0997,0.02216 -0.204941,0.06647 -0.0997,0.03877 -0.199403,0.09416 -0.0997,0.04985 -0.182785,0.110779 v 2.586691 h -0.969318 v -3.411996 h 0.864077 l 0.08862,0.398805 h 0.01108 q 0.0997,-0.06647 0.238175,-0.144013 0.144013,-0.08308 0.310182,-0.155091 0.166169,-0.07201 0.343415,-0.121857 0.177247,-0.04985 0.348955,-0.04985 0.193863,0 0.360032,0.06647 0.171708,0.06093 0.299104,0.188325 0.127396,0.121857 0.199403,0.310181 0.07755,0.188325 0.07755,0.443117 v 2.475919 z"
       style="line-height:1;letter-spacing:-0.40216666px;word-spacing:0.08853479px;writing-mode:lr-tb;fill:#0000ff;stroke:none;stroke-width:0;stroke-miterlimit:4;stroke-dasharray:none;stroke-opacity:1"
       id="path941"
       inkscape:connector-curvature="0" />
    <path
       d="m -72.356715,100.31626 q -0.570513,0 -0.969318,-0.19387 -0.398805,-0.193861 -0.648058,-0.542816 -0.249253,-0.348954 -0.365572,-0.836383 -0.110779,-0.492967 -0.110779,-1.091175 0,-0.481889 0.110779,-0.858539 0.11078,-0.382188 0.299104,-0.664675 0.193864,-0.288026 0.443117,-0.487428 0.254792,-0.199403 0.53174,-0.32126 0.282487,-0.127396 0.576052,-0.182786 0.293565,-0.05539 0.570513,-0.05539 0.171708,0 0.360032,0.01108 0.193864,0.01108 0.371111,0.03323 0.182785,0.01662 0.337876,0.04431 0.155091,0.02216 0.254792,0.04431 l -0.182785,0.725603 q -0.0997,-0.03323 -0.282487,-0.06647 -0.182786,-0.03877 -0.393266,-0.07201 -0.204942,-0.03323 -0.409883,-0.05539 -0.199403,-0.02216 -0.332338,-0.02216 -0.149552,0 -0.26587,0.01108 -0.116318,0.0055 -0.21602,0.03323 -0.09416,0.02216 -0.182785,0.06647 -0.08308,0.04431 -0.171708,0.110779 -0.227097,0.16063 -0.310182,0.609286 -0.07755,0.448656 -0.07755,1.11887 0,1.030246 0.304643,1.561987 0.304642,0.526201 0.980395,0.526201 0.382189,0 0.797611,-0.06093 0.415422,-0.06647 0.753298,-0.182785 v 0.4265 q -0.188324,0.08862 -0.409883,0.160631 -0.216019,0.0665 -0.448656,0.11631 -0.227097,0.0443 -0.465272,0.0665 -0.232636,0.0277 -0.448656,0.0277 z"
       style="line-height:1;letter-spacing:-0.40216666px;word-spacing:0.08853479px;writing-mode:lr-tb;fill:#0000ff;stroke:none;stroke-width:0;stroke-miterlimit:4;stroke-dasharray:none;stroke-opacity:1"
       id="path943"
       inkscape:connector-curvature="0" />
    <path
       d="m -67.308544,99.740204 q 0.121857,0 0.337877,-0.06093 v 0.232637 q -0.07755,0.07201 -0.182786,0.144009 -0.10524,0.0665 -0.227097,0.12186 -0.116318,0.0499 -0.243714,0.0776 -0.127396,0.0332 -0.249254,0.0332 -0.132935,0 -0.227097,-0.0388 -0.09416,-0.0388 -0.166169,-0.0942 -0.06647,-0.0609 -0.116318,-0.13848 -0.04431,-0.07754 -0.07755,-0.149551 -0.121857,0.08308 -0.243715,0.166171 -0.116318,0.0775 -0.249253,0.13847 -0.127396,0.0609 -0.271409,0.0997 -0.144013,0.0388 -0.32126,0.0388 -0.398805,0 -0.631441,-0.24926 -0.227097,-0.249251 -0.227097,-0.753296 0,-0.26587 0.06647,-0.465273 0.07201,-0.199402 0.221559,-0.326798 0.15509,-0.132935 0.393266,-0.199403 0.243714,-0.07201 0.592668,-0.08308 l 0.58713,-0.01662 v -0.492967 q 0,-0.199403 -0.110779,-0.293565 -0.10524,-0.09416 -0.365571,-0.09416 -0.182786,0 -0.4265,0.04431 -0.238176,0.04431 -0.504046,0.149552 l -0.132935,-0.354493 q 0.177247,-0.07755 0.365572,-0.149552 0.193863,-0.07755 0.387727,-0.132935 0.199402,-0.06093 0.398805,-0.09416 0.204942,-0.03877 0.404344,-0.03877 0.227097,0 0.404344,0.04431 0.177247,0.03877 0.293565,0.138474 0.121857,0.0997 0.182786,0.26587 0.06647,0.166169 0.06647,0.409883 v 1.573065 q 0,0.548357 0.271409,0.548357 z m -1.196415,-0.16063 q -0.0055,-0.02216 -0.01108,-0.110779 -0.0055,-0.09416 -0.01108,-0.232636 -0.0055,-0.144013 -0.01108,-0.32126 0,-0.182786 0,-0.382188 -0.360032,0 -0.542818,0.04431 -0.182786,0.03877 -0.227097,0.0997 -0.02216,0.02216 -0.03877,0.08308 -0.01108,0.06093 -0.02216,0.138474 -0.0055,0.07201 -0.01108,0.155091 0,0.07755 0,0.144013 0,0.232636 0.06093,0.376649 0.06647,0.144013 0.216019,0.144013 0.16063,0 0.304643,-0.03877 0.149552,-0.03877 0.293565,-0.0997 z"
       style="line-height:1;letter-spacing:-0.40216666px;word-spacing:0.08853479px;writing-mode:lr-tb;fill:#0000ff;stroke:none;stroke-width:0;stroke-miterlimit:4;stroke-dasharray:none;stroke-opacity:1"
       id="path945"
       inkscape:connector-curvature="0" />
    <path
       d="m -64.647665,100.24425 v -2.287591 q 0,-0.304643 -0.0997,-0.448656 -0.09416,-0.144013 -0.326799,-0.144013 -0.08308,0 -0.188325,0.02216 -0.0997,0.02216 -0.204941,0.06647 -0.0997,0.03877 -0.199403,0.09416 -0.0997,0.04985 -0.182785,0.110779 v 2.586691 h -0.969318 v -3.411996 h 0.864077 l 0.08862,0.398805 h 0.01108 q 0.0997,-0.06647 0.238175,-0.144013 0.144013,-0.08308 0.310182,-0.155091 0.166169,-0.07201 0.343415,-0.121857 0.177247,-0.04985 0.348955,-0.04985 0.193863,0 0.360032,0.06647 0.171708,0.06093 0.299104,0.188325 0.127396,0.121857 0.199403,0.310181 0.07755,0.188325 0.07755,0.443117 v 2.475919 z"
       style="line-height:1;letter-spacing:-0.40216666px;word-spacing:0.08853479px;writing-mode:lr-tb;fill:#0000ff;stroke:none;stroke-width:0;stroke-miterlimit:4;stroke-dasharray:none;stroke-opacity:1"
       id="path947"
       inkscape:connector-curvature="0" />
    <path
       d="m -60.181087,99.740204 q 0.121857,0 0.337877,-0.06093 v 0.232637 q -0.07755,0.07201 -0.182786,0.144009 -0.10524,0.0665 -0.227097,0.12186 -0.116319,0.0499 -0.243715,0.0776 -0.127396,0.0332 -0.249253,0.0332 -0.132935,0 -0.227097,-0.0388 -0.09416,-0.0388 -0.166169,-0.0942 -0.06647,-0.0609 -0.116318,-0.13848 -0.04431,-0.07754 -0.07755,-0.149551 -0.121857,0.08308 -0.243714,0.166171 -0.116318,0.0775 -0.249253,0.13847 -0.127396,0.0609 -0.271409,0.0997 -0.144013,0.0388 -0.32126,0.0388 -0.398805,0 -0.631441,-0.24926 -0.227098,-0.249251 -0.227098,-0.753296 0,-0.26587 0.06647,-0.465273 0.07201,-0.199402 0.221558,-0.326798 0.155091,-0.132935 0.393266,-0.199403 0.243715,-0.07201 0.592669,-0.08308 l 0.58713,-0.01662 v -0.492967 q 0,-0.199403 -0.110779,-0.293565 -0.105241,-0.09416 -0.365572,-0.09416 -0.182785,0 -0.4265,0.04431 -0.238175,0.04431 -0.504045,0.149552 l -0.132935,-0.354493 q 0.177247,-0.07755 0.365571,-0.149552 0.193864,-0.07755 0.387728,-0.132935 0.199402,-0.06093 0.398805,-0.09416 0.204941,-0.03877 0.404344,-0.03877 0.227097,0 0.404344,0.04431 0.177247,0.03877 0.293565,0.138474 0.121857,0.0997 0.182785,0.26587 0.06647,0.166169 0.06647,0.409883 v 1.573065 q 0,0.548357 0.271409,0.548357 z m -1.196415,-0.16063 q -0.0055,-0.02216 -0.01108,-0.110779 -0.0055,-0.09416 -0.01108,-0.232636 -0.0055,-0.144013 -0.01108,-0.32126 0,-0.182786 0,-0.382188 -0.360033,0 -0.542818,0.04431 -0.182786,0.03877 -0.227098,0.0997 -0.02215,0.02216 -0.03877,0.08308 -0.01108,0.06093 -0.02216,0.138474 -0.0055,0.07201 -0.01108,0.155091 0,0.07755 0,0.144013 0,0.232636 0.06093,0.376649 0.06647,0.144013 0.216019,0.144013 0.16063,0 0.304643,-0.03877 0.149552,-0.03877 0.293565,-0.0997 z"
       style="line-height:1;letter-spacing:-0.40216666px;word-spacing:0.08853479px;writing-mode:lr-tb;fill:#0000ff;stroke:none;stroke-width:0;stroke-miterlimit:4;stroke-dasharray:none;stroke-opacity:1"
       id="path949"
       inkscape:connector-curvature="0" />
    <path
       d="m -57.61991,96.826711 q 0,-0.07755 -0.0055,-0.149552 -0.0055,-0.06093 -0.0055,-0.121857 0,-0.06647 0,-0.110779 V 94.6499 l 0.969318,-0.199403 v 5.793753 h -0.659137 l -0.271409,-0.32126 h -0.01662 q -0.199402,0.14401 -0.432039,0.26587 -0.227097,0.12186 -0.526201,0.12186 -0.26587,0 -0.515123,-0.0886 -0.243714,-0.0942 -0.432039,-0.293561 -0.188325,-0.199403 -0.304643,-0.520663 -0.110779,-0.321259 -0.110779,-0.780993 0,-0.437578 0.110779,-0.780993 0.11078,-0.348955 0.32126,-0.58713 0.21048,-0.238175 0.509584,-0.365571 0.299104,-0.127397 0.675753,-0.127397 0.155091,0 0.332338,0.01662 0.182786,0.01662 0.360032,0.04431 z m -1.307194,1.744772 q 0,0.58713 0.193863,0.864078 0.193864,0.271409 0.515124,0.271409 0.16063,0 0.310182,-0.04431 0.15509,-0.04431 0.271409,-0.105241 v -2.226662 q -0.221559,-0.04985 -0.443117,-0.04985 -0.204942,0 -0.360033,0.03323 -0.155091,0.03323 -0.243714,0.110779 -0.08308,0.08308 -0.166169,0.37111 -0.07755,0.288026 -0.07755,0.775454 z"
       style="line-height:1;letter-spacing:-0.40216666px;word-spacing:0.08853479px;writing-mode:lr-tb;fill:#0000ff;stroke:none;stroke-width:0;stroke-miterlimit:4;stroke-dasharray:none;stroke-opacity:1"
       id="path951"
       inkscape:connector-curvature="0" />
    <path
       d="m -53.142253,99.740204 q 0.121857,0 0.337876,-0.06093 v 0.232637 q -0.07755,0.07201 -0.182786,0.144009 -0.10524,0.0665 -0.227097,0.12186 -0.116318,0.0499 -0.243714,0.0776 -0.127396,0.0332 -0.249253,0.0332 -0.132935,0 -0.227098,-0.0388 -0.09416,-0.0388 -0.166168,-0.0942 -0.06647,-0.0609 -0.116319,-0.13848 -0.04431,-0.07754 -0.07755,-0.149551 -0.121857,0.08308 -0.243714,0.166171 -0.116318,0.0775 -0.249254,0.13847 -0.127396,0.0609 -0.271409,0.0997 -0.144013,0.0388 -0.321259,0.0388 -0.398805,0 -0.631442,-0.24926 -0.227097,-0.249251 -0.227097,-0.753296 0,-0.26587 0.06647,-0.465273 0.07201,-0.199402 0.221559,-0.326798 0.155091,-0.132935 0.393266,-0.199403 0.243714,-0.07201 0.592669,-0.08308 l 0.58713,-0.01662 v -0.492967 q 0,-0.199403 -0.11078,-0.293565 -0.10524,-0.09416 -0.365571,-0.09416 -0.182786,0 -0.4265,0.04431 -0.238175,0.04431 -0.504045,0.149552 l -0.132935,-0.354493 q 0.177246,-0.07755 0.365571,-0.149552 0.193864,-0.07755 0.387727,-0.132935 0.199403,-0.06093 0.398805,-0.09416 0.204942,-0.03877 0.404344,-0.03877 0.227098,0 0.404344,0.04431 0.177247,0.03877 0.293565,0.138474 0.121857,0.0997 0.182786,0.26587 0.06647,0.166169 0.06647,0.409883 v 1.573065 q 0,0.548357 0.271409,0.548357 z m -1.196416,-0.16063 q -0.0055,-0.02216 -0.01108,-0.110779 -0.0055,-0.09416 -0.01108,-0.232636 -0.0055,-0.144013 -0.01108,-0.32126 0,-0.182786 0,-0.382188 -0.360032,0 -0.542818,0.04431 -0.182785,0.03877 -0.227097,0.0997 -0.02216,0.02216 -0.03877,0.08308 -0.01108,0.06093 -0.02216,0.138474 -0.0055,0.07201 -0.01108,0.155091 0,0.07755 0,0.144013 0,0.232636 0.06093,0.376649 0.06647,0.144013 0.21602,0.144013 0.160629,0 0.304642,-0.03877 0.149552,-0.03877 0.293565,-0.0997 z"
       style="line-height:1;letter-spacing:-0.40216666px;word-spacing:0.08853479px;writing-mode:lr-tb;fill:#0000ff;stroke:none;stroke-width:0;stroke-miterlimit:4;stroke-dasharray:none;stroke-opacity:1"
       id="path953"
       inkscape:connector-curvature="0" />
  </g>
  <text
     xml:space="preserve"
     style="font-style:normal;font-variant:normal;font-weight:normal;font-stretch:normal;font-size:43.56466675px;line-height:1.25;font-family:MoolBoran;-inkscape-font-specification:'MoolBoran, Normal';font-variant-ligatures:normal;font-variant-caps:normal;font-variant-numeric:normal;font-feature-settings:normal;text-align:start;letter-spacing:-1.02104676px;word-spacing:0px;writing-mode:lr-tb;text-anchor:start;fill:url(#linearGradient925);fill-opacity:1;stroke:none;stroke-width:1.02104676"
     x="3.0283322"
     y="27.14397"
     id="text905"
     transform="scale(0.59903681,1.6693465)"><tspan
       sodipodi:role="line"
       id="tspan903"
       x="3.0283322"
       y="27.14397"
       style="stroke-width:1.02104676;fill-opacity:1;fill:url(#linearGradient925)">SPECTRA</tspan></text>
</svg>
