<?xml version="1.0" encoding="UTF-8" standalone="no"?>
<svg
   xmlns:dc="http://purl.org/dc/elements/1.1/"
   xmlns:cc="http://creativecommons.org/ns#"
   xmlns:rdf="http://www.w3.org/1999/02/22-rdf-syntax-ns#"
   xmlns:svg="http://www.w3.org/2000/svg"
   xmlns="http://www.w3.org/2000/svg"
   xmlns:xlink="http://www.w3.org/1999/xlink"
   xmlns:sodipodi="http://sodipodi.sourceforge.net/DTD/sodipodi-0.dtd"
   xmlns:inkscape="http://www.inkscape.org/namespaces/inkscape"
   id="Layer_1"
   data-name="Layer 1"
   width="128"
   height="40"
   viewBox="0 0 128.00001 40"
   version="1.1"
   sodipodi:docname="clear-view-escapes.svg"
   inkscape:version="0.92.2 (5c3e80d, 2017-08-06)">
  <metadata
     id="metadata43">
    <rdf:RDF>
      <cc:Work
         rdf:about="">
        <dc:format>image/svg+xml</dc:format>
        <dc:type
           rdf:resource="http://purl.org/dc/dcmitype/StillImage" />
        <dc:title>clear-view-escapes</dc:title>
      </cc:Work>
    </rdf:RDF>
  </metadata>
  <sodipodi:namedview
     pagecolor="#ffffff"
     bordercolor="#666666"
     borderopacity="1"
     objecttolerance="10"
     gridtolerance="10"
     guidetolerance="10"
     inkscape:pageopacity="0"
     inkscape:pageshadow="2"
     inkscape:window-width="1920"
     inkscape:window-height="1005"
     id="namedview41"
     showgrid="false"
     inkscape:zoom="2.8284271"
     inkscape:cx="12.932042"
     inkscape:cy="21.850945"
     inkscape:window-x="-9"
     inkscape:window-y="-9"
     inkscape:window-maximized="1"
     inkscape:current-layer="Layer_1"
     inkscape:showpageshadow="false"
     borderlayer="true"
     showborder="true"
     showguides="false" />
  <defs
     id="defs4">
    <linearGradient
       inkscape:collect="always"
       id="linearGradient965">
      <stop
         style="stop-color:#2c0000;stop-opacity:1"
         offset="0"
         id="stop961" />
      <stop
         id="stop969"
         offset="0.50106877"
         style="stop-color:#ff9393;stop-opacity:1" />
      <stop
         style="stop-color:#ff2222;stop-opacity:1"
         offset="1"
         id="stop963" />
    </linearGradient>
    <linearGradient
       inkscape:collect="always"
       id="linearGradient975">
      <stop
         style="stop-color:#f6f2df;stop-opacity:1"
         offset="0"
         id="stop971" />
      <stop
         style="stop-color:#e11111;stop-opacity:1"
         offset="1"
         id="stop973" />
    </linearGradient>
    <inkscape:path-effect
       is_visible="true"
       id="path-effect1244"
       effect="spiro" />
    <inkscape:path-effect
       effect="spiro"
       id="path-effect1240"
       is_visible="true" />
    <style
       id="style2">.cls-1{fill:#fff;}</style>
    <radialGradient
       inkscape:collect="always"
       xlink:href="#linearGradient975"
       id="radialGradient1571"
       cx="47.744461"
       cy="33.198761"
       fx="47.744461"
       fy="33.198761"
       r="21.159725"
       gradientTransform="matrix(1.5282539,0,0,1.3077677,-250.37338,-28.949581)"
       gradientUnits="userSpaceOnUse" />
    <linearGradient
       inkscape:collect="always"
       xlink:href="#linearGradient965"
       id="linearGradient967"
       x1="53.989407"
       y1="20.216976"
       x2="116.99576"
       y2="20.216976"
       gradientUnits="userSpaceOnUse" />
    <linearGradient
       inkscape:collect="always"
       xlink:href="#linearGradient965"
       id="linearGradient993"
       gradientUnits="userSpaceOnUse"
       x1="53.989407"
       y1="20.216976"
       x2="116.99576"
       y2="20.216976" />
    <linearGradient
       inkscape:collect="always"
       xlink:href="#linearGradient965"
       id="linearGradient995"
       gradientUnits="userSpaceOnUse"
       x1="53.989407"
       y1="20.216976"
       x2="116.99576"
       y2="20.216976" />
    <linearGradient
       inkscape:collect="always"
       xlink:href="#linearGradient965"
       id="linearGradient997"
       gradientUnits="userSpaceOnUse"
       x1="53.989407"
       y1="20.216976"
       x2="116.99576"
       y2="20.216976" />
  </defs>
  <title
     id="title6">clear-view-escapes</title>
  <g
     id="g1003"
     transform="matrix(0.59486576,0,0,0.84553301,90.263341,-46.816114)"
     style="fill:#800000">
    <g
       id="g1435" />
  </g>
  <text
     xml:space="preserve"
     style="font-style:normal;font-variant:normal;font-weight:normal;font-stretch:normal;font-size:42.66666794px;line-height:1;font-family:MoolBoran;-inkscape-font-specification:'MoolBoran, Normal';font-variant-ligatures:normal;font-variant-caps:normal;font-variant-numeric:normal;font-feature-settings:normal;text-align:start;letter-spacing:1px;word-spacing:0px;writing-mode:lr-tb;text-anchor:start;fill:#000000;fill-opacity:1;stroke:none"
     x="-180.66579"
     y="79.95153"
     id="text882"><tspan
       sodipodi:role="line"
       id="tspan880"
       x="-180.66579"
       y="101.64987"></tspan></text>
  <g
     id="g1023">
    <path
       style="opacity:0.41600001;fill:#cccccc;fill-opacity:1;stroke:none;stroke-width:0;stroke-miterlimit:4;stroke-dasharray:none;stroke-opacity:1"
       d="M -0.3535606,0.35355347 H 127.64644 V 40.353553 H -0.3535606 Z"
       id="rect999" />
    <g
       transform="translate(-0.91670223,0.49012925)"
       id="g991">
      <g
         id="g878"
         transform="matrix(0.50912206,0,0,0.59036024,121.26636,10.974711)">
        <path
           inkscape:connector-curvature="0"
           id="path1599"
           d="m -144.71319,15.150929 c -0.32293,20.614724 -24.27815,31.781631 -41.91522,26.386666 -18.09323,-3.004924 -30.51518,-26.947002 -17.14162,-41.98225 14.29992,-17.854401 46.70901,-15.650087 56.85803,5.587158 1.42735,3.122113 2.20277,6.561279 2.19881,10.008426 z"
           style="opacity:1;fill:url(#radialGradient1571);fill-opacity:1;stroke:#ff0000;stroke-width:0;stroke-miterlimit:4;stroke-dasharray:none;stroke-opacity:1" />
        <path
           inkscape:connector-curvature="0"
           id="ellipse1581"
           d="m -175.59664,36.001959 c 4.51087,-0.460282 8.16374,5.578991 4.62652,9.031735 -3.45872,4.206475 -11.80653,1.15462 -10.55493,-4.630003 0.58857,-2.706988 3.30961,-4.441222 5.92841,-4.401732 z"
           style="opacity:1;fill:#ffcc00;fill-opacity:1;stroke:#ff0000;stroke-width:0;stroke-miterlimit:4;stroke-dasharray:none;stroke-opacity:1" />
        <path
           inkscape:connector-curvature="0"
           id="path1583"
           d="m -170.68001,31.814056 c -1.22811,1.623292 -3.68769,2.812484 -4.1452,4.707419 0.39145,3.87839 -3.67584,6.041686 -6.80945,6.100509 -0.92935,1.139217 -4.42608,3.913169 -3.68592,3.989353 6.45509,-2.631586 13.17403,-7.400702 14.64057,-14.797281 z"
           style="fill:#ff0000;stroke:#000000;stroke-width:0;stroke-linecap:butt;stroke-linejoin:miter;stroke-miterlimit:4;stroke-dasharray:none;stroke-opacity:1" />
        <path
           inkscape:connector-curvature="0"
           id="ellipse1565"
           d="m -139.30967,13.553712 c -1.2469,6.683618 -13.20612,5.621969 -12.66932,-1.398323 1.24506,-6.648004 13.23241,-5.675342 12.66932,1.398323 z"
           style="opacity:1;fill:#ffffff;fill-opacity:1;stroke:#ff0000;stroke-width:0;stroke-miterlimit:4;stroke-dasharray:none;stroke-opacity:1" />
        <path
           inkscape:connector-curvature="0"
           id="path1585"
           d="m -155.86107,7.587857 c 1.9964,1.432449 3.2761,4.466071 5.98269,4.267307 3.939,0.186977 4.75638,4.313589 5.57783,6.929077 1.20993,0.895994 5.06435,5.729404 3.08933,1.795582 -2.71034,-6.241947 -8.04761,-11.39332 -14.64985,-12.991966 z"
           style="fill:#000000;stroke:#000000;stroke-width:0;stroke-linecap:butt;stroke-linejoin:miter;stroke-miterlimit:4;stroke-dasharray:none;stroke-opacity:1" />
        <path
           inkscape:connector-curvature="0"
           id="ellipse1587"
           d="m -185.36176,-9.498555 c 1.91874,6.250532 13.30969,4.591482 12.49202,-2.255827 -1.4912,-6.3692 -12.71018,-5.316519 -12.64663,1.377959 l 0.0683,0.517161 z"
           style="opacity:1;fill:#0000ff;fill-opacity:1;stroke:#ff0000;stroke-width:0.14622046;stroke-miterlimit:4;stroke-dasharray:none;stroke-opacity:1" />
        <path
           inkscape:connector-curvature="0"
           id="path1591"
           d="m -169.51581,-16.877677 c -1.51697,1.386102 -2.43553,3.91666 -4.32844,4.583791 -3.54276,0.199429 -6.12117,3.899433 -5.27084,7.145788 -1.05253,1.009776 -3.30862,4.592 -3.62317,4.02445 1.5645,-7.024972 6.42386,-13.385066 13.22245,-15.754029 z"
           style="fill:#ffffff;stroke:#000000;stroke-width:0;stroke-linecap:butt;stroke-linejoin:miter;stroke-miterlimit:4;stroke-dasharray:none;stroke-opacity:1" />
        <path
           inkscape:connector-curvature="0"
           id="ellipse1593"
           d="m -201.58762,17.401591 c -0.39331,-6.898954 -12.38037,-6.898255 -12.77322,0 0.37187,6.912555 12.40191,6.898135 12.77322,0 z"
           style="opacity:1;fill:#000000;fill-opacity:1;stroke:#ff0000;stroke-width:0;stroke-miterlimit:4;stroke-dasharray:none;stroke-opacity:1" />
        <path
           inkscape:connector-curvature="0"
           id="path1597"
           d="m -196.87664,21.630305 c -2.18945,-1.20981 -3.87135,-4.0243 -6.56553,-3.577657 -3.92607,0.232095 -5.34956,-3.708095 -6.54007,-6.248739 -1.35492,-0.780389 -5.83796,-5.088442 -3.34774,-1.456135 3.61836,5.882868 9.6043,10.396076 16.45334,11.282531 z"
           style="fill:#ffffff;stroke:#000000;stroke-width:0;stroke-linecap:butt;stroke-linejoin:miter;stroke-miterlimit:4;stroke-dasharray:none;stroke-opacity:1" />
        <path
           inkscape:connector-curvature="0"
           id="ellipse1821"
           d="m -165.43485,14.409892 c -0.34377,10.59268 -13.64016,14.18645 -19.97393,7.598695 -5.65662,-4.696358 -3.3441,-15.033822 3.0677,-17.318727 6.58203,-3.402104 16.73427,0.625465 16.90623,9.720032 z"
           style="opacity:1;fill:#ffffff;fill-opacity:1;stroke:#ff0000;stroke-width:0;stroke-miterlimit:4;stroke-dasharray:none;stroke-opacity:1" />
        <path
           inkscape:connector-curvature="0"
           id="rect1278"
           d="m -182.14531,13.672913 c 3.38544,0 6.77089,0 10.15632,0 -0.31733,1.783965 -3.82139,0.316007 -5.41874,0.793774 -1.30969,-0.418688 -4.74589,0.905685 -4.73758,-0.793774 z"
           style="opacity:1;fill:#000000;fill-opacity:1;stroke:#ff0000;stroke-width:0;stroke-miterlimit:4;stroke-dasharray:none;stroke-opacity:1" />
        <path
           inkscape:connector-curvature="0"
           id="rect1280"
           d="m -176.81156,9.879213 c 0,2.911769 0,5.823537 0,8.735306 -1.9742,-0.142549 -0.43684,-3.868498 -0.92291,-5.529613 0.36241,-0.977054 -0.87643,-3.732573 0.92291,-3.205693 z"
           style="opacity:1;fill:#000000;fill-opacity:1;stroke:#ff0000;stroke-width:0;stroke-miterlimit:4;stroke-dasharray:none;stroke-opacity:1" />
        <path
           inkscape:connector-curvature="0"
           id="rect1725"
           d="m -183.2418,20.03093 c 4.11643,0 8.23287,0 12.34931,0 -1.12279,0.943213 -3.98667,0.109708 -5.75741,0.391714 -2.1973,0 -4.3946,0 -6.5919,0 v -0.3456 z"
           style="opacity:1;fill:#000000;fill-opacity:1;stroke:#ff0000;stroke-width:0;stroke-miterlimit:4;stroke-dasharray:none;stroke-opacity:1" />
      </g>
      <g
         id="g959"
         style="fill:url(#linearGradient967);fill-opacity:1">
        <g
           style="fill:url(#linearGradient997);fill-opacity:1"
           transform="translate(0,-6.6817828)"
           id="g904">
          <g
             aria-label="Polaric"
             style="font-style:normal;font-variant:normal;font-weight:normal;font-stretch:normal;font-size:30.40011024px;line-height:1;font-family:MoolBoran;-inkscape-font-specification:'MoolBoran, Normal';font-variant-ligatures:normal;font-variant-caps:normal;font-variant-numeric:normal;font-feature-settings:normal;text-align:start;letter-spacing:0.71250254px;word-spacing:0px;writing-mode:lr-tb;text-anchor:start;fill:url(#linearGradient993);fill-opacity:1;stroke:none;stroke-width:0.71250254"
             id="text894">
            <path
               d="m 57.927638,21.199366 0.356252,-0.07422 q 0.519533,-0.118751 0.979691,-0.296876 0.460158,-0.19297 0.786721,-0.549221 0.341408,-0.371095 0.534377,-0.964847 0.19297,-0.593752 0.19297,-1.514068 0,-1.380474 -0.62344,-2.003914 -0.62344,-0.638283 -1.632819,-0.638283 -0.252344,0 -0.519533,0.01484 -0.252344,0.01484 -0.534377,0.05938 V 27.53767 H 54.825283 V 13.925902 q 0.415627,-0.02969 0.905472,-0.05938 0.489846,-0.02969 1.009379,-0.04453 0.534377,-0.02969 1.05391,-0.02969 0.534377,-0.01484 1.024222,-0.01484 1.202349,0 2.078133,0.282032 0.890628,0.267189 1.469537,0.771878 0.578908,0.504689 0.86094,1.232036 0.282032,0.712502 0.282032,1.617974 0,0.950004 -0.311719,1.781257 -0.31172,0.831253 -0.964848,1.454693 -0.638283,0.623439 -1.647662,0.979691 -0.994535,0.356251 -2.375008,0.356251 H 58.09092 Z"
               style="fill:url(#linearGradient993);fill-opacity:1;stroke-width:0.71250254"
               id="path1026" />
            <path
               d="m 70.292527,27.715796 q -2.226571,0 -3.414075,-1.202348 -1.172661,-1.217192 -1.172661,-3.547669 0,-1.098442 0.282033,-1.974226 0.296876,-0.890629 0.875784,-1.499225 0.578908,-0.623439 1.439849,-0.950003 0.860941,-0.341407 1.98907,-0.341407 2.271102,0 3.428919,1.232035 1.157816,1.232036 1.157816,3.503138 0,1.113285 -0.296876,2.003913 -0.282032,0.875785 -0.86094,1.499225 -0.578909,0.608596 -1.439849,0.950003 -0.860941,0.326564 -1.98907,0.326564 z m -1.885163,-4.764861 q 0,1.7961 0.43047,2.642197 0.43047,0.846097 1.439849,0.846097 0.385939,0 0.727346,-0.05938 0.341408,-0.07422 0.564065,-0.207813 0.148438,-0.07422 0.252345,-0.356251 0.11875,-0.296876 0.192969,-0.727346 0.08906,-0.430471 0.11875,-0.979692 0.04453,-0.54922 0.04453,-1.142972 0,-1.751569 -0.445314,-2.61251 -0.430471,-0.875784 -1.410162,-0.875784 -0.371095,0 -0.727346,0.07422 -0.356251,0.07422 -0.62344,0.237501 -0.148438,0.08906 -0.267188,0.371095 -0.103907,0.282032 -0.178126,0.712502 -0.05938,0.430471 -0.08906,0.964847 -0.02969,0.534377 -0.02969,1.113286 z"
               style="fill:url(#linearGradient993);fill-opacity:1;stroke-width:0.71250254"
               id="path1028" />
            <path
               d="M 80.519908,27.53767 H 77.922242 V 12.545428 l 2.597666,-0.534377 z"
               style="fill:url(#linearGradient993);fill-opacity:1;stroke-width:0.71250254"
               id="path1030" />
            <path
               d="m 91.741824,26.186884 q 0.326563,0 0.905472,-0.163282 v 0.62344 q -0.207814,0.192969 -0.489846,0.385939 -0.282032,0.178125 -0.608596,0.326563 -0.31172,0.133595 -0.653127,0.207814 -0.341408,0.08906 -0.667971,0.08906 -0.356252,0 -0.608596,-0.103907 -0.252345,-0.103907 -0.445314,-0.252345 -0.178126,-0.163282 -0.31172,-0.371095 -0.118751,-0.207813 -0.207814,-0.400783 -0.326563,0.222658 -0.653127,0.445315 -0.31172,0.207813 -0.667971,0.371095 -0.341408,0.163282 -0.727347,0.267188 -0.385938,0.103907 -0.86094,0.103907 -1.068754,0 -1.692194,-0.667971 -0.608596,-0.667972 -0.608596,-2.018758 0,-0.712502 0.178126,-1.246879 0.192969,-0.534377 0.593752,-0.875785 0.415627,-0.356251 1.05391,-0.534377 0.653128,-0.192969 1.588287,-0.222657 l 1.573443,-0.04453 v -1.321099 q 0,-0.534377 -0.296876,-0.786721 -0.282032,-0.252345 -0.979691,-0.252345 -0.489845,0 -1.142973,0.118751 -0.638283,0.11875 -1.350786,0.400782 l -0.356251,-0.950003 q 0.475002,-0.207813 0.979691,-0.400783 0.519533,-0.207813 1.039066,-0.356251 0.534377,-0.163282 1.068754,-0.252345 0.549221,-0.103906 1.083598,-0.103906 0.608596,0 1.083597,0.11875 0.475002,0.103907 0.786722,0.371095 0.326564,0.267189 0.489846,0.712503 0.178125,0.445314 0.178125,1.098441 v 4.21564 q 0,1.469537 0.727347,1.469537 z m -3.206262,-0.43047 q -0.01484,-0.05938 -0.02969,-0.296876 -0.01484,-0.252345 -0.02969,-0.62344 -0.01484,-0.385939 -0.02969,-0.860941 0,-0.489845 0,-1.024222 -0.964847,0 -1.454693,0.11875 -0.489845,0.103907 -0.608596,0.267189 -0.05938,0.05937 -0.103906,0.222657 -0.02969,0.163282 -0.05938,0.371095 -0.01484,0.192969 -0.02969,0.415626 0,0.207814 0,0.385939 0,0.62344 0.163282,1.009379 0.178125,0.385939 0.578908,0.385939 0.43047,0 0.816409,-0.103907 0.400783,-0.103906 0.786722,-0.267188 z"
               style="fill:url(#linearGradient993);fill-opacity:1;stroke-width:0.71250254"
               id="path1032" />
            <path
               d="m 100.12857,20.457176 q -0.296874,-0.103907 -0.638281,-0.163282 -0.341408,-0.07422 -0.653128,-0.07422 -0.222657,0 -0.400782,0.04453 -0.178126,0.02969 -0.341408,0.118751 -0.148438,0.08906 -0.31172,0.237501 -0.148438,0.148438 -0.341407,0.356251 v 6.560961 h -2.597666 v -9.143783 h 2.330477 l 0.222657,1.454693 h 0.01484 q 0.103907,-0.163282 0.252345,-0.371095 0.148438,-0.222657 0.31172,-0.430471 0.178125,-0.222657 0.356251,-0.400782 0.192969,-0.178126 0.385939,-0.252345 0.341407,-0.11875 0.771878,-0.148438 0.43047,-0.04453 0.935161,-0.04453 z"
               style="fill:url(#linearGradient993);fill-opacity:1;stroke-width:0.71250254"
               id="path1034" />
            <path
               d="m 105.39812,27.53767 h -2.59766 v -9.143783 h 2.59766 z m -1.35078,-14.324271 1.64766,1.707038 -1.64766,1.721881 -1.63282,-1.721881 z"
               style="fill:url(#linearGradient993);fill-opacity:1;stroke-width:0.71250254"
               id="path1036" />
            <path
               d="m 115.53644,20.368113 q -0.48984,-0.252345 -1.17266,-0.489846 -0.66797,-0.237501 -1.45469,-0.237501 -0.32657,0 -0.65313,0.07422 -0.32656,0.05937 -0.56406,0.2375 -0.26719,0.19297 -0.43047,0.920316 -0.16329,0.712503 -0.16329,2.241415 0,0.846096 0.11875,1.439849 0.11876,0.578908 0.35626,0.950003 0.2375,0.356251 0.59375,0.519533 0.35625,0.148438 0.81641,0.148438 0.72734,0 1.51407,-0.148438 0.78672,-0.163282 1.425,-0.43047 l 0.2375,0.667971 q -0.75703,0.62344 -1.73672,1.039066 -0.96485,0.415627 -2.12267,0.415627 -0.81641,0 -1.54375,-0.237501 -0.71251,-0.252345 -1.23204,-0.786722 -0.51953,-0.534377 -0.83125,-1.395317 -0.29688,-0.860941 -0.29688,-2.092977 0,-1.17266 0.31172,-2.092976 0.32657,-0.93516 0.93516,-1.573443 0.6086,-0.653127 1.51407,-0.994535 0.90547,-0.341407 2.07813,-0.341407 0.7125,0 1.42501,0.103906 0.72734,0.103907 1.3211,0.237501 z"
               style="fill:url(#linearGradient993);fill-opacity:1;stroke-width:0.71250254"
               id="path1038" />
          </g>
          <g
             aria-label="Student Support"
             transform="scale(0.9434589,1.0599296)"
             style="font-style:normal;font-variant:normal;font-weight:normal;font-stretch:normal;font-size:13.5175066px;line-height:1;font-family:MoolBoran;-inkscape-font-specification:'MoolBoran, Normal';font-variant-ligatures:normal;font-variant-caps:normal;font-variant-numeric:normal;font-feature-settings:normal;text-align:start;letter-spacing:0.31681657px;word-spacing:0px;writing-mode:lr-tb;text-anchor:start;fill:url(#linearGradient995);fill-opacity:1;stroke:none;stroke-width:0.31681657"
             id="text898">
            <path
               d="m 61.23798,34.856377 q 0,0.330017 -0.158408,0.666634 -0.158409,0.330018 -0.455424,0.600632 -0.297016,0.264014 -0.719438,0.435623 -0.415822,0.165008 -0.937249,0.165008 -0.277214,0 -0.514827,-0.033 -0.237612,-0.033 -0.448823,-0.0858 -0.204611,-0.0594 -0.396021,-0.138607 -0.19141,-0.08581 -0.38282,-0.18481 l 0.290415,-0.904247 q 0.125407,0.0858 0.330017,0.184809 0.211211,0.09901 0.455424,0.18481 0.244213,0.08581 0.488426,0.145208 0.250813,0.0528 0.455424,0.0528 0.231012,0 0.376219,-0.0264 0.151808,-0.033 0.270614,-0.0858 0.132007,-0.0528 0.211211,-0.264014 0.07921,-0.211211 0.07921,-0.547829 0,-0.310216 -0.204611,-0.495026 -0.204611,-0.184809 -0.514827,-0.316816 -0.303616,-0.138608 -0.660035,-0.270614 -0.356418,-0.138608 -0.666634,-0.349819 -0.303616,-0.217811 -0.508227,-0.554429 -0.204611,-0.336617 -0.204611,-0.884446 0,-0.264014 0.138608,-0.554429 0.138607,-0.297015 0.402621,-0.541228 0.264013,-0.250813 0.653434,-0.409222 0.38942,-0.158408 0.884446,-0.158408 0.396021,0 0.75904,0.0396 0.369619,0.0396 0.712837,0.105606 l -0.18481,0.904247 q -0.158408,-0.0594 -0.363019,-0.112206 -0.19801,-0.0528 -0.409221,-0.0924 -0.204611,-0.0396 -0.402621,-0.0594 -0.19801,-0.0264 -0.349818,-0.0264 -0.171609,0 -0.316817,0.0198 -0.145208,0.0132 -0.264014,0.0858 -0.112206,0.066 -0.165008,0.231012 -0.0462,0.158409 -0.0462,0.38282 0,0.231012 0.118806,0.38282 0.118807,0.151808 0.310217,0.270615 0.19801,0.112205 0.442223,0.211211 0.250813,0.0924 0.508226,0.20461 0.264014,0.105606 0.508227,0.250813 0.250813,0.138608 0.442223,0.349819 0.19801,0.20461 0.316817,0.501626 0.118806,0.297015 0.118806,0.719438 z"
               style="fill:url(#linearGradient995);fill-opacity:1;stroke-width:0.31681657"
               id="path1041" />
            <path
               d="M 62.518447,33.133686 62.082824,32.988479 V 32.744266 L 63.33029,31.85982 h 0.316816 l 0.0132,0.712837 h 1.234264 l -0.0528,0.448824 q -0.138608,0.0264 -0.343218,0.0462 -0.198011,0.0198 -0.38282,0.033 -0.217812,0.0198 -0.448824,0.0396 v 2.283719 q 0,0.217812 0.0792,0.36962 0.0792,0.145207 0.330017,0.145207 0.066,0 0.17821,-0.0066 0.112206,-0.0066 0.231012,-0.0198 0.125406,-0.0132 0.237612,-0.0264 0.118807,-0.0198 0.198011,-0.033 v 0.336617 q -0.145208,0.0924 -0.336618,0.19141 -0.19141,0.0924 -0.409221,0.171609 -0.211211,0.0726 -0.429023,0.118806 -0.217811,0.0462 -0.415821,0.0462 -0.151808,0 -0.297016,-0.033 -0.145208,-0.0264 -0.264014,-0.112206 -0.112206,-0.0858 -0.184809,-0.237612 -0.066,-0.158408 -0.066,-0.409222 z"
               style="fill:url(#linearGradient995);fill-opacity:1;stroke-width:0.31681657"
               id="path1043" />
            <path
               d="M 67.17169,32.572657 V 35.2986 q 0,0.363019 0.112206,0.541228 0.118806,0.171609 0.396021,0.171609 0.099,0 0.217811,-0.0264 0.118806,-0.033 0.244213,-0.07921 0.125406,-0.0528 0.237612,-0.112205 0.118806,-0.066 0.217812,-0.138608 v -3.082361 h 1.16166 v 4.065813 h -1.036254 l -0.105605,-0.475225 h -0.0132 q -0.118806,0.0792 -0.290415,0.178209 -0.165009,0.0924 -0.363019,0.18481 -0.19141,0.0858 -0.409222,0.145207 -0.211211,0.0594 -0.415821,0.0594 -0.231012,0 -0.435623,-0.0792 -0.19801,-0.0726 -0.349818,-0.217811 -0.151808,-0.151808 -0.244213,-0.37622 -0.0858,-0.231012 -0.0858,-0.528027 v -2.956955 z"
               style="fill:url(#linearGradient995);fill-opacity:1;stroke-width:0.31681657"
               id="path1045" />
            <path
               d="m 73.844639,32.566057 q 0,-0.0924 -0.0066,-0.178209 -0.0066,-0.0726 -0.0066,-0.145208 0,-0.0792 0,-0.132007 v -2.138512 l 1.15506,-0.237612 V 36.63847 H 74.201057 L 73.87764,36.25565 h -0.0198 q -0.237612,0.171609 -0.514827,0.316816 -0.270614,0.145208 -0.627032,0.145208 -0.316817,0 -0.613833,-0.105606 -0.290415,-0.112206 -0.514826,-0.349818 -0.224412,-0.237612 -0.363019,-0.620432 -0.132007,-0.38282 -0.132007,-0.930649 0,-0.521427 0.132007,-0.930649 0.132006,-0.415821 0.38282,-0.699636 0.250813,-0.283815 0.607231,-0.435623 0.356419,-0.151808 0.805242,-0.151808 0.18481,0 0.396021,0.0198 0.217811,0.0198 0.429023,0.0528 z m -1.557682,2.079109 q 0,0.699636 0.231012,1.029653 0.231012,0.323417 0.613832,0.323417 0.19141,0 0.36962,-0.0528 0.184809,-0.0528 0.323416,-0.125406 v -2.653339 q -0.264013,-0.0594 -0.528027,-0.0594 -0.244213,0 -0.429023,0.0396 -0.184809,0.0396 -0.290415,0.132007 -0.099,0.099 -0.19801,0.442223 -0.0924,0.343218 -0.0924,0.924049 z"
               style="fill:url(#linearGradient995);fill-opacity:1;stroke-width:0.31681657"
               id="path1047" />
            <path
               d="m 78.319673,32.486853 q 0.290416,0 0.56103,0.0858 0.277214,0.0792 0.508226,0.277215 0.231012,0.19141 0.396021,0.521427 0.171609,0.323417 0.257413,0.811842 v 0.0528 q -0.0528,0.0726 -0.145207,0.132007 -0.0858,0.0594 -0.231012,0.105606 -0.145208,0.0396 -0.356419,0.0792 -0.211211,0.033 -0.508226,0.0528 l -1.280467,0.09901 v 0.171609 q 0,0.475224 0.250813,0.785441 0.250813,0.310216 0.752439,0.310216 0.204611,0 0.429023,-0.0396 0.224411,-0.0462 0.422422,-0.105606 0.20461,-0.0594 0.369619,-0.118806 0.171609,-0.066 0.257413,-0.112206 l 0.09901,0.297016 q -0.18481,0.138607 -0.415822,0.290415 -0.231012,0.145207 -0.495026,0.264014 -0.264014,0.118806 -0.561029,0.19141 -0.290416,0.0792 -0.600632,0.0792 -0.363019,0 -0.679835,-0.105606 -0.310217,-0.112206 -0.541229,-0.349818 -0.224411,-0.237612 -0.356418,-0.620432 -0.132007,-0.38282 -0.132007,-0.930649 0,-0.613832 0.151808,-1.036254 0.151808,-0.429023 0.422422,-0.686436 0.270614,-0.264014 0.633633,-0.38282 0.369619,-0.118806 0.792041,-0.118806 z m -0.547828,0.686436 q -0.0462,0.0396 -0.0924,0.151807 -0.0396,0.105606 -0.0726,0.257414 -0.033,0.145208 -0.0528,0.310216 -0.0198,0.158408 -0.0198,0.310216 l 1.273867,-0.0594 q -0.0198,-0.178209 -0.0594,-0.369619 -0.0396,-0.19141 -0.118806,-0.349818 -0.0726,-0.158409 -0.18481,-0.264014 -0.112206,-0.105606 -0.270614,-0.105606 -0.112206,0 -0.211211,0.0264 -0.09901,0.0264 -0.19141,0.0924 z"
               style="fill:url(#linearGradient995);fill-opacity:1;stroke-width:0.31681657"
               id="path1049" />
            <path
               d="m 83.969567,36.63847 v -2.725943 q 0,-0.363019 -0.118806,-0.534628 -0.112206,-0.171609 -0.38942,-0.171609 -0.09901,0 -0.224412,0.0264 -0.118806,0.0264 -0.244213,0.0792 -0.118806,0.0462 -0.237612,0.112206 -0.118806,0.0594 -0.217812,0.132007 v 3.082361 h -1.15506 v -4.065813 h 1.029654 l 0.105605,0.475225 h 0.0132 q 0.118806,-0.0792 0.283815,-0.171609 0.171609,-0.099 0.369619,-0.18481 0.198011,-0.0858 0.409222,-0.145207 0.211211,-0.0594 0.415821,-0.0594 0.231012,0 0.429023,0.0792 0.204611,0.0726 0.356418,0.224412 0.151808,0.145207 0.237613,0.369619 0.0924,0.224412 0.0924,0.528027 v 2.950355 z"
               style="fill:url(#linearGradient995);fill-opacity:1;stroke-width:0.31681657"
               id="path1051" />
            <path
               d="m 86.754914,33.133686 -0.435622,-0.145207 v -0.244213 l 1.247465,-0.884446 h 0.316816 l 0.0132,0.712837 h 1.234265 l -0.0528,0.448824 q -0.138607,0.0264 -0.343218,0.0462 -0.19801,0.0198 -0.38282,0.033 -0.217811,0.0198 -0.448824,0.0396 v 2.283719 q 0,0.217812 0.07921,0.36962 0.0792,0.145207 0.330017,0.145207 0.066,0 0.178209,-0.0066 0.112206,-0.0066 0.231012,-0.0198 0.125407,-0.0132 0.237613,-0.0264 0.118806,-0.0198 0.19801,-0.033 v 0.336617 q -0.145208,0.0924 -0.336618,0.19141 -0.19141,0.0924 -0.409221,0.171609 -0.211211,0.0726 -0.429022,0.118806 -0.217812,0.0462 -0.415822,0.0462 -0.151808,0 -0.297016,-0.033 -0.145207,-0.0264 -0.264013,-0.112206 -0.112206,-0.0858 -0.18481,-0.237612 -0.066,-0.158408 -0.066,-0.409222 z"
               style="fill:url(#linearGradient995);fill-opacity:1;stroke-width:0.31681657"
               id="path1053" />
            <path
               d="m 95.850189,34.856377 q 0,0.330017 -0.158408,0.666634 -0.158408,0.330018 -0.455424,0.600632 -0.297016,0.264014 -0.719438,0.435623 -0.415821,0.165008 -0.937249,0.165008 -0.277214,0 -0.514826,-0.033 -0.237613,-0.033 -0.448824,-0.0858 -0.204611,-0.0594 -0.396021,-0.138607 -0.19141,-0.08581 -0.38282,-0.18481 l 0.290416,-0.904247 q 0.125406,0.0858 0.330017,0.184809 0.211211,0.09901 0.455424,0.18481 0.244212,0.08581 0.488425,0.145208 0.250813,0.0528 0.455424,0.0528 0.231012,0 0.37622,-0.0264 0.151808,-0.033 0.270614,-0.0858 0.132007,-0.0528 0.211211,-0.264014 0.0792,-0.211211 0.0792,-0.547829 0,-0.310216 -0.204611,-0.495026 -0.20461,-0.184809 -0.514827,-0.316816 -0.303616,-0.138608 -0.660034,-0.270614 -0.356419,-0.138608 -0.666635,-0.349819 -0.303616,-0.217811 -0.508227,-0.554429 -0.20461,-0.336617 -0.20461,-0.884446 0,-0.264014 0.138607,-0.554429 0.138607,-0.297015 0.402621,-0.541228 0.264014,-0.250813 0.653434,-0.409222 0.38942,-0.158408 0.884446,-0.158408 0.396021,0 0.75904,0.0396 0.369619,0.0396 0.712837,0.105606 l -0.184809,0.904247 q -0.158409,-0.0594 -0.363019,-0.112206 -0.198011,-0.0528 -0.409222,-0.0924 -0.20461,-0.0396 -0.402621,-0.0594 -0.19801,-0.0264 -0.349818,-0.0264 -0.171609,0 -0.316817,0.0198 -0.145207,0.0132 -0.264013,0.0858 -0.112206,0.066 -0.165009,0.231012 -0.0462,0.158409 -0.0462,0.38282 0,0.231012 0.118806,0.38282 0.118806,0.151808 0.310216,0.270615 0.19801,0.112205 0.442223,0.211211 0.250813,0.0924 0.508227,0.20461 0.264013,0.105606 0.508226,0.250813 0.250813,0.138608 0.442223,0.349819 0.198011,0.20461 0.316817,0.501626 0.118806,0.297015 0.118806,0.719438 z"
               style="fill:url(#linearGradient995);fill-opacity:1;stroke-width:0.31681657"
               id="path1055" />
            <path
               d="M 98.219711,32.572657 V 35.2986 q 0,0.363019 0.112206,0.541228 0.118806,0.171609 0.396021,0.171609 0.09901,0 0.217811,-0.0264 0.118807,-0.033 0.244213,-0.07921 0.125407,-0.0528 0.237613,-0.112205 0.118806,-0.066 0.217811,-0.138608 v -3.082361 h 1.161664 v 4.065813 h -1.036258 l -0.105605,-0.475225 h -0.0132 q -0.118806,0.0792 -0.290415,0.178209 -0.165009,0.0924 -0.363019,0.18481 -0.19141,0.0858 -0.409221,0.145207 -0.211211,0.0594 -0.415822,0.0594 -0.231012,0 -0.435623,-0.0792 -0.19801,-0.0726 -0.349818,-0.217811 -0.151808,-0.151808 -0.244213,-0.37622 -0.0858,-0.231012 -0.0858,-0.528027 v -2.956955 z"
               style="fill:url(#linearGradient995);fill-opacity:1;stroke-width:0.31681657"
               id="path1057" />
            <path
               d="m 103.56599,32.922475 q 0.24422,-0.178209 0.50163,-0.303615 0.26401,-0.132007 0.62043,-0.132007 0.31682,0 0.60723,0.112206 0.29702,0.105605 0.52143,0.343217 0.23101,0.237613 0.36302,0.620433 0.13861,0.37622 0.13861,0.924048 0,0.528028 -0.15181,0.94385 -0.14521,0.409221 -0.42242,0.699636 -0.27062,0.283815 -0.66664,0.435623 -0.38942,0.151808 -0.88444,0.151808 -0.16501,0 -0.33662,-0.0264 -0.17161,-0.0198 -0.29042,-0.0528 0,0.0594 0.007,0.20461 0.007,0.145208 0.007,0.297016 v 2.092309 l -1.15506,0.19141 v -6.732352 l 1.02306,-0.178209 z m 1.54448,1.610485 q 0,-0.679836 -0.22441,-1.003253 -0.21781,-0.323417 -0.59403,-0.323417 -0.19141,0 -0.36962,0.0396 -0.17161,0.0396 -0.34322,0.112206 v 2.67314 q 0.13201,0.033 0.25742,0.0462 0.132,0.0132 0.27721,0.0132 0.21781,0 0.40922,-0.0396 0.19141,-0.0396 0.28382,-0.132007 0.1056,-0.105605 0.20461,-0.462024 0.099,-0.363019 0.099,-0.924048 z"
               style="fill:url(#linearGradient995);fill-opacity:1;stroke-width:0.31681657"
               id="path1059" />
            <path
               d="m 108.79347,32.922475 q 0.24421,-0.178209 0.50162,-0.303615 0.26402,-0.132007 0.62044,-0.132007 0.31681,0 0.60723,0.112206 0.29701,0.105605 0.52142,0.343217 0.23102,0.237613 0.36302,0.620433 0.13861,0.37622 0.13861,0.924048 0,0.528028 -0.15181,0.94385 -0.14521,0.409221 -0.42242,0.699636 -0.27061,0.283815 -0.66663,0.435623 -0.38942,0.151808 -0.88445,0.151808 -0.16501,0 -0.33662,-0.0264 -0.17161,-0.0198 -0.29041,-0.0528 0,0.0594 0.007,0.20461 0.007,0.145208 0.007,0.297016 v 2.092309 l -1.15506,0.19141 v -6.732352 l 1.02305,-0.178209 z m 1.54448,1.610485 q 0,-0.679836 -0.22441,-1.003253 -0.21782,-0.323417 -0.59404,-0.323417 -0.19141,0 -0.36961,0.0396 -0.17161,0.0396 -0.34322,0.112206 v 2.67314 q 0.132,0.033 0.25741,0.0462 0.13201,0.0132 0.27722,0.0132 0.21781,0 0.40922,-0.0396 0.19141,-0.0396 0.28381,-0.132007 0.10561,-0.105605 0.20461,-0.462024 0.099,-0.363019 0.099,-0.924048 z"
               style="fill:url(#linearGradient995);fill-opacity:1;stroke-width:0.31681657"
               id="path1061" />
            <path
               d="m 114.63477,36.717674 q -0.99005,0 -1.51808,-0.534628 -0.52142,-0.541228 -0.52142,-1.577483 0,-0.488425 0.1254,-0.877845 0.13201,-0.396021 0.38942,-0.666635 0.25742,-0.277215 0.64024,-0.422422 0.38282,-0.151808 0.88444,-0.151808 1.00986,0 1.52468,0.547828 0.51483,0.547829 0.51483,1.557682 0,0.495026 -0.13201,0.891046 -0.1254,0.389421 -0.38282,0.666635 -0.25741,0.270614 -0.64023,0.422422 -0.38282,0.145208 -0.88445,0.145208 z m -0.83824,-2.118711 q 0,0.798642 0.19141,1.174861 0.19141,0.37622 0.64023,0.37622 0.17161,0 0.32342,-0.0264 0.15181,-0.033 0.25081,-0.0924 0.066,-0.033 0.11221,-0.158408 0.0528,-0.132007 0.0858,-0.323417 0.0396,-0.19141 0.0528,-0.435623 0.0198,-0.244213 0.0198,-0.508227 0,-0.77884 -0.19801,-1.16166 -0.19141,-0.389421 -0.62704,-0.389421 -0.16501,0 -0.32341,0.033 -0.15841,0.033 -0.27722,0.105606 -0.066,0.0396 -0.1188,0.165008 -0.0462,0.125407 -0.0792,0.316817 -0.0264,0.19141 -0.0396,0.429022 -0.0132,0.237613 -0.0132,0.495026 z"
               style="fill:url(#linearGradient995);fill-opacity:1;stroke-width:0.31681657"
               id="path1063" />
            <path
               d="m 120.37707,33.490105 q -0.13201,-0.0462 -0.28382,-0.0726 -0.1518,-0.033 -0.29041,-0.033 -0.099,0 -0.17821,0.0198 -0.0792,0.0132 -0.15181,0.0528 -0.066,0.0396 -0.1386,0.105606 -0.066,0.066 -0.15181,0.158408 v 2.917353 h -1.15506 v -4.065813 h 1.03625 l 0.099,0.646834 h 0.007 q 0.0462,-0.0726 0.1122,-0.165009 0.066,-0.099 0.13861,-0.19141 0.0792,-0.09901 0.15841,-0.178209 0.0858,-0.0792 0.17161,-0.112206 0.1518,-0.0528 0.34321,-0.066 0.19141,-0.0198 0.41583,-0.0198 z"
               style="fill:url(#linearGradient995);fill-opacity:1;stroke-width:0.31681657"
               id="path1065" />
            <path
               d="m 121.60474,33.133686 -0.43563,-0.145207 v -0.244213 l 1.24747,-0.884446 h 0.31682 l 0.0132,0.712837 h 1.23426 l -0.0528,0.448824 q -0.13861,0.0264 -0.34322,0.0462 -0.19801,0.0198 -0.38282,0.033 -0.21781,0.0198 -0.44882,0.0396 v 2.283719 q 0,0.217812 0.0792,0.36962 0.0792,0.145207 0.33002,0.145207 0.066,0 0.17821,-0.0066 0.1122,-0.0066 0.23101,-0.0198 0.12541,-0.0132 0.23761,-0.0264 0.11881,-0.0198 0.19801,-0.033 v 0.336617 q -0.1452,0.0924 -0.33661,0.19141 -0.19141,0.0924 -0.40923,0.171609 -0.21121,0.0726 -0.42902,0.118806 -0.21781,0.0462 -0.41582,0.0462 -0.15181,0 -0.29702,-0.033 -0.1452,-0.0264 -0.26401,-0.112206 -0.11221,-0.0858 -0.18481,-0.237612 -0.066,-0.158408 -0.066,-0.409222 z"
               style="fill:url(#linearGradient995);fill-opacity:1;stroke-width:0.31681657"
               id="path1067" />
          </g>
        </g>
      </g>
    </g>
  </g>
</svg>
