<?xml version="1.0" encoding="UTF-8" standalone="no"?>
<svg
   xmlns:dc="http://purl.org/dc/elements/1.1/"
   xmlns:cc="http://creativecommons.org/ns#"
   xmlns:rdf="http://www.w3.org/1999/02/22-rdf-syntax-ns#"
   xmlns:svg="http://www.w3.org/2000/svg"
   xmlns="http://www.w3.org/2000/svg"
   xmlns:sodipodi="http://sodipodi.sourceforge.net/DTD/sodipodi-0.dtd"
   xmlns:inkscape="http://www.inkscape.org/namespaces/inkscape"
   viewBox="0 0 128 128"
   enable-background="new 0 0 128 128"
   version="1.1"
   id="svg8"
   sodipodi:docname="react.svg"
   inkscape:version="0.92.2 (5c3e80d, 2017-08-06)">
  <metadata
     id="metadata14">
    <rdf:RDF>
      <cc:Work
         rdf:about="">
        <dc:format>image/svg+xml</dc:format>
        <dc:type
           rdf:resource="http://purl.org/dc/dcmitype/StillImage" />
        <dc:title />
      </cc:Work>
    </rdf:RDF>
  </metadata>
  <defs
     id="defs12" />
  <sodipodi:namedview
     pagecolor="#ffffff"
     bordercolor="#666666"
     borderopacity="1"
     objecttolerance="10"
     gridtolerance="10"
     guidetolerance="10"
     inkscape:pageopacity="0"
     inkscape:pageshadow="2"
     inkscape:window-width="1920"
     inkscape:window-height="1005"
     id="namedview10"
     showgrid="false"
     inkscape:zoom="1.84375"
     inkscape:cx="-27.389831"
     inkscape:cy="-22.779661"
     inkscape:window-x="-9"
     inkscape:window-y="-9"
     inkscape:window-maximized="1"
     inkscape:current-layer="svg8" />
  <g
     id="g878">
    <path
       style="opacity:0.37400004;fill:#d4aa00;fill-opacity:1;stroke:none;stroke-width:0;stroke-miterlimit:3.54166675;stroke-dasharray:none;stroke-opacity:0.99514561"
       d="M 52.881355,30.644068 A 25.220339,27.217989 0 0 1 27.661016,57.862057 25.220339,27.217989 0 0 1 2.4406776,30.644068 25.220339,27.217989 0 0 1 27.661016,3.4260788 25.220339,27.217989 0 0 1 52.881355,30.644068 Z"
       id="path854" />
    <g
       style="opacity:0.808;fill:#d4aa00"
       transform="matrix(0.41950506,0,0,0.40329281,0.81269291,4.8333283)"
       id="g6">
      <path
         style="fill:#d4aa00"
         d="M 75.4,64 A 11.4,11.4 0 0 1 64,75.4 11.4,11.4 0 0 1 52.6,64 11.4,11.4 0 0 1 64,52.6 11.4,11.4 0 0 1 75.4,64 Z"
         id="circle2" />
      <path
         style="fill:#d4aa00"
         inkscape:connector-curvature="0"
         id="path4"
         d="m 107.3,45.2 c -2.2,-0.8 -4.5,-1.6 -6.9,-2.3 0.6,-2.4 1.1,-4.8 1.5,-7.1 C 104,22.6 101.7,13.3 95.3,9.7 93.4,8.6 91.3,8.1 88.9,8.1 81.9,8.1 73,13.3 64,22 55,13.3 46.1,8.1 39.1,8.1 c -2.4,0 -4.5,0.5 -6.4,1.6 -6.4,3.7 -8.7,13 -6.6,26.1 0.4,2.3 0.9,4.7 1.5,7.1 -2.4,0.7 -4.7,1.4 -6.9,2.3 C 8.2,50 1.4,56.6 1.4,64 c 0,7.4 6.9,14 19.3,18.8 2.2,0.8 4.5,1.6 6.9,2.3 -0.6,2.4 -1.1,4.8 -1.5,7.1 -2.1,13.2 0.2,22.5 6.6,26.1 1.9,1.1 4,1.6 6.4,1.6 7.1,0 16,-5.2 24.9,-13.9 9,8.7 17.9,13.9 24.9,13.9 2.4,0 4.5,-0.5 6.4,-1.6 6.4,-3.7 8.7,-13 6.6,-26.1 -0.4,-2.3 -0.9,-4.7 -1.5,-7.1 2.4,-0.7 4.7,-1.4 6.9,-2.3 12.5,-4.8 19.3,-11.4 19.3,-18.8 0,-7.4 -6.8,-14 -19.3,-18.8 z M 92.5,14.7 C 96.6,17.1 98,24.5 96.3,35 96,37.1 95.5,39.3 94.9,41.6 89.7,40.4 84.2,39.6 78.4,39.1 75,34.3 71.5,30 68,26.1 75.4,18.8 82.9,13.8 89,13.8 c 1.3,0 2.5,0.3 3.5,0.9 z M 81.3,74 c -1.8,3.2 -3.9,6.4 -6.1,9.6 C 71.5,83.9 67.8,84 64,84 60.1,84 56.4,83.9 52.8,83.6 50.6,80.4 48.6,77.2 46.8,74 44.9,70.7 43.1,67.3 41.5,64 c 1.6,-3.3 3.4,-6.7 5.3,-10 1.8,-3.2 3.9,-6.4 6.1,-9.6 3.7,-0.3 7.4,-0.4 11.2,-0.4 3.9,0 7.6,0.1 11.2,0.4 2.2,3.2 4.2,6.4 6,9.6 1.9,3.3 3.7,6.7 5.3,10 -1.7,3.3 -3.4,6.6 -5.3,10 z m 8.3,-3.3 c 1.5,3.5 2.7,6.9 3.8,10.3 -3.4,0.8 -7,1.4 -10.8,1.9 1.2,-1.9 2.5,-3.9 3.6,-6 1.2,-2.1 2.3,-4.2 3.4,-6.2 z M 64,97.8 c -2.4,-2.6 -4.7,-5.4 -6.9,-8.3 2.3,0.1 4.6,0.2 6.9,0.2 2.3,0 4.6,-0.1 6.9,-0.2 -2.2,2.9 -4.5,5.7 -6.9,8.3 z M 45.4,82.8 C 41.6,82.3 38,81.7 34.6,80.9 c 1.1,-3.3 2.3,-6.8 3.8,-10.3 1.1,2 2.2,4.1 3.4,6.1 1.2,2.2 2.4,4.1 3.6,6.1 z m -7,-25.5 C 36.9,53.8 35.7,50.4 34.6,47 c 3.4,-0.8 7,-1.4 10.8,-1.9 -1.2,1.9 -2.5,3.9 -3.6,6 -1.2,2.1 -2.3,4.2 -3.4,6.2 z M 64,30.2 c 2.4,2.6 4.7,5.4 6.9,8.3 -2.3,-0.1 -4.6,-0.2 -6.9,-0.2 -2.3,0 -4.6,0.1 -6.9,0.2 2.2,-2.9 4.5,-5.7 6.9,-8.3 z m 22.2,21 -3.6,-6 c 3.8,0.5 7.4,1.1 10.8,1.9 -1.1,3.3 -2.3,6.8 -3.8,10.3 -1.1,-2.1 -2.2,-4.2 -3.4,-6.2 z M 31.7,35 C 30,24.5 31.4,17.1 35.5,14.7 c 1,-0.6 2.2,-0.9 3.5,-0.9 6,0 13.5,4.9 21,12.3 -3.5,3.8 -7,8.2 -10.4,13 -5.8,0.5 -11.3,1.4 -16.5,2.5 -0.6,-2.3 -1,-4.5 -1.4,-6.6 z M 7,64 c 0,-4.7 5.7,-9.7 15.7,-13.4 2,-0.8 4.2,-1.5 6.4,-2.1 1.6,5 3.6,10.3 6,15.6 -2.4,5.3 -4.5,10.5 -6,15.5 C 15.3,75.6 7,69.6 7,64 Z m 28.5,49.3 C 31.4,110.9 30,103.5 31.7,93 c 0.3,-2.1 0.8,-4.3 1.4,-6.6 5.2,1.2 10.7,2 16.5,2.5 3.4,4.8 6.9,9.1 10.4,13 -7.4,7.3 -14.9,12.3 -21,12.3 -1.3,0 -2.5,-0.3 -3.5,-0.9 z M 96.3,93 c 1.7,10.5 0.3,17.9 -3.8,20.3 -1,0.6 -2.2,0.9 -3.5,0.9 -6,0 -13.5,-4.9 -21,-12.3 3.5,-3.8 7,-8.2 10.4,-13 5.8,-0.5 11.3,-1.4 16.5,-2.5 0.6,2.3 1,4.5 1.4,6.6 z m 9,-15.6 c -2,0.8 -4.2,1.5 -6.4,2.1 -1.6,-5 -3.6,-10.3 -6,-15.6 2.4,-5.3 4.5,-10.5 6,-15.5 13.8,4 22.1,10 22.1,15.6 0,4.7 -5.8,9.7 -15.7,13.4 z" />
    </g>
    <g
       style="opacity:0.808;fill:#000000"
       transform="matrix(0.42296084,0,0,0.37745232,90.84839,-2.920414)"
       id="g845">
      <g
         id="text823"
         style="font-style:normal;font-variant:normal;font-weight:normal;font-stretch:normal;font-size:40px;line-height:1.25;font-family:MoolBoran;-inkscape-font-specification:'MoolBoran, Normal';font-variant-ligatures:normal;font-variant-caps:normal;font-variant-numeric:normal;font-feature-settings:normal;text-align:start;letter-spacing:2.08999991px;word-spacing:0px;writing-mode:lr-tb;text-anchor:start;fill:#000000;fill-opacity:1;stroke:none"
         aria-label="HTML">
        <path
           style="fill:#000000"
           inkscape:connector-curvature="0"
           id="path847"
           d="m -189.08243,97.627121 v -8.105469 h -7.73437 v 8.105469 h -3.47657 V 79.619308 h 3.47657 v 7.890625 h 7.73437 v -7.890625 h 3.4961 v 18.007813 z" />
        <path
           style="fill:#000000"
           inkscape:connector-curvature="0"
           id="path849"
           d="m -175.95727,97.627121 v -16.09375 l -5.25391,-0.07813 0.17578,-1.835938 h 13.84766 l -0.17578,1.777344 -5.09766,0.136719 v 16.09375 z" />
        <path
           style="fill:#000000"
           inkscape:connector-curvature="0"
           id="path851"
           d="m -145.17587,97.627121 -1.38671,-13.730469 -6.17188,13.730469 h -1.05469 l -6.44531,-13.730469 -1.17187,13.730469 h -2.01172 l 1.73828,-18.125 h 3.26172 l 5.99609,12.753906 5.70313,-12.753906 h 3.18359 l 1.89453,18.125 z" />
        <path
           style="fill:#000000"
           inkscape:connector-curvature="0"
           id="path853"
           d="M -136.13274,97.627121 V 79.619308 h 3.47656 V 95.73259 h 6.5039 l -0.17578,1.894531 z" />
      </g>
      <g
         id="text827"
         style="font-style:normal;font-variant:normal;font-weight:normal;font-stretch:normal;font-size:40px;line-height:1.25;font-family:MoolBoran;-inkscape-font-specification:'MoolBoran, Normal';font-variant-ligatures:normal;font-variant-caps:normal;font-variant-numeric:normal;font-feature-settings:normal;text-align:start;letter-spacing:2.08999991px;word-spacing:0px;writing-mode:lr-tb;text-anchor:start;fill:#000000;fill-opacity:1;stroke:none"
         aria-label="CSS">
        <path
           style="fill:#000000"
           inkscape:connector-curvature="0"
           id="path856"
           d="m -163.06502,120.66068 q -2.01172,0 -3.41797,-0.68359 -1.40625,-0.68359 -2.28515,-1.91406 -0.87891,-1.23047 -1.28907,-2.94922 -0.39062,-1.73828 -0.39062,-3.84766 0,-1.69922 0.39062,-3.02734 0.39063,-1.34766 1.05469,-2.34375 0.6836,-1.01563 1.5625,-1.71875 0.89844,-0.70313 1.875,-1.13281 0.9961,-0.44922 2.03125,-0.64454 1.03516,-0.19531 2.01172,-0.19531 0.60547,0 1.26953,0.0391 0.6836,0.0391 1.3086,0.11719 0.64453,0.0586 1.1914,0.15625 0.54688,0.0781 0.89844,0.15625 l -0.64453,2.5586 q -0.35156,-0.11719 -0.9961,-0.23438 -0.64453,-0.13672 -1.38671,-0.25391 -0.72266,-0.11718 -1.44532,-0.19531 -0.70312,-0.0781 -1.17187,-0.0781 -0.52735,0 -0.9375,0.0391 -0.41016,0.0195 -0.76172,0.11719 -0.33203,0.0781 -0.64453,0.23437 -0.29297,0.15625 -0.60547,0.39063 -0.80078,0.5664 -1.09375,2.14843 -0.27344,1.58204 -0.27344,3.94532 0,3.63281 1.07422,5.50781 1.07422,1.85547 3.45703,1.85547 1.34766,0 2.8125,-0.21485 1.46485,-0.23437 2.65625,-0.64453 v 1.50391 q -0.66406,0.3125 -1.44531,0.56641 -0.76172,0.23437 -1.58203,0.41015 -0.80078,0.15625 -1.64063,0.23438 -0.82031,0.0977 -1.58203,0.0977 z" />
        <path
           style="fill:#000000"
           inkscape:connector-curvature="0"
           id="path858"
           d="m -141.34611,115.13334 q 0,0.97656 -0.46875,1.97266 -0.46875,0.97656 -1.34766,1.77734 -0.8789,0.78125 -2.1289,1.28906 -1.23047,0.48828 -2.77344,0.48828 -0.82031,0 -1.52344,-0.0977 -0.70312,-0.0977 -1.32812,-0.25391 -0.60547,-0.17578 -1.17188,-0.41016 -0.56641,-0.2539 -1.13281,-0.54687 l 0.85937,-2.67578 q 0.3711,0.2539 0.97657,0.54687 0.625,0.29297 1.34765,0.54688 0.72266,0.2539 1.44531,0.42969 0.74219,0.15625 1.34766,0.15625 0.68359,0 1.11328,-0.0781 0.44922,-0.0977 0.80078,-0.25391 0.39063,-0.15625 0.625,-0.78125 0.23438,-0.625 0.23438,-1.62109 0,-0.91797 -0.60547,-1.46484 -0.60547,-0.54688 -1.52344,-0.9375 -0.89844,-0.41016 -1.95312,-0.80078 -1.05469,-0.41016 -1.97266,-1.03516 -0.89844,-0.64453 -1.50391,-1.64063 -0.60546,-0.99609 -0.60546,-2.61718 0,-0.78125 0.41015,-1.64063 0.41016,-0.8789 1.19141,-1.60156 0.78125,-0.74219 1.93359,-1.21094 1.15235,-0.46875 2.61719,-0.46875 1.17187,0 2.24609,0.11719 1.09375,0.11719 2.10938,0.3125 l -0.54688,2.67578 q -0.46875,-0.17578 -1.07422,-0.33203 -0.58593,-0.15625 -1.21093,-0.27344 -0.60547,-0.11719 -1.19141,-0.17578 -0.58594,-0.0781 -1.03516,-0.0781 -0.50781,0 -0.9375,0.0586 -0.42968,0.0391 -0.78125,0.25391 -0.33203,0.19531 -0.48828,0.68359 -0.13672,0.46875 -0.13672,1.13281 0,0.6836 0.35157,1.13281 0.35156,0.44922 0.91797,0.80079 0.58593,0.33203 1.30859,0.625 0.74219,0.27343 1.50391,0.60546 0.78125,0.3125 1.5039,0.74219 0.74219,0.41016 1.3086,1.03516 0.58593,0.60547 0.9375,1.48437 0.35156,0.87891 0.35156,2.12891 z" />
        <path
           style="fill:#000000"
           inkscape:connector-curvature="0"
           id="path860"
           d="m -126.13111,115.13334 q 0,0.97656 -0.46875,1.97266 -0.46875,0.97656 -1.34766,1.77734 -0.8789,0.78125 -2.1289,1.28906 -1.23047,0.48828 -2.77344,0.48828 -0.82031,0 -1.52344,-0.0977 -0.70312,-0.0977 -1.32812,-0.25391 -0.60547,-0.17578 -1.17188,-0.41016 -0.5664,-0.2539 -1.13281,-0.54687 l 0.85937,-2.67578 q 0.3711,0.2539 0.97657,0.54687 0.625,0.29297 1.34765,0.54688 0.72266,0.2539 1.44532,0.42969 0.74218,0.15625 1.34765,0.15625 0.6836,0 1.11328,-0.0781 0.44922,-0.0977 0.80078,-0.25391 0.39063,-0.15625 0.625,-0.78125 0.23438,-0.625 0.23438,-1.62109 0,-0.91797 -0.60547,-1.46484 -0.60547,-0.54688 -1.52344,-0.9375 -0.89843,-0.41016 -1.95312,-0.80078 -1.05469,-0.41016 -1.97266,-1.03516 -0.89844,-0.64453 -1.5039,-1.64063 -0.60547,-0.99609 -0.60547,-2.61718 0,-0.78125 0.41015,-1.64063 0.41016,-0.8789 1.19141,-1.60156 0.78125,-0.74219 1.93359,-1.21094 1.15235,-0.46875 2.61719,-0.46875 1.17188,0 2.24609,0.11719 1.09375,0.11719 2.10938,0.3125 l -0.54688,2.67578 q -0.46875,-0.17578 -1.07421,-0.33203 -0.58594,-0.15625 -1.21094,-0.27344 -0.60547,-0.11719 -1.19141,-0.17578 -0.58594,-0.0781 -1.03515,-0.0781 -0.50782,0 -0.9375,0.0586 -0.42969,0.0391 -0.78125,0.25391 -0.33204,0.19531 -0.48829,0.68359 -0.13671,0.46875 -0.13671,1.13281 0,0.6836 0.35156,1.13281 0.35156,0.44922 0.91797,0.80079 0.58593,0.33203 1.30859,0.625 0.74219,0.27343 1.50391,0.60546 0.78125,0.3125 1.5039,0.74219 0.74219,0.41016 1.3086,1.03516 0.58593,0.60547 0.9375,1.48437 0.35156,0.87891 0.35156,2.12891 z" />
      </g>
      <g
         id="text831"
         style="font-style:normal;font-variant:normal;font-weight:normal;font-stretch:normal;font-size:40px;line-height:1.25;font-family:MoolBoran;-inkscape-font-specification:'MoolBoran, Normal';font-variant-ligatures:normal;font-variant-caps:normal;font-variant-numeric:normal;font-feature-settings:normal;text-align:start;letter-spacing:2.08999991px;word-spacing:0px;writing-mode:lr-tb;text-anchor:start;fill:#000000;fill-opacity:1;stroke:none"
         aria-label="JS">
        <path
           style="fill:#000000"
           inkscape:connector-curvature="0"
           id="path863"
           d="m -114.9185,97.364212 q 0,2.792968 -1.30859,4.472658 -1.28906,1.69922 -3.86719,2.57812 l -0.58593,-1.11328 q 0.70312,-0.42969 1.15234,-0.95703 0.44922,-0.52734 0.68359,-1.15234 0.25391,-0.60547 0.35157,-1.308597 0.0977,-0.683593 0.0977,-1.464843 V 80.704056 h 3.47656 z" />
        <path
           style="fill:#000000"
           inkscape:connector-curvature="0"
           id="path865"
           d="m -98.492558,93.438431 q 0,0.976562 -0.46875,1.972656 -0.46875,0.976563 -1.347652,1.777344 -0.87891,0.78125 -2.12891,1.289062 -1.23047,0.488282 -2.77344,0.488282 -0.82031,0 -1.52344,-0.09766 -0.70312,-0.09766 -1.32812,-0.253906 -0.60547,-0.175781 -1.17188,-0.410156 -0.5664,-0.253906 -1.13281,-0.546875 l 0.85938,-2.675781 q 0.37109,0.253906 0.97656,0.546875 0.625,0.292968 1.34766,0.546875 0.72265,0.253906 1.44531,0.429687 0.74219,0.15625 1.34765,0.15625 0.6836,0 1.11329,-0.07813 0.44921,-0.09766 0.80078,-0.253906 0.39062,-0.15625 0.625,-0.78125 0.23437,-0.625 0.23437,-1.621094 0,-0.917969 -0.60547,-1.464844 -0.60547,-0.546875 -1.52343,-0.9375 -0.89844,-0.410156 -1.95313,-0.800781 -1.05469,-0.410156 -1.97266,-1.035156 -0.89843,-0.644531 -1.5039,-1.640625 -0.60547,-0.996094 -0.60547,-2.617188 0,-0.78125 0.41016,-1.640625 0.41015,-0.878906 1.1914,-1.601562 0.78125,-0.742188 1.9336,-1.210938 1.15234,-0.46875 2.61718,-0.46875 1.17188,0 2.2461,0.117188 1.09375,0.117187 2.109372,0.3125 l -0.546875,2.675781 q -0.468747,-0.175781 -1.074217,-0.332031 -0.58594,-0.15625 -1.21094,-0.273438 -0.60547,-0.117187 -1.19141,-0.175781 -0.58593,-0.07813 -1.03515,-0.07813 -0.50781,0 -0.9375,0.05859 -0.42969,0.03906 -0.78125,0.253906 -0.33203,0.195313 -0.48828,0.683594 -0.13672,0.46875 -0.13672,1.132812 0,0.683594 0.35156,1.132813 0.35156,0.449219 0.91797,0.800781 0.58594,0.332031 1.30859,0.625 0.74219,0.273438 1.50391,0.605469 0.78125,0.3125 1.50391,0.742187 0.74218,0.410157 1.30859,1.035157 0.585937,0.605468 0.9375,1.484375 0.351562,0.878906 0.351562,2.128906 z" />
      </g>
      <g
         id="text835"
         style="font-style:normal;font-variant:normal;font-weight:normal;font-stretch:normal;font-size:40px;line-height:1.25;font-family:MoolBoran;-inkscape-font-specification:'MoolBoran, Normal';font-variant-ligatures:normal;font-variant-caps:normal;font-variant-numeric:normal;font-feature-settings:normal;text-align:start;letter-spacing:2.08999991px;word-spacing:0px;writing-mode:lr-tb;text-anchor:start;fill:#000000;fill-opacity:1;stroke:none"
         aria-label="NODE">
        <path
           style="fill:#000000"
           inkscape:connector-curvature="0"
           id="path868"
           d="m -169.99875,75.487488 -12.08984,-12.636719 h -0.0391 q 0.0391,1.582031 0.0781,2.910156 0.0195,0.566407 0.0195,1.132813 0.0195,0.566406 0.0195,1.054687 0.0195,0.46875 0.0195,0.839844 0,0.371094 0,0.527344 v 6.074219 h -2.03125 v -18.125 h 1.52344 l 12.08984,12.578125 q -0.0195,-1.445313 -0.0391,-2.714844 0,-0.546875 -0.0195,-1.09375 0,-0.566406 -0.0195,-1.074219 0,-0.507812 0,-0.917969 0,-0.429687 0,-0.683593 V 57.40155 h 2.05078 v 18.085938 z" />
        <path
           style="fill:#000000"
           inkscape:connector-curvature="0"
           id="path870"
           d="m -145.85797,66.327332 q 0,2.128906 -0.54687,3.847656 -0.52735,1.71875 -1.6211,2.949219 -1.07421,1.210937 -2.69531,1.875 -1.62109,0.644531 -3.76953,0.644531 -2.20703,0 -3.78906,-0.664063 -1.58203,-0.664062 -2.59766,-1.875 -0.99609,-1.230468 -1.48437,-2.949218 -0.46875,-1.71875 -0.46875,-3.828125 0,-2.109375 0.48828,-3.789063 0.48828,-1.699219 1.5039,-2.890625 1.03516,-1.191406 2.61719,-1.816406 1.58203,-0.644531 3.75,-0.644531 2.16797,0 3.76953,0.644531 1.6211,0.625 2.69532,1.816406 1.07421,1.191406 1.60156,2.890625 0.54687,1.679688 0.54687,3.789063 z m -3.67187,0 q 0,-1.640625 -0.29297,-2.949219 -0.27344,-1.308594 -0.87891,-2.207031 -0.60547,-0.917969 -1.54297,-1.386719 -0.9375,-0.488281 -2.22656,-0.488281 -1.13281,0 -2.10937,0.253906 -0.97657,0.234375 -1.54297,0.683594 -0.56641,0.449218 -0.83985,1.972656 -0.2539,1.523437 -0.2539,4.121094 0,1.621093 0.23437,2.949218 0.23438,1.308594 0.78125,2.265625 0.54688,0.957032 1.44532,1.484375 0.91796,0.507813 2.26562,0.507813 1.38672,0 2.28516,-0.253906 0.89843,-0.253907 1.52343,-0.683594 0.29297,-0.195313 0.50782,-0.78125 0.21484,-0.585938 0.35156,-1.425781 0.15625,-0.859375 0.21484,-1.894532 0.0781,-1.054687 0.0781,-2.167968 z" />
        <path
           style="fill:#000000"
           inkscape:connector-curvature="0"
           id="path872"
           d="m -136.75625,73.592957 q 0.17578,0.03906 0.41016,0.07813 0.23437,0.01953 0.48828,0.03906 0.25391,0.01953 0.48828,0.03906 0.23438,0 0.39063,0 1.5625,0 2.59765,-0.195313 1.05469,-0.195312 1.81641,-0.761719 0.41015,-0.3125 0.74219,-0.78125 0.35156,-0.488281 0.60546,-1.25 0.27344,-0.78125 0.41016,-1.933593 0.15625,-1.171875 0.15625,-2.851563 0,-2.109375 -0.50781,-3.457031 -0.48828,-1.347656 -1.34766,-2.109375 -0.83984,-0.78125 -1.99219,-1.074219 -1.13281,-0.3125 -2.4414,-0.3125 -0.19531,0 -0.44922,0.01953 -0.25391,0 -0.50781,0.01953 -0.25391,0.01953 -0.48828,0.05859 -0.23438,0.01953 -0.3711,0.03906 z m -3.47656,-16.054688 q 0.54687,-0.05859 1.26953,-0.117187 0.74219,-0.07813 1.5625,-0.117188 0.82031,-0.05859 1.64063,-0.07813 0.83984,-0.03906 1.5625,-0.03906 2.08984,0 3.78906,0.46875 1.71875,0.46875 2.92969,1.503906 1.23046,1.015625 1.89453,2.636719 0.68359,1.601562 0.68359,3.886718 0,2.226563 -0.52734,4.0625 -0.52735,1.816407 -1.67969,3.105469 -1.15234,1.289063 -2.96875,1.992188 -1.81641,0.703125 -4.39453,0.703125 -0.72266,0 -1.52344,-0.01953 -0.78125,-0.01953 -1.54297,-0.07813 -0.76172,-0.03906 -1.46484,-0.07813 -0.70313,-0.05859 -1.23047,-0.117187 z" />
        <path
           style="fill:#000000"
           inkscape:connector-curvature="0"
           id="path874"
           d="m -109.02172,75.389832 h -10.29297 V 57.382019 h 9.94141 l -0.17578,1.835938 -6.28907,0.07813 v 5.859375 l 5.91797,0.07813 -0.15625,1.660156 -5.76172,0.136719 v 6.445312 l 6.97266,0.136719 z" />
      </g>
    </g>
  </g>
</svg>
