<?xml version="1.0" encoding="UTF-8" standalone="no"?>
<svg
   xmlns:dc="http://purl.org/dc/elements/1.1/"
   xmlns:cc="http://creativecommons.org/ns#"
   xmlns:rdf="http://www.w3.org/1999/02/22-rdf-syntax-ns#"
   xmlns:svg="http://www.w3.org/2000/svg"
   xmlns="http://www.w3.org/2000/svg"
   xmlns:sodipodi="http://sodipodi.sourceforge.net/DTD/sodipodi-0.dtd"
   xmlns:inkscape="http://www.inkscape.org/namespaces/inkscape"
   viewBox="0 0 64 64"
   version="1.1"
   id="svg4"
   sodipodi:docname="wordpress.svg"
   inkscape:version="0.92.2 (5c3e80d, 2017-08-06)">
  <metadata
     id="metadata10">
    <rdf:RDF>
      <cc:Work
         rdf:about="">
        <dc:format>image/svg+xml</dc:format>
        <dc:type
           rdf:resource="http://purl.org/dc/dcmitype/StillImage" />
      </cc:Work>
    </rdf:RDF>
  </metadata>
  <defs
     id="defs8" />
  <sodipodi:namedview
     pagecolor="#ffffff"
     bordercolor="#666666"
     borderopacity="1"
     objecttolerance="10"
     gridtolerance="10"
     guidetolerance="10"
     inkscape:pageopacity="0"
     inkscape:pageshadow="2"
     inkscape:window-width="1920"
     inkscape:window-height="1005"
     id="namedview6"
     showgrid="false"
     inkscape:zoom="3.6875"
     inkscape:cx="32"
     inkscape:cy="-22.237288"
     inkscape:window-x="-9"
     inkscape:window-y="-9"
     inkscape:window-maximized="1"
     inkscape:current-layer="svg4" />
  <path
     d="m 32.306302,64.265475 c 17.65757,-0.02671 31.95158,-14.345182 31.95158,-32.007429 0,-17.37517 -14.22806,-31.68491831 -31.22621,-31.98740331 C 15.179878,-0.04673551 0.26251553,14.393456 0.25787953,31.904204 0.25257953,49.919266 14.48285,64.291153 32.306302,64.265475 Z m -0.052,-62.4454313 c 16.95282,-0.0056 30.46015,13.7248073 30.455,30.9572083 -0.006,16.268967 -13.87105,29.878736 -30.44263,29.882332 C 15.383923,62.663084 1.8070435,49.017973 1.8075585,32.047486 1.8085585,15.514552 15.596689,1.8256937 32.254312,1.8200437 Z M 19.459462,17.876914 c 0.277161,0.920805 -0.498689,1.241265 -1.323482,1.30546 -0.868067,0.06676 -1.735619,0.131992 -2.743299,0.208505 3.32596,9.877752 6.601948,19.60914 9.955731,29.567009 0.23904,-0.38979 0.33744,-0.499693 0.38071,-0.628081 1.84123,-5.485815 3.69276,-10.968034 5.48711,-16.469255 0.16383,-0.501746 0.0824,-1.166288 -0.0969,-1.681898 -0.94946,-2.732122 -2.08696,-5.404674 -2.91948,-8.169664 -0.56927,-1.892971 -1.32452,-3.117803 -3.56913,-2.898514 -0.38225,0.03749 -0.849,-0.78266 -1.27711,-1.206345 0.51775,-0.308134 1.03189,-0.875101 1.55428,-0.882805 4.57062,-0.06932 9.14278,-0.06932 13.71288,0.0041 0.52445,0.0087 1.03859,0.590591 1.55634,0.906429 -0.45335,0.412899 -0.84437,1.03225 -1.37448,1.191965 -0.85055,0.255752 -1.79383,0.207477 -2.81182,0.297863 3.32957,9.87313 6.59062,19.544432 9.9681,29.560332 1.50997,-4.999989 2.91485,-9.591187 4.28109,-14.194198 1.2189,-4.10897 0.4925,-7.946264 -1.71141,-11.5653 -0.66251,-1.088226 -1.47649,-2.1441 -1.85205,-3.330928 -0.42656,-1.350102 -0.781,-2.887177 -0.55484,-4.241428 0.3838,-2.295085 2.15033,-3.434667 4.54074,-3.652929 -13.08129,-12.10248251 -33.637737,-7.7701143 -41.2123325,5.379507 2.9158815,-0.134033 5.6998785,-0.310187 8.4859365,-0.348191 0.526508,-0.0067 1.399726,0.437037 1.52337,0.848397 z m 5.21201,40.042539 c -0.0608,0.177178 -0.0644,0.374385 -0.11231,0.668653 5.63754,1.558131 11.16638,1.445661 16.82505,-0.455011 l -8.64461,-23.603074 c -2.76648,8.017137 -5.41962,15.702002 -8.06813,23.389432 z M 20.315123,56.852282 7.2910245,21.237115 C 1.4154715,32.678136 5.8851165,50.133932 20.315123,56.852282 Z M 59.688802,33.967163 c 0.41317,-5.409808 -1.45897,-12.900036 -3.07559,-13.930231 -0.18031,1.990034 -0.0546,4.203977 -0.62748,6.221229 -1.34821,4.752968 -2.99676,9.423254 -4.58453,14.106379 -1.72583,5.090377 -3.51966,10.157642 -5.28413,15.235178 8.29017,-4.898819 12.84585,-12.129186 13.57173,-21.632555 z"
     id="path2"
     inkscape:connector-curvature="0"
     style="clip-rule:evenodd;fill:#e6b800;fill-rule:evenodd;stroke-width:0.51436454" />
</svg>
